G04 EAGLE Gerber RS-274X export*
G75*
%MOMM*%
%FSLAX34Y34*%
%LPD*%
%INSoldermask Top*%
%IPPOS*%
%AMOC8*
5,1,8,0,0,1.08239X$1,22.5*%
G01*
%ADD10C,3.203200*%
%ADD11P,1.869504X8X202.500000*%
%ADD12C,2.203200*%
%ADD13C,2.743200*%
%ADD14C,1.727200*%
%ADD15C,2.743200*%
%ADD16R,2.387600X2.387600*%
%ADD17C,1.981200*%
%ADD18R,1.603200X1.203200*%
%ADD19R,1.703200X1.503200*%
%ADD20P,2.969212X8X22.500000*%
%ADD21P,1.951982X8X292.500000*%
%ADD22C,1.803400*%
%ADD23R,1.503200X1.703200*%
%ADD24C,0.959600*%


D10*
X31000Y560000D03*
X461000Y560000D03*
D11*
X405130Y548640D03*
X255270Y548640D03*
D12*
X42930Y388409D03*
X42930Y439209D03*
X42930Y490009D03*
X42930Y210609D03*
X42930Y261409D03*
X42930Y312209D03*
X42930Y50589D03*
X42930Y101389D03*
X42930Y152189D03*
D13*
X114300Y554482D02*
X139700Y554482D01*
X139700Y329438D02*
X114300Y329438D01*
D14*
X214630Y467360D02*
X229870Y467360D01*
X196850Y391160D02*
X181610Y391160D01*
D15*
X271780Y482600D03*
X271780Y431800D03*
X271780Y177800D03*
X449580Y177800D03*
X449580Y228600D03*
D16*
X160020Y139820D03*
X220020Y281820D03*
X100020Y281820D03*
D17*
X100020Y159820D03*
X220020Y159820D03*
D18*
X263320Y99060D03*
X285320Y108560D03*
X285320Y89560D03*
D19*
X312420Y92100D03*
X312420Y111100D03*
D20*
X312420Y22860D03*
X464820Y25400D03*
X396240Y25400D03*
D21*
X139700Y38100D03*
D22*
X139700Y63500D03*
D23*
X438760Y106680D03*
X419760Y106680D03*
D24*
X309880Y292100D03*
X462280Y292100D03*
X236220Y99060D03*
M02*
