G04 EAGLE Gerber RS-274X export*
G75*
%MOMM*%
%FSLAX34Y34*%
%LPD*%
%INSilkscreen Top*%
%IPPOS*%
%AMOC8*
5,1,8,0,0,1.08239X$1,22.5*%
G01*
%ADD10C,0.203200*%
%ADD11C,0.127000*%
%ADD12C,0.406400*%
%ADD13C,0.152400*%
%ADD14C,0.050800*%
%ADD15R,1.143000X0.635000*%
%ADD16R,4.064000X0.635000*%
%ADD17R,0.508000X10.160000*%
%ADD18R,0.127000X3.937000*%
%ADD19R,0.508000X4.826000*%
%ADD20C,0.101600*%
%ADD21C,0.254000*%
%ADD22C,0.076200*%


D10*
X464822Y516001D02*
X461322Y516001D01*
X461205Y516003D01*
X461088Y516009D01*
X460972Y516019D01*
X460855Y516032D01*
X460740Y516050D01*
X460625Y516071D01*
X460511Y516096D01*
X460397Y516125D01*
X460285Y516158D01*
X460174Y516195D01*
X460064Y516235D01*
X459956Y516279D01*
X459849Y516326D01*
X459743Y516377D01*
X459640Y516432D01*
X459538Y516490D01*
X459439Y516551D01*
X459341Y516615D01*
X459246Y516683D01*
X459153Y516754D01*
X459062Y516828D01*
X458974Y516905D01*
X458889Y516985D01*
X458806Y517068D01*
X458726Y517153D01*
X458649Y517241D01*
X458575Y517332D01*
X458504Y517425D01*
X458436Y517520D01*
X458372Y517618D01*
X458311Y517717D01*
X458253Y517819D01*
X458198Y517922D01*
X458147Y518028D01*
X458100Y518135D01*
X458056Y518243D01*
X458016Y518353D01*
X457979Y518464D01*
X457946Y518576D01*
X457917Y518690D01*
X457892Y518804D01*
X457871Y518919D01*
X457853Y519034D01*
X457840Y519151D01*
X457830Y519267D01*
X457824Y519384D01*
X457822Y519501D01*
X457823Y519501D02*
X457823Y528249D01*
X457822Y528249D02*
X457824Y528366D01*
X457830Y528483D01*
X457840Y528599D01*
X457853Y528716D01*
X457871Y528831D01*
X457892Y528946D01*
X457917Y529060D01*
X457946Y529174D01*
X457979Y529286D01*
X458016Y529397D01*
X458056Y529507D01*
X458100Y529615D01*
X458147Y529722D01*
X458198Y529828D01*
X458253Y529931D01*
X458311Y530033D01*
X458372Y530132D01*
X458436Y530230D01*
X458504Y530325D01*
X458575Y530418D01*
X458649Y530509D01*
X458726Y530597D01*
X458806Y530682D01*
X458889Y530765D01*
X458974Y530845D01*
X459062Y530922D01*
X459153Y530996D01*
X459246Y531067D01*
X459341Y531135D01*
X459439Y531199D01*
X459538Y531260D01*
X459640Y531318D01*
X459743Y531373D01*
X459849Y531424D01*
X459956Y531471D01*
X460064Y531515D01*
X460174Y531555D01*
X460285Y531592D01*
X460397Y531625D01*
X460511Y531654D01*
X460625Y531679D01*
X460740Y531700D01*
X460855Y531718D01*
X460972Y531731D01*
X461088Y531741D01*
X461205Y531747D01*
X461322Y531749D01*
X464822Y531749D01*
X471671Y531749D02*
X471671Y516001D01*
X471671Y522125D02*
X480420Y531749D01*
X475170Y525625D02*
X480420Y516001D01*
X486006Y531749D02*
X494755Y531749D01*
X486006Y516001D01*
X494755Y516001D01*
X501116Y528249D02*
X505491Y531749D01*
X505491Y516001D01*
X509865Y516001D02*
X501116Y516001D01*
X515995Y516001D02*
X515995Y516876D01*
X516870Y516876D01*
X516870Y516001D01*
X515995Y516001D01*
X523000Y516001D02*
X527375Y516001D01*
X527506Y516003D01*
X527637Y516009D01*
X527767Y516019D01*
X527897Y516032D01*
X528027Y516050D01*
X528156Y516071D01*
X528284Y516097D01*
X528412Y516126D01*
X528539Y516159D01*
X528664Y516195D01*
X528789Y516236D01*
X528912Y516280D01*
X529034Y516328D01*
X529154Y516379D01*
X529273Y516434D01*
X529390Y516493D01*
X529505Y516555D01*
X529618Y516620D01*
X529730Y516689D01*
X529839Y516761D01*
X529946Y516836D01*
X530051Y516915D01*
X530153Y516996D01*
X530253Y517081D01*
X530350Y517169D01*
X530445Y517259D01*
X530537Y517352D01*
X530626Y517448D01*
X530712Y517547D01*
X530795Y517648D01*
X530875Y517751D01*
X530952Y517857D01*
X531025Y517965D01*
X531096Y518076D01*
X531163Y518188D01*
X531227Y518302D01*
X531287Y518418D01*
X531344Y518536D01*
X531397Y518656D01*
X531447Y518777D01*
X531493Y518900D01*
X531535Y519023D01*
X531573Y519148D01*
X531608Y519275D01*
X531639Y519402D01*
X531667Y519530D01*
X531690Y519658D01*
X531709Y519788D01*
X531725Y519918D01*
X531737Y520048D01*
X531745Y520179D01*
X531749Y520310D01*
X531749Y520440D01*
X531745Y520571D01*
X531737Y520702D01*
X531725Y520832D01*
X531709Y520962D01*
X531690Y521092D01*
X531667Y521220D01*
X531639Y521348D01*
X531608Y521475D01*
X531573Y521602D01*
X531535Y521727D01*
X531493Y521850D01*
X531447Y521973D01*
X531397Y522094D01*
X531344Y522214D01*
X531287Y522332D01*
X531227Y522448D01*
X531163Y522562D01*
X531096Y522674D01*
X531025Y522785D01*
X530952Y522893D01*
X530875Y522999D01*
X530795Y523102D01*
X530712Y523203D01*
X530626Y523302D01*
X530537Y523398D01*
X530445Y523491D01*
X530350Y523581D01*
X530253Y523669D01*
X530153Y523754D01*
X530051Y523835D01*
X529946Y523914D01*
X529839Y523989D01*
X529730Y524061D01*
X529618Y524130D01*
X529505Y524195D01*
X529390Y524257D01*
X529273Y524316D01*
X529154Y524371D01*
X529034Y524422D01*
X528912Y524470D01*
X528789Y524514D01*
X528664Y524555D01*
X528539Y524591D01*
X528412Y524624D01*
X528284Y524653D01*
X528156Y524679D01*
X528027Y524700D01*
X527897Y524718D01*
X527767Y524731D01*
X527637Y524741D01*
X527506Y524747D01*
X527375Y524749D01*
X528249Y531749D02*
X523000Y531749D01*
X528249Y531749D02*
X528367Y531747D01*
X528485Y531741D01*
X528603Y531731D01*
X528720Y531717D01*
X528837Y531699D01*
X528954Y531677D01*
X529069Y531652D01*
X529183Y531622D01*
X529297Y531588D01*
X529409Y531551D01*
X529520Y531510D01*
X529629Y531465D01*
X529737Y531417D01*
X529843Y531365D01*
X529948Y531309D01*
X530050Y531250D01*
X530150Y531188D01*
X530248Y531122D01*
X530344Y531053D01*
X530438Y530980D01*
X530529Y530905D01*
X530617Y530826D01*
X530703Y530745D01*
X530786Y530660D01*
X530866Y530573D01*
X530943Y530484D01*
X531017Y530391D01*
X531087Y530297D01*
X531155Y530200D01*
X531219Y530100D01*
X531280Y529999D01*
X531337Y529896D01*
X531391Y529790D01*
X531442Y529683D01*
X531488Y529575D01*
X531531Y529465D01*
X531570Y529353D01*
X531606Y529240D01*
X531637Y529126D01*
X531665Y529011D01*
X531689Y528896D01*
X531709Y528779D01*
X531725Y528662D01*
X531737Y528544D01*
X531745Y528426D01*
X531749Y528308D01*
X531749Y528190D01*
X531745Y528072D01*
X531737Y527954D01*
X531725Y527836D01*
X531709Y527719D01*
X531689Y527602D01*
X531665Y527487D01*
X531637Y527372D01*
X531606Y527258D01*
X531570Y527145D01*
X531531Y527033D01*
X531488Y526923D01*
X531442Y526815D01*
X531391Y526708D01*
X531337Y526602D01*
X531280Y526499D01*
X531219Y526398D01*
X531155Y526298D01*
X531087Y526201D01*
X531017Y526107D01*
X530943Y526014D01*
X530866Y525925D01*
X530786Y525838D01*
X530703Y525753D01*
X530617Y525672D01*
X530529Y525593D01*
X530438Y525518D01*
X530344Y525445D01*
X530248Y525376D01*
X530150Y525310D01*
X530050Y525248D01*
X529948Y525189D01*
X529843Y525133D01*
X529737Y525081D01*
X529629Y525033D01*
X529520Y524988D01*
X529409Y524947D01*
X529297Y524910D01*
X529183Y524876D01*
X529069Y524846D01*
X528954Y524821D01*
X528837Y524799D01*
X528720Y524781D01*
X528603Y524767D01*
X528485Y524757D01*
X528367Y524751D01*
X528249Y524749D01*
X528249Y524750D02*
X524750Y524750D01*
D11*
X439843Y521123D02*
X439843Y518160D01*
X436880Y519148D02*
X444288Y519148D01*
X444288Y519147D02*
X444363Y519149D01*
X444438Y519155D01*
X444512Y519164D01*
X444586Y519177D01*
X444659Y519194D01*
X444732Y519215D01*
X444803Y519239D01*
X444872Y519267D01*
X444941Y519298D01*
X445007Y519333D01*
X445072Y519371D01*
X445135Y519413D01*
X445195Y519457D01*
X445253Y519505D01*
X445309Y519555D01*
X445362Y519608D01*
X445412Y519664D01*
X445460Y519722D01*
X445504Y519782D01*
X445546Y519845D01*
X445584Y519910D01*
X445619Y519976D01*
X445650Y520045D01*
X445678Y520114D01*
X445702Y520185D01*
X445723Y520258D01*
X445740Y520331D01*
X445753Y520405D01*
X445762Y520479D01*
X445768Y520554D01*
X445770Y520629D01*
X445770Y521123D01*
X445770Y526253D02*
X445770Y528722D01*
X445770Y526253D02*
X445768Y526178D01*
X445762Y526103D01*
X445753Y526029D01*
X445740Y525955D01*
X445723Y525882D01*
X445702Y525809D01*
X445678Y525738D01*
X445650Y525669D01*
X445619Y525600D01*
X445584Y525534D01*
X445546Y525469D01*
X445504Y525406D01*
X445460Y525346D01*
X445412Y525288D01*
X445362Y525232D01*
X445309Y525179D01*
X445253Y525129D01*
X445195Y525081D01*
X445135Y525037D01*
X445072Y524995D01*
X445007Y524957D01*
X444941Y524922D01*
X444872Y524891D01*
X444803Y524863D01*
X444732Y524839D01*
X444659Y524818D01*
X444586Y524801D01*
X444512Y524788D01*
X444438Y524779D01*
X444363Y524773D01*
X444288Y524771D01*
X441819Y524771D01*
X441732Y524773D01*
X441644Y524779D01*
X441557Y524788D01*
X441471Y524802D01*
X441385Y524819D01*
X441301Y524840D01*
X441217Y524865D01*
X441134Y524894D01*
X441053Y524926D01*
X440973Y524961D01*
X440895Y525000D01*
X440818Y525043D01*
X440744Y525089D01*
X440672Y525138D01*
X440602Y525190D01*
X440534Y525246D01*
X440469Y525304D01*
X440406Y525365D01*
X440347Y525429D01*
X440290Y525496D01*
X440236Y525564D01*
X440185Y525636D01*
X440138Y525709D01*
X440093Y525784D01*
X440052Y525862D01*
X440015Y525941D01*
X439981Y526021D01*
X439951Y526103D01*
X439924Y526186D01*
X439901Y526271D01*
X439882Y526356D01*
X439867Y526442D01*
X439855Y526529D01*
X439847Y526616D01*
X439843Y526703D01*
X439843Y526791D01*
X439847Y526878D01*
X439855Y526965D01*
X439867Y527052D01*
X439882Y527138D01*
X439901Y527223D01*
X439924Y527308D01*
X439951Y527391D01*
X439981Y527473D01*
X440015Y527553D01*
X440052Y527632D01*
X440093Y527710D01*
X440138Y527785D01*
X440185Y527858D01*
X440236Y527930D01*
X440290Y527998D01*
X440347Y528065D01*
X440406Y528129D01*
X440469Y528190D01*
X440534Y528248D01*
X440602Y528304D01*
X440672Y528356D01*
X440744Y528405D01*
X440818Y528451D01*
X440895Y528494D01*
X440973Y528533D01*
X441053Y528568D01*
X441134Y528600D01*
X441217Y528629D01*
X441301Y528654D01*
X441385Y528675D01*
X441471Y528692D01*
X441557Y528706D01*
X441644Y528715D01*
X441732Y528721D01*
X441819Y528723D01*
X441819Y528722D02*
X442807Y528722D01*
X442807Y524771D01*
X444288Y533001D02*
X439843Y533001D01*
X444288Y533000D02*
X444363Y533002D01*
X444438Y533008D01*
X444512Y533017D01*
X444586Y533030D01*
X444659Y533047D01*
X444732Y533068D01*
X444803Y533092D01*
X444872Y533120D01*
X444941Y533151D01*
X445007Y533186D01*
X445072Y533224D01*
X445135Y533266D01*
X445195Y533310D01*
X445253Y533358D01*
X445309Y533408D01*
X445362Y533461D01*
X445412Y533517D01*
X445460Y533575D01*
X445504Y533635D01*
X445546Y533698D01*
X445584Y533763D01*
X445619Y533829D01*
X445650Y533898D01*
X445678Y533967D01*
X445702Y534038D01*
X445723Y534111D01*
X445740Y534184D01*
X445753Y534258D01*
X445762Y534332D01*
X445768Y534407D01*
X445770Y534482D01*
X445770Y536952D01*
X439843Y536952D01*
X439843Y540410D02*
X439843Y543374D01*
X436880Y541398D02*
X444288Y541398D01*
X444363Y541400D01*
X444438Y541406D01*
X444512Y541415D01*
X444586Y541428D01*
X444659Y541445D01*
X444732Y541466D01*
X444803Y541490D01*
X444872Y541518D01*
X444941Y541549D01*
X445007Y541584D01*
X445072Y541622D01*
X445135Y541664D01*
X445195Y541708D01*
X445253Y541756D01*
X445309Y541806D01*
X445362Y541859D01*
X445412Y541915D01*
X445460Y541973D01*
X445504Y542033D01*
X445546Y542096D01*
X445584Y542161D01*
X445619Y542227D01*
X445650Y542296D01*
X445678Y542365D01*
X445702Y542436D01*
X445723Y542509D01*
X445740Y542582D01*
X445753Y542656D01*
X445762Y542730D01*
X445768Y542805D01*
X445770Y542880D01*
X445770Y543374D01*
X445770Y547394D02*
X439843Y547394D01*
X439843Y550358D01*
X440831Y550358D01*
X441819Y553422D02*
X443794Y553422D01*
X441819Y553422D02*
X441732Y553424D01*
X441644Y553430D01*
X441557Y553439D01*
X441471Y553453D01*
X441385Y553470D01*
X441301Y553491D01*
X441217Y553516D01*
X441134Y553545D01*
X441053Y553577D01*
X440973Y553612D01*
X440895Y553651D01*
X440818Y553694D01*
X440744Y553740D01*
X440672Y553789D01*
X440602Y553841D01*
X440534Y553897D01*
X440469Y553955D01*
X440406Y554016D01*
X440347Y554080D01*
X440290Y554147D01*
X440236Y554215D01*
X440185Y554287D01*
X440138Y554360D01*
X440093Y554435D01*
X440052Y554513D01*
X440015Y554592D01*
X439981Y554672D01*
X439951Y554754D01*
X439924Y554837D01*
X439901Y554922D01*
X439882Y555007D01*
X439867Y555093D01*
X439855Y555180D01*
X439847Y555267D01*
X439843Y555354D01*
X439843Y555442D01*
X439847Y555529D01*
X439855Y555616D01*
X439867Y555703D01*
X439882Y555789D01*
X439901Y555874D01*
X439924Y555959D01*
X439951Y556042D01*
X439981Y556124D01*
X440015Y556204D01*
X440052Y556283D01*
X440093Y556361D01*
X440138Y556436D01*
X440185Y556509D01*
X440236Y556581D01*
X440290Y556649D01*
X440347Y556716D01*
X440406Y556780D01*
X440469Y556841D01*
X440534Y556899D01*
X440602Y556955D01*
X440672Y557007D01*
X440744Y557056D01*
X440818Y557102D01*
X440895Y557145D01*
X440973Y557184D01*
X441053Y557219D01*
X441134Y557251D01*
X441217Y557280D01*
X441301Y557305D01*
X441385Y557326D01*
X441471Y557343D01*
X441557Y557357D01*
X441644Y557366D01*
X441732Y557372D01*
X441819Y557374D01*
X441819Y557373D02*
X443794Y557373D01*
X443794Y557374D02*
X443881Y557372D01*
X443969Y557366D01*
X444056Y557357D01*
X444142Y557343D01*
X444228Y557326D01*
X444312Y557305D01*
X444396Y557280D01*
X444479Y557251D01*
X444560Y557219D01*
X444640Y557184D01*
X444718Y557145D01*
X444795Y557102D01*
X444869Y557056D01*
X444941Y557007D01*
X445011Y556955D01*
X445079Y556899D01*
X445144Y556841D01*
X445207Y556780D01*
X445266Y556716D01*
X445323Y556649D01*
X445377Y556581D01*
X445428Y556509D01*
X445475Y556436D01*
X445520Y556361D01*
X445561Y556283D01*
X445598Y556204D01*
X445632Y556124D01*
X445662Y556042D01*
X445689Y555959D01*
X445712Y555874D01*
X445731Y555789D01*
X445746Y555703D01*
X445758Y555616D01*
X445766Y555529D01*
X445770Y555442D01*
X445770Y555354D01*
X445766Y555267D01*
X445758Y555180D01*
X445746Y555093D01*
X445731Y555007D01*
X445712Y554922D01*
X445689Y554837D01*
X445662Y554754D01*
X445632Y554672D01*
X445598Y554592D01*
X445561Y554513D01*
X445520Y554435D01*
X445475Y554360D01*
X445428Y554287D01*
X445377Y554215D01*
X445323Y554147D01*
X445266Y554080D01*
X445207Y554016D01*
X445144Y553955D01*
X445079Y553897D01*
X445011Y553841D01*
X444941Y553789D01*
X444869Y553740D01*
X444795Y553694D01*
X444718Y553651D01*
X444640Y553612D01*
X444560Y553577D01*
X444479Y553545D01*
X444396Y553516D01*
X444312Y553491D01*
X444228Y553470D01*
X444142Y553453D01*
X444056Y553439D01*
X443969Y553430D01*
X443881Y553424D01*
X443794Y553422D01*
X445770Y561652D02*
X439843Y561652D01*
X439843Y564121D01*
X439845Y564196D01*
X439851Y564271D01*
X439860Y564345D01*
X439873Y564419D01*
X439890Y564492D01*
X439911Y564565D01*
X439935Y564636D01*
X439963Y564705D01*
X439994Y564774D01*
X440029Y564840D01*
X440067Y564905D01*
X440109Y564968D01*
X440153Y565028D01*
X440201Y565086D01*
X440251Y565142D01*
X440304Y565195D01*
X440360Y565245D01*
X440418Y565293D01*
X440478Y565337D01*
X440541Y565379D01*
X440606Y565417D01*
X440672Y565452D01*
X440741Y565483D01*
X440810Y565511D01*
X440881Y565535D01*
X440954Y565556D01*
X441027Y565573D01*
X441101Y565586D01*
X441175Y565595D01*
X441250Y565601D01*
X441325Y565603D01*
X445770Y565603D01*
X445770Y569723D02*
X439843Y569723D01*
X437374Y569476D02*
X436880Y569476D01*
X436880Y569970D01*
X437374Y569970D01*
X437374Y569476D01*
X445770Y575034D02*
X445770Y577010D01*
X445770Y575034D02*
X445768Y574959D01*
X445762Y574884D01*
X445753Y574810D01*
X445740Y574736D01*
X445723Y574663D01*
X445702Y574590D01*
X445678Y574519D01*
X445650Y574450D01*
X445619Y574381D01*
X445584Y574315D01*
X445546Y574250D01*
X445504Y574187D01*
X445460Y574127D01*
X445412Y574069D01*
X445362Y574013D01*
X445309Y573960D01*
X445253Y573910D01*
X445195Y573862D01*
X445135Y573818D01*
X445072Y573776D01*
X445007Y573738D01*
X444941Y573703D01*
X444872Y573672D01*
X444803Y573644D01*
X444732Y573620D01*
X444659Y573599D01*
X444586Y573582D01*
X444512Y573569D01*
X444438Y573560D01*
X444363Y573554D01*
X444288Y573552D01*
X444288Y573553D02*
X441325Y573553D01*
X441325Y573552D02*
X441250Y573554D01*
X441175Y573560D01*
X441101Y573569D01*
X441027Y573582D01*
X440954Y573599D01*
X440881Y573620D01*
X440810Y573644D01*
X440741Y573672D01*
X440672Y573703D01*
X440606Y573738D01*
X440541Y573776D01*
X440478Y573818D01*
X440418Y573862D01*
X440360Y573910D01*
X440304Y573960D01*
X440251Y574013D01*
X440201Y574069D01*
X440153Y574127D01*
X440109Y574187D01*
X440067Y574250D01*
X440029Y574315D01*
X439994Y574381D01*
X439963Y574450D01*
X439935Y574519D01*
X439911Y574590D01*
X439890Y574663D01*
X439873Y574736D01*
X439860Y574810D01*
X439851Y574884D01*
X439845Y574959D01*
X439843Y575034D01*
X439843Y577010D01*
D12*
X381000Y548640D02*
X381000Y535940D01*
X381000Y548640D02*
X381000Y561340D01*
X372110Y548640D02*
X372110Y535940D01*
X372110Y548640D02*
X372110Y561340D01*
D13*
X372110Y548640D02*
X269240Y548640D01*
X381000Y548640D02*
X391160Y548640D01*
X240030Y528320D02*
X240030Y568960D01*
X245110Y574040D02*
X415290Y574040D01*
X420370Y568960D02*
X420370Y528320D01*
X415290Y523240D02*
X245110Y523240D01*
X244970Y523242D01*
X244830Y523248D01*
X244690Y523257D01*
X244551Y523271D01*
X244412Y523288D01*
X244274Y523309D01*
X244136Y523334D01*
X243999Y523363D01*
X243863Y523395D01*
X243728Y523432D01*
X243594Y523472D01*
X243461Y523515D01*
X243329Y523563D01*
X243198Y523613D01*
X243069Y523668D01*
X242942Y523726D01*
X242816Y523787D01*
X242692Y523852D01*
X242570Y523921D01*
X242450Y523992D01*
X242332Y524067D01*
X242215Y524145D01*
X242101Y524227D01*
X241990Y524311D01*
X241881Y524399D01*
X241774Y524489D01*
X241669Y524583D01*
X241568Y524679D01*
X241469Y524778D01*
X241373Y524879D01*
X241279Y524984D01*
X241189Y525091D01*
X241101Y525200D01*
X241017Y525311D01*
X240935Y525425D01*
X240857Y525542D01*
X240782Y525660D01*
X240711Y525780D01*
X240642Y525902D01*
X240577Y526026D01*
X240516Y526152D01*
X240458Y526279D01*
X240403Y526408D01*
X240353Y526539D01*
X240305Y526671D01*
X240262Y526804D01*
X240222Y526938D01*
X240185Y527073D01*
X240153Y527209D01*
X240124Y527346D01*
X240099Y527484D01*
X240078Y527622D01*
X240061Y527761D01*
X240047Y527900D01*
X240038Y528040D01*
X240032Y528180D01*
X240030Y528320D01*
X240030Y568960D02*
X240032Y569100D01*
X240038Y569240D01*
X240047Y569380D01*
X240061Y569519D01*
X240078Y569658D01*
X240099Y569796D01*
X240124Y569934D01*
X240153Y570071D01*
X240185Y570207D01*
X240222Y570342D01*
X240262Y570476D01*
X240305Y570609D01*
X240353Y570741D01*
X240403Y570872D01*
X240458Y571001D01*
X240516Y571128D01*
X240577Y571254D01*
X240642Y571378D01*
X240711Y571500D01*
X240782Y571620D01*
X240857Y571738D01*
X240935Y571855D01*
X241017Y571969D01*
X241101Y572080D01*
X241189Y572189D01*
X241279Y572296D01*
X241373Y572401D01*
X241469Y572502D01*
X241568Y572601D01*
X241669Y572697D01*
X241774Y572791D01*
X241881Y572881D01*
X241990Y572969D01*
X242101Y573053D01*
X242215Y573135D01*
X242332Y573213D01*
X242450Y573288D01*
X242570Y573359D01*
X242692Y573428D01*
X242816Y573493D01*
X242942Y573554D01*
X243069Y573612D01*
X243198Y573667D01*
X243329Y573717D01*
X243461Y573765D01*
X243594Y573808D01*
X243728Y573848D01*
X243863Y573885D01*
X243999Y573917D01*
X244136Y573946D01*
X244274Y573971D01*
X244412Y573992D01*
X244551Y574009D01*
X244690Y574023D01*
X244830Y574032D01*
X244970Y574038D01*
X245110Y574040D01*
X415290Y574040D02*
X415430Y574038D01*
X415570Y574032D01*
X415710Y574023D01*
X415849Y574009D01*
X415988Y573992D01*
X416126Y573971D01*
X416264Y573946D01*
X416401Y573917D01*
X416537Y573885D01*
X416672Y573848D01*
X416806Y573808D01*
X416939Y573765D01*
X417071Y573717D01*
X417202Y573667D01*
X417331Y573612D01*
X417458Y573554D01*
X417584Y573493D01*
X417708Y573428D01*
X417830Y573359D01*
X417950Y573288D01*
X418068Y573213D01*
X418185Y573135D01*
X418299Y573053D01*
X418410Y572969D01*
X418519Y572881D01*
X418626Y572791D01*
X418731Y572697D01*
X418832Y572601D01*
X418931Y572502D01*
X419027Y572401D01*
X419121Y572296D01*
X419211Y572189D01*
X419299Y572080D01*
X419383Y571969D01*
X419465Y571855D01*
X419543Y571738D01*
X419618Y571620D01*
X419689Y571500D01*
X419758Y571378D01*
X419823Y571254D01*
X419884Y571128D01*
X419942Y571001D01*
X419997Y570872D01*
X420047Y570741D01*
X420095Y570609D01*
X420138Y570476D01*
X420178Y570342D01*
X420215Y570207D01*
X420247Y570071D01*
X420276Y569934D01*
X420301Y569796D01*
X420322Y569658D01*
X420339Y569519D01*
X420353Y569380D01*
X420362Y569240D01*
X420368Y569100D01*
X420370Y568960D01*
X420370Y528320D02*
X420368Y528180D01*
X420362Y528040D01*
X420353Y527900D01*
X420339Y527761D01*
X420322Y527622D01*
X420301Y527484D01*
X420276Y527346D01*
X420247Y527209D01*
X420215Y527073D01*
X420178Y526938D01*
X420138Y526804D01*
X420095Y526671D01*
X420047Y526539D01*
X419997Y526408D01*
X419942Y526279D01*
X419884Y526152D01*
X419823Y526026D01*
X419758Y525902D01*
X419689Y525780D01*
X419618Y525660D01*
X419543Y525542D01*
X419465Y525425D01*
X419383Y525311D01*
X419299Y525200D01*
X419211Y525091D01*
X419121Y524984D01*
X419027Y524879D01*
X418931Y524778D01*
X418832Y524679D01*
X418731Y524583D01*
X418626Y524489D01*
X418519Y524399D01*
X418410Y524311D01*
X418299Y524227D01*
X418185Y524145D01*
X418068Y524067D01*
X417950Y523992D01*
X417830Y523921D01*
X417708Y523852D01*
X417584Y523787D01*
X417458Y523726D01*
X417331Y523668D01*
X417202Y523613D01*
X417071Y523563D01*
X416939Y523515D01*
X416806Y523472D01*
X416672Y523432D01*
X416537Y523395D01*
X416401Y523363D01*
X416264Y523334D01*
X416126Y523309D01*
X415988Y523288D01*
X415849Y523271D01*
X415710Y523257D01*
X415570Y523248D01*
X415430Y523242D01*
X415290Y523240D01*
X216395Y566547D02*
X213911Y566547D01*
X213813Y566549D01*
X213716Y566555D01*
X213619Y566564D01*
X213522Y566578D01*
X213426Y566595D01*
X213331Y566616D01*
X213237Y566640D01*
X213143Y566669D01*
X213051Y566701D01*
X212960Y566736D01*
X212871Y566775D01*
X212783Y566818D01*
X212697Y566864D01*
X212613Y566913D01*
X212531Y566966D01*
X212451Y567021D01*
X212373Y567080D01*
X212298Y567142D01*
X212225Y567207D01*
X212155Y567275D01*
X212087Y567345D01*
X212022Y567418D01*
X211960Y567493D01*
X211901Y567571D01*
X211846Y567651D01*
X211793Y567733D01*
X211744Y567817D01*
X211698Y567903D01*
X211655Y567991D01*
X211616Y568080D01*
X211581Y568171D01*
X211549Y568263D01*
X211520Y568357D01*
X211496Y568451D01*
X211475Y568546D01*
X211458Y568642D01*
X211444Y568739D01*
X211435Y568836D01*
X211429Y568933D01*
X211427Y569031D01*
X211428Y569031D02*
X211428Y575239D01*
X211427Y575239D02*
X211429Y575337D01*
X211435Y575434D01*
X211444Y575531D01*
X211458Y575628D01*
X211475Y575724D01*
X211496Y575819D01*
X211520Y575913D01*
X211549Y576007D01*
X211581Y576099D01*
X211616Y576190D01*
X211655Y576279D01*
X211698Y576367D01*
X211744Y576453D01*
X211793Y576537D01*
X211846Y576619D01*
X211901Y576699D01*
X211960Y576777D01*
X212022Y576852D01*
X212087Y576925D01*
X212155Y576995D01*
X212225Y577063D01*
X212298Y577128D01*
X212373Y577190D01*
X212451Y577249D01*
X212531Y577304D01*
X212613Y577357D01*
X212697Y577406D01*
X212783Y577452D01*
X212871Y577495D01*
X212960Y577534D01*
X213051Y577569D01*
X213143Y577601D01*
X213237Y577630D01*
X213331Y577654D01*
X213426Y577675D01*
X213522Y577692D01*
X213619Y577706D01*
X213716Y577715D01*
X213813Y577721D01*
X213911Y577723D01*
X216395Y577723D01*
X220994Y575239D02*
X224099Y577723D01*
X224099Y566547D01*
X227203Y566547D02*
X220994Y566547D01*
D10*
X83680Y515409D02*
X83680Y363009D01*
X17937Y363009D02*
X17937Y515409D01*
X62735Y363009D02*
X67659Y363009D01*
X76450Y363009D02*
X76450Y361722D01*
X72310Y361722D02*
X72310Y363009D01*
X74459Y363009D01*
X76450Y363009D01*
X70810Y359939D02*
X70810Y357309D01*
X77950Y357309D02*
X77950Y359939D01*
X72310Y363009D02*
X67659Y363009D01*
X76450Y361722D02*
X77950Y359939D01*
X77950Y357309D02*
X70810Y357309D01*
X22767Y363009D02*
X17937Y363009D01*
X22767Y363009D02*
X62735Y363009D01*
X70810Y359939D02*
X72310Y361722D01*
X67659Y363009D02*
X67659Y515409D01*
X62735Y515409D01*
X74459Y515409D02*
X74459Y363009D01*
X74459Y515409D02*
X67659Y515409D01*
X62735Y515409D02*
X22767Y515409D01*
X17937Y515409D01*
X2680Y515409D01*
X76450Y363009D02*
X80680Y363009D01*
X80680Y515409D02*
X74459Y515409D01*
X2680Y515409D02*
X2680Y363009D01*
X17937Y363009D01*
X80680Y363009D02*
X80680Y515409D01*
X80680Y363009D02*
X83680Y363009D01*
X83680Y515409D02*
X80680Y515409D01*
X23780Y388409D02*
X23786Y388879D01*
X23803Y389349D01*
X23832Y389818D01*
X23872Y390286D01*
X23924Y390753D01*
X23987Y391219D01*
X24062Y391683D01*
X24148Y392145D01*
X24245Y392605D01*
X24354Y393062D01*
X24474Y393517D01*
X24605Y393968D01*
X24747Y394416D01*
X24899Y394860D01*
X25063Y395301D01*
X25238Y395737D01*
X25423Y396169D01*
X25619Y396597D01*
X25825Y397019D01*
X26041Y397436D01*
X26268Y397848D01*
X26504Y398254D01*
X26751Y398654D01*
X27007Y399048D01*
X27273Y399436D01*
X27549Y399817D01*
X27833Y400191D01*
X28127Y400558D01*
X28429Y400917D01*
X28741Y401269D01*
X29061Y401614D01*
X29389Y401950D01*
X29725Y402278D01*
X30070Y402598D01*
X30422Y402910D01*
X30781Y403212D01*
X31148Y403506D01*
X31522Y403790D01*
X31903Y404066D01*
X32291Y404332D01*
X32685Y404588D01*
X33085Y404835D01*
X33491Y405071D01*
X33903Y405298D01*
X34320Y405514D01*
X34742Y405720D01*
X35170Y405916D01*
X35602Y406101D01*
X36038Y406276D01*
X36479Y406440D01*
X36923Y406592D01*
X37371Y406734D01*
X37822Y406865D01*
X38277Y406985D01*
X38734Y407094D01*
X39194Y407191D01*
X39656Y407277D01*
X40120Y407352D01*
X40586Y407415D01*
X41053Y407467D01*
X41521Y407507D01*
X41990Y407536D01*
X42460Y407553D01*
X42930Y407559D01*
X43400Y407553D01*
X43870Y407536D01*
X44339Y407507D01*
X44807Y407467D01*
X45274Y407415D01*
X45740Y407352D01*
X46204Y407277D01*
X46666Y407191D01*
X47126Y407094D01*
X47583Y406985D01*
X48038Y406865D01*
X48489Y406734D01*
X48937Y406592D01*
X49381Y406440D01*
X49822Y406276D01*
X50258Y406101D01*
X50690Y405916D01*
X51118Y405720D01*
X51540Y405514D01*
X51957Y405298D01*
X52369Y405071D01*
X52775Y404835D01*
X53175Y404588D01*
X53569Y404332D01*
X53957Y404066D01*
X54338Y403790D01*
X54712Y403506D01*
X55079Y403212D01*
X55438Y402910D01*
X55790Y402598D01*
X56135Y402278D01*
X56471Y401950D01*
X56799Y401614D01*
X57119Y401269D01*
X57431Y400917D01*
X57733Y400558D01*
X58027Y400191D01*
X58311Y399817D01*
X58587Y399436D01*
X58853Y399048D01*
X59109Y398654D01*
X59356Y398254D01*
X59592Y397848D01*
X59819Y397436D01*
X60035Y397019D01*
X60241Y396597D01*
X60437Y396169D01*
X60622Y395737D01*
X60797Y395301D01*
X60961Y394860D01*
X61113Y394416D01*
X61255Y393968D01*
X61386Y393517D01*
X61506Y393062D01*
X61615Y392605D01*
X61712Y392145D01*
X61798Y391683D01*
X61873Y391219D01*
X61936Y390753D01*
X61988Y390286D01*
X62028Y389818D01*
X62057Y389349D01*
X62074Y388879D01*
X62080Y388409D01*
X62074Y387939D01*
X62057Y387469D01*
X62028Y387000D01*
X61988Y386532D01*
X61936Y386065D01*
X61873Y385599D01*
X61798Y385135D01*
X61712Y384673D01*
X61615Y384213D01*
X61506Y383756D01*
X61386Y383301D01*
X61255Y382850D01*
X61113Y382402D01*
X60961Y381958D01*
X60797Y381517D01*
X60622Y381081D01*
X60437Y380649D01*
X60241Y380221D01*
X60035Y379799D01*
X59819Y379382D01*
X59592Y378970D01*
X59356Y378564D01*
X59109Y378164D01*
X58853Y377770D01*
X58587Y377382D01*
X58311Y377001D01*
X58027Y376627D01*
X57733Y376260D01*
X57431Y375901D01*
X57119Y375549D01*
X56799Y375204D01*
X56471Y374868D01*
X56135Y374540D01*
X55790Y374220D01*
X55438Y373908D01*
X55079Y373606D01*
X54712Y373312D01*
X54338Y373028D01*
X53957Y372752D01*
X53569Y372486D01*
X53175Y372230D01*
X52775Y371983D01*
X52369Y371747D01*
X51957Y371520D01*
X51540Y371304D01*
X51118Y371098D01*
X50690Y370902D01*
X50258Y370717D01*
X49822Y370542D01*
X49381Y370378D01*
X48937Y370226D01*
X48489Y370084D01*
X48038Y369953D01*
X47583Y369833D01*
X47126Y369724D01*
X46666Y369627D01*
X46204Y369541D01*
X45740Y369466D01*
X45274Y369403D01*
X44807Y369351D01*
X44339Y369311D01*
X43870Y369282D01*
X43400Y369265D01*
X42930Y369259D01*
X42460Y369265D01*
X41990Y369282D01*
X41521Y369311D01*
X41053Y369351D01*
X40586Y369403D01*
X40120Y369466D01*
X39656Y369541D01*
X39194Y369627D01*
X38734Y369724D01*
X38277Y369833D01*
X37822Y369953D01*
X37371Y370084D01*
X36923Y370226D01*
X36479Y370378D01*
X36038Y370542D01*
X35602Y370717D01*
X35170Y370902D01*
X34742Y371098D01*
X34320Y371304D01*
X33903Y371520D01*
X33491Y371747D01*
X33085Y371983D01*
X32685Y372230D01*
X32291Y372486D01*
X31903Y372752D01*
X31522Y373028D01*
X31148Y373312D01*
X30781Y373606D01*
X30422Y373908D01*
X30070Y374220D01*
X29725Y374540D01*
X29389Y374868D01*
X29061Y375204D01*
X28741Y375549D01*
X28429Y375901D01*
X28127Y376260D01*
X27833Y376627D01*
X27549Y377001D01*
X27273Y377382D01*
X27007Y377770D01*
X26751Y378164D01*
X26504Y378564D01*
X26268Y378970D01*
X26041Y379382D01*
X25825Y379799D01*
X25619Y380221D01*
X25423Y380649D01*
X25238Y381081D01*
X25063Y381517D01*
X24899Y381958D01*
X24747Y382402D01*
X24605Y382850D01*
X24474Y383301D01*
X24354Y383756D01*
X24245Y384213D01*
X24148Y384673D01*
X24062Y385135D01*
X23987Y385599D01*
X23924Y386065D01*
X23872Y386532D01*
X23832Y387000D01*
X23803Y387469D01*
X23786Y387939D01*
X23780Y388409D01*
X23780Y439209D02*
X23786Y439679D01*
X23803Y440149D01*
X23832Y440618D01*
X23872Y441086D01*
X23924Y441553D01*
X23987Y442019D01*
X24062Y442483D01*
X24148Y442945D01*
X24245Y443405D01*
X24354Y443862D01*
X24474Y444317D01*
X24605Y444768D01*
X24747Y445216D01*
X24899Y445660D01*
X25063Y446101D01*
X25238Y446537D01*
X25423Y446969D01*
X25619Y447397D01*
X25825Y447819D01*
X26041Y448236D01*
X26268Y448648D01*
X26504Y449054D01*
X26751Y449454D01*
X27007Y449848D01*
X27273Y450236D01*
X27549Y450617D01*
X27833Y450991D01*
X28127Y451358D01*
X28429Y451717D01*
X28741Y452069D01*
X29061Y452414D01*
X29389Y452750D01*
X29725Y453078D01*
X30070Y453398D01*
X30422Y453710D01*
X30781Y454012D01*
X31148Y454306D01*
X31522Y454590D01*
X31903Y454866D01*
X32291Y455132D01*
X32685Y455388D01*
X33085Y455635D01*
X33491Y455871D01*
X33903Y456098D01*
X34320Y456314D01*
X34742Y456520D01*
X35170Y456716D01*
X35602Y456901D01*
X36038Y457076D01*
X36479Y457240D01*
X36923Y457392D01*
X37371Y457534D01*
X37822Y457665D01*
X38277Y457785D01*
X38734Y457894D01*
X39194Y457991D01*
X39656Y458077D01*
X40120Y458152D01*
X40586Y458215D01*
X41053Y458267D01*
X41521Y458307D01*
X41990Y458336D01*
X42460Y458353D01*
X42930Y458359D01*
X43400Y458353D01*
X43870Y458336D01*
X44339Y458307D01*
X44807Y458267D01*
X45274Y458215D01*
X45740Y458152D01*
X46204Y458077D01*
X46666Y457991D01*
X47126Y457894D01*
X47583Y457785D01*
X48038Y457665D01*
X48489Y457534D01*
X48937Y457392D01*
X49381Y457240D01*
X49822Y457076D01*
X50258Y456901D01*
X50690Y456716D01*
X51118Y456520D01*
X51540Y456314D01*
X51957Y456098D01*
X52369Y455871D01*
X52775Y455635D01*
X53175Y455388D01*
X53569Y455132D01*
X53957Y454866D01*
X54338Y454590D01*
X54712Y454306D01*
X55079Y454012D01*
X55438Y453710D01*
X55790Y453398D01*
X56135Y453078D01*
X56471Y452750D01*
X56799Y452414D01*
X57119Y452069D01*
X57431Y451717D01*
X57733Y451358D01*
X58027Y450991D01*
X58311Y450617D01*
X58587Y450236D01*
X58853Y449848D01*
X59109Y449454D01*
X59356Y449054D01*
X59592Y448648D01*
X59819Y448236D01*
X60035Y447819D01*
X60241Y447397D01*
X60437Y446969D01*
X60622Y446537D01*
X60797Y446101D01*
X60961Y445660D01*
X61113Y445216D01*
X61255Y444768D01*
X61386Y444317D01*
X61506Y443862D01*
X61615Y443405D01*
X61712Y442945D01*
X61798Y442483D01*
X61873Y442019D01*
X61936Y441553D01*
X61988Y441086D01*
X62028Y440618D01*
X62057Y440149D01*
X62074Y439679D01*
X62080Y439209D01*
X62074Y438739D01*
X62057Y438269D01*
X62028Y437800D01*
X61988Y437332D01*
X61936Y436865D01*
X61873Y436399D01*
X61798Y435935D01*
X61712Y435473D01*
X61615Y435013D01*
X61506Y434556D01*
X61386Y434101D01*
X61255Y433650D01*
X61113Y433202D01*
X60961Y432758D01*
X60797Y432317D01*
X60622Y431881D01*
X60437Y431449D01*
X60241Y431021D01*
X60035Y430599D01*
X59819Y430182D01*
X59592Y429770D01*
X59356Y429364D01*
X59109Y428964D01*
X58853Y428570D01*
X58587Y428182D01*
X58311Y427801D01*
X58027Y427427D01*
X57733Y427060D01*
X57431Y426701D01*
X57119Y426349D01*
X56799Y426004D01*
X56471Y425668D01*
X56135Y425340D01*
X55790Y425020D01*
X55438Y424708D01*
X55079Y424406D01*
X54712Y424112D01*
X54338Y423828D01*
X53957Y423552D01*
X53569Y423286D01*
X53175Y423030D01*
X52775Y422783D01*
X52369Y422547D01*
X51957Y422320D01*
X51540Y422104D01*
X51118Y421898D01*
X50690Y421702D01*
X50258Y421517D01*
X49822Y421342D01*
X49381Y421178D01*
X48937Y421026D01*
X48489Y420884D01*
X48038Y420753D01*
X47583Y420633D01*
X47126Y420524D01*
X46666Y420427D01*
X46204Y420341D01*
X45740Y420266D01*
X45274Y420203D01*
X44807Y420151D01*
X44339Y420111D01*
X43870Y420082D01*
X43400Y420065D01*
X42930Y420059D01*
X42460Y420065D01*
X41990Y420082D01*
X41521Y420111D01*
X41053Y420151D01*
X40586Y420203D01*
X40120Y420266D01*
X39656Y420341D01*
X39194Y420427D01*
X38734Y420524D01*
X38277Y420633D01*
X37822Y420753D01*
X37371Y420884D01*
X36923Y421026D01*
X36479Y421178D01*
X36038Y421342D01*
X35602Y421517D01*
X35170Y421702D01*
X34742Y421898D01*
X34320Y422104D01*
X33903Y422320D01*
X33491Y422547D01*
X33085Y422783D01*
X32685Y423030D01*
X32291Y423286D01*
X31903Y423552D01*
X31522Y423828D01*
X31148Y424112D01*
X30781Y424406D01*
X30422Y424708D01*
X30070Y425020D01*
X29725Y425340D01*
X29389Y425668D01*
X29061Y426004D01*
X28741Y426349D01*
X28429Y426701D01*
X28127Y427060D01*
X27833Y427427D01*
X27549Y427801D01*
X27273Y428182D01*
X27007Y428570D01*
X26751Y428964D01*
X26504Y429364D01*
X26268Y429770D01*
X26041Y430182D01*
X25825Y430599D01*
X25619Y431021D01*
X25423Y431449D01*
X25238Y431881D01*
X25063Y432317D01*
X24899Y432758D01*
X24747Y433202D01*
X24605Y433650D01*
X24474Y434101D01*
X24354Y434556D01*
X24245Y435013D01*
X24148Y435473D01*
X24062Y435935D01*
X23987Y436399D01*
X23924Y436865D01*
X23872Y437332D01*
X23832Y437800D01*
X23803Y438269D01*
X23786Y438739D01*
X23780Y439209D01*
X23780Y490009D02*
X23786Y490479D01*
X23803Y490949D01*
X23832Y491418D01*
X23872Y491886D01*
X23924Y492353D01*
X23987Y492819D01*
X24062Y493283D01*
X24148Y493745D01*
X24245Y494205D01*
X24354Y494662D01*
X24474Y495117D01*
X24605Y495568D01*
X24747Y496016D01*
X24899Y496460D01*
X25063Y496901D01*
X25238Y497337D01*
X25423Y497769D01*
X25619Y498197D01*
X25825Y498619D01*
X26041Y499036D01*
X26268Y499448D01*
X26504Y499854D01*
X26751Y500254D01*
X27007Y500648D01*
X27273Y501036D01*
X27549Y501417D01*
X27833Y501791D01*
X28127Y502158D01*
X28429Y502517D01*
X28741Y502869D01*
X29061Y503214D01*
X29389Y503550D01*
X29725Y503878D01*
X30070Y504198D01*
X30422Y504510D01*
X30781Y504812D01*
X31148Y505106D01*
X31522Y505390D01*
X31903Y505666D01*
X32291Y505932D01*
X32685Y506188D01*
X33085Y506435D01*
X33491Y506671D01*
X33903Y506898D01*
X34320Y507114D01*
X34742Y507320D01*
X35170Y507516D01*
X35602Y507701D01*
X36038Y507876D01*
X36479Y508040D01*
X36923Y508192D01*
X37371Y508334D01*
X37822Y508465D01*
X38277Y508585D01*
X38734Y508694D01*
X39194Y508791D01*
X39656Y508877D01*
X40120Y508952D01*
X40586Y509015D01*
X41053Y509067D01*
X41521Y509107D01*
X41990Y509136D01*
X42460Y509153D01*
X42930Y509159D01*
X43400Y509153D01*
X43870Y509136D01*
X44339Y509107D01*
X44807Y509067D01*
X45274Y509015D01*
X45740Y508952D01*
X46204Y508877D01*
X46666Y508791D01*
X47126Y508694D01*
X47583Y508585D01*
X48038Y508465D01*
X48489Y508334D01*
X48937Y508192D01*
X49381Y508040D01*
X49822Y507876D01*
X50258Y507701D01*
X50690Y507516D01*
X51118Y507320D01*
X51540Y507114D01*
X51957Y506898D01*
X52369Y506671D01*
X52775Y506435D01*
X53175Y506188D01*
X53569Y505932D01*
X53957Y505666D01*
X54338Y505390D01*
X54712Y505106D01*
X55079Y504812D01*
X55438Y504510D01*
X55790Y504198D01*
X56135Y503878D01*
X56471Y503550D01*
X56799Y503214D01*
X57119Y502869D01*
X57431Y502517D01*
X57733Y502158D01*
X58027Y501791D01*
X58311Y501417D01*
X58587Y501036D01*
X58853Y500648D01*
X59109Y500254D01*
X59356Y499854D01*
X59592Y499448D01*
X59819Y499036D01*
X60035Y498619D01*
X60241Y498197D01*
X60437Y497769D01*
X60622Y497337D01*
X60797Y496901D01*
X60961Y496460D01*
X61113Y496016D01*
X61255Y495568D01*
X61386Y495117D01*
X61506Y494662D01*
X61615Y494205D01*
X61712Y493745D01*
X61798Y493283D01*
X61873Y492819D01*
X61936Y492353D01*
X61988Y491886D01*
X62028Y491418D01*
X62057Y490949D01*
X62074Y490479D01*
X62080Y490009D01*
X62074Y489539D01*
X62057Y489069D01*
X62028Y488600D01*
X61988Y488132D01*
X61936Y487665D01*
X61873Y487199D01*
X61798Y486735D01*
X61712Y486273D01*
X61615Y485813D01*
X61506Y485356D01*
X61386Y484901D01*
X61255Y484450D01*
X61113Y484002D01*
X60961Y483558D01*
X60797Y483117D01*
X60622Y482681D01*
X60437Y482249D01*
X60241Y481821D01*
X60035Y481399D01*
X59819Y480982D01*
X59592Y480570D01*
X59356Y480164D01*
X59109Y479764D01*
X58853Y479370D01*
X58587Y478982D01*
X58311Y478601D01*
X58027Y478227D01*
X57733Y477860D01*
X57431Y477501D01*
X57119Y477149D01*
X56799Y476804D01*
X56471Y476468D01*
X56135Y476140D01*
X55790Y475820D01*
X55438Y475508D01*
X55079Y475206D01*
X54712Y474912D01*
X54338Y474628D01*
X53957Y474352D01*
X53569Y474086D01*
X53175Y473830D01*
X52775Y473583D01*
X52369Y473347D01*
X51957Y473120D01*
X51540Y472904D01*
X51118Y472698D01*
X50690Y472502D01*
X50258Y472317D01*
X49822Y472142D01*
X49381Y471978D01*
X48937Y471826D01*
X48489Y471684D01*
X48038Y471553D01*
X47583Y471433D01*
X47126Y471324D01*
X46666Y471227D01*
X46204Y471141D01*
X45740Y471066D01*
X45274Y471003D01*
X44807Y470951D01*
X44339Y470911D01*
X43870Y470882D01*
X43400Y470865D01*
X42930Y470859D01*
X42460Y470865D01*
X41990Y470882D01*
X41521Y470911D01*
X41053Y470951D01*
X40586Y471003D01*
X40120Y471066D01*
X39656Y471141D01*
X39194Y471227D01*
X38734Y471324D01*
X38277Y471433D01*
X37822Y471553D01*
X37371Y471684D01*
X36923Y471826D01*
X36479Y471978D01*
X36038Y472142D01*
X35602Y472317D01*
X35170Y472502D01*
X34742Y472698D01*
X34320Y472904D01*
X33903Y473120D01*
X33491Y473347D01*
X33085Y473583D01*
X32685Y473830D01*
X32291Y474086D01*
X31903Y474352D01*
X31522Y474628D01*
X31148Y474912D01*
X30781Y475206D01*
X30422Y475508D01*
X30070Y475820D01*
X29725Y476140D01*
X29389Y476468D01*
X29061Y476804D01*
X28741Y477149D01*
X28429Y477501D01*
X28127Y477860D01*
X27833Y478227D01*
X27549Y478601D01*
X27273Y478982D01*
X27007Y479370D01*
X26751Y479764D01*
X26504Y480164D01*
X26268Y480570D01*
X26041Y480982D01*
X25825Y481399D01*
X25619Y481821D01*
X25423Y482249D01*
X25238Y482681D01*
X25063Y483117D01*
X24899Y483558D01*
X24747Y484002D01*
X24605Y484450D01*
X24474Y484901D01*
X24354Y485356D01*
X24245Y485813D01*
X24148Y486273D01*
X24062Y486735D01*
X23987Y487199D01*
X23924Y487665D01*
X23872Y488132D01*
X23832Y488600D01*
X23803Y489069D01*
X23786Y489539D01*
X23780Y490009D01*
D11*
X55908Y521335D02*
X61835Y530225D01*
X55908Y530225D02*
X61835Y521335D01*
X65546Y528249D02*
X68016Y530225D01*
X68016Y521335D01*
X70485Y521335D02*
X65546Y521335D01*
D10*
X83680Y337609D02*
X83680Y185209D01*
X17937Y185209D02*
X17937Y337609D01*
X62735Y185209D02*
X67659Y185209D01*
X76450Y185209D02*
X76450Y183922D01*
X72310Y183922D02*
X72310Y185209D01*
X74459Y185209D01*
X76450Y185209D01*
X70810Y182139D02*
X70810Y179509D01*
X77950Y179509D02*
X77950Y182139D01*
X72310Y185209D02*
X67659Y185209D01*
X76450Y183922D02*
X77950Y182139D01*
X77950Y179509D02*
X70810Y179509D01*
X22767Y185209D02*
X17937Y185209D01*
X22767Y185209D02*
X62735Y185209D01*
X70810Y182139D02*
X72310Y183922D01*
X67659Y185209D02*
X67659Y337609D01*
X62735Y337609D01*
X74459Y337609D02*
X74459Y185209D01*
X74459Y337609D02*
X67659Y337609D01*
X62735Y337609D02*
X22767Y337609D01*
X17937Y337609D01*
X2680Y337609D01*
X76450Y185209D02*
X80680Y185209D01*
X80680Y337609D02*
X74459Y337609D01*
X2680Y337609D02*
X2680Y185209D01*
X17937Y185209D01*
X80680Y185209D02*
X80680Y337609D01*
X80680Y185209D02*
X83680Y185209D01*
X83680Y337609D02*
X80680Y337609D01*
X23780Y210609D02*
X23786Y211079D01*
X23803Y211549D01*
X23832Y212018D01*
X23872Y212486D01*
X23924Y212953D01*
X23987Y213419D01*
X24062Y213883D01*
X24148Y214345D01*
X24245Y214805D01*
X24354Y215262D01*
X24474Y215717D01*
X24605Y216168D01*
X24747Y216616D01*
X24899Y217060D01*
X25063Y217501D01*
X25238Y217937D01*
X25423Y218369D01*
X25619Y218797D01*
X25825Y219219D01*
X26041Y219636D01*
X26268Y220048D01*
X26504Y220454D01*
X26751Y220854D01*
X27007Y221248D01*
X27273Y221636D01*
X27549Y222017D01*
X27833Y222391D01*
X28127Y222758D01*
X28429Y223117D01*
X28741Y223469D01*
X29061Y223814D01*
X29389Y224150D01*
X29725Y224478D01*
X30070Y224798D01*
X30422Y225110D01*
X30781Y225412D01*
X31148Y225706D01*
X31522Y225990D01*
X31903Y226266D01*
X32291Y226532D01*
X32685Y226788D01*
X33085Y227035D01*
X33491Y227271D01*
X33903Y227498D01*
X34320Y227714D01*
X34742Y227920D01*
X35170Y228116D01*
X35602Y228301D01*
X36038Y228476D01*
X36479Y228640D01*
X36923Y228792D01*
X37371Y228934D01*
X37822Y229065D01*
X38277Y229185D01*
X38734Y229294D01*
X39194Y229391D01*
X39656Y229477D01*
X40120Y229552D01*
X40586Y229615D01*
X41053Y229667D01*
X41521Y229707D01*
X41990Y229736D01*
X42460Y229753D01*
X42930Y229759D01*
X43400Y229753D01*
X43870Y229736D01*
X44339Y229707D01*
X44807Y229667D01*
X45274Y229615D01*
X45740Y229552D01*
X46204Y229477D01*
X46666Y229391D01*
X47126Y229294D01*
X47583Y229185D01*
X48038Y229065D01*
X48489Y228934D01*
X48937Y228792D01*
X49381Y228640D01*
X49822Y228476D01*
X50258Y228301D01*
X50690Y228116D01*
X51118Y227920D01*
X51540Y227714D01*
X51957Y227498D01*
X52369Y227271D01*
X52775Y227035D01*
X53175Y226788D01*
X53569Y226532D01*
X53957Y226266D01*
X54338Y225990D01*
X54712Y225706D01*
X55079Y225412D01*
X55438Y225110D01*
X55790Y224798D01*
X56135Y224478D01*
X56471Y224150D01*
X56799Y223814D01*
X57119Y223469D01*
X57431Y223117D01*
X57733Y222758D01*
X58027Y222391D01*
X58311Y222017D01*
X58587Y221636D01*
X58853Y221248D01*
X59109Y220854D01*
X59356Y220454D01*
X59592Y220048D01*
X59819Y219636D01*
X60035Y219219D01*
X60241Y218797D01*
X60437Y218369D01*
X60622Y217937D01*
X60797Y217501D01*
X60961Y217060D01*
X61113Y216616D01*
X61255Y216168D01*
X61386Y215717D01*
X61506Y215262D01*
X61615Y214805D01*
X61712Y214345D01*
X61798Y213883D01*
X61873Y213419D01*
X61936Y212953D01*
X61988Y212486D01*
X62028Y212018D01*
X62057Y211549D01*
X62074Y211079D01*
X62080Y210609D01*
X62074Y210139D01*
X62057Y209669D01*
X62028Y209200D01*
X61988Y208732D01*
X61936Y208265D01*
X61873Y207799D01*
X61798Y207335D01*
X61712Y206873D01*
X61615Y206413D01*
X61506Y205956D01*
X61386Y205501D01*
X61255Y205050D01*
X61113Y204602D01*
X60961Y204158D01*
X60797Y203717D01*
X60622Y203281D01*
X60437Y202849D01*
X60241Y202421D01*
X60035Y201999D01*
X59819Y201582D01*
X59592Y201170D01*
X59356Y200764D01*
X59109Y200364D01*
X58853Y199970D01*
X58587Y199582D01*
X58311Y199201D01*
X58027Y198827D01*
X57733Y198460D01*
X57431Y198101D01*
X57119Y197749D01*
X56799Y197404D01*
X56471Y197068D01*
X56135Y196740D01*
X55790Y196420D01*
X55438Y196108D01*
X55079Y195806D01*
X54712Y195512D01*
X54338Y195228D01*
X53957Y194952D01*
X53569Y194686D01*
X53175Y194430D01*
X52775Y194183D01*
X52369Y193947D01*
X51957Y193720D01*
X51540Y193504D01*
X51118Y193298D01*
X50690Y193102D01*
X50258Y192917D01*
X49822Y192742D01*
X49381Y192578D01*
X48937Y192426D01*
X48489Y192284D01*
X48038Y192153D01*
X47583Y192033D01*
X47126Y191924D01*
X46666Y191827D01*
X46204Y191741D01*
X45740Y191666D01*
X45274Y191603D01*
X44807Y191551D01*
X44339Y191511D01*
X43870Y191482D01*
X43400Y191465D01*
X42930Y191459D01*
X42460Y191465D01*
X41990Y191482D01*
X41521Y191511D01*
X41053Y191551D01*
X40586Y191603D01*
X40120Y191666D01*
X39656Y191741D01*
X39194Y191827D01*
X38734Y191924D01*
X38277Y192033D01*
X37822Y192153D01*
X37371Y192284D01*
X36923Y192426D01*
X36479Y192578D01*
X36038Y192742D01*
X35602Y192917D01*
X35170Y193102D01*
X34742Y193298D01*
X34320Y193504D01*
X33903Y193720D01*
X33491Y193947D01*
X33085Y194183D01*
X32685Y194430D01*
X32291Y194686D01*
X31903Y194952D01*
X31522Y195228D01*
X31148Y195512D01*
X30781Y195806D01*
X30422Y196108D01*
X30070Y196420D01*
X29725Y196740D01*
X29389Y197068D01*
X29061Y197404D01*
X28741Y197749D01*
X28429Y198101D01*
X28127Y198460D01*
X27833Y198827D01*
X27549Y199201D01*
X27273Y199582D01*
X27007Y199970D01*
X26751Y200364D01*
X26504Y200764D01*
X26268Y201170D01*
X26041Y201582D01*
X25825Y201999D01*
X25619Y202421D01*
X25423Y202849D01*
X25238Y203281D01*
X25063Y203717D01*
X24899Y204158D01*
X24747Y204602D01*
X24605Y205050D01*
X24474Y205501D01*
X24354Y205956D01*
X24245Y206413D01*
X24148Y206873D01*
X24062Y207335D01*
X23987Y207799D01*
X23924Y208265D01*
X23872Y208732D01*
X23832Y209200D01*
X23803Y209669D01*
X23786Y210139D01*
X23780Y210609D01*
X23780Y261409D02*
X23786Y261879D01*
X23803Y262349D01*
X23832Y262818D01*
X23872Y263286D01*
X23924Y263753D01*
X23987Y264219D01*
X24062Y264683D01*
X24148Y265145D01*
X24245Y265605D01*
X24354Y266062D01*
X24474Y266517D01*
X24605Y266968D01*
X24747Y267416D01*
X24899Y267860D01*
X25063Y268301D01*
X25238Y268737D01*
X25423Y269169D01*
X25619Y269597D01*
X25825Y270019D01*
X26041Y270436D01*
X26268Y270848D01*
X26504Y271254D01*
X26751Y271654D01*
X27007Y272048D01*
X27273Y272436D01*
X27549Y272817D01*
X27833Y273191D01*
X28127Y273558D01*
X28429Y273917D01*
X28741Y274269D01*
X29061Y274614D01*
X29389Y274950D01*
X29725Y275278D01*
X30070Y275598D01*
X30422Y275910D01*
X30781Y276212D01*
X31148Y276506D01*
X31522Y276790D01*
X31903Y277066D01*
X32291Y277332D01*
X32685Y277588D01*
X33085Y277835D01*
X33491Y278071D01*
X33903Y278298D01*
X34320Y278514D01*
X34742Y278720D01*
X35170Y278916D01*
X35602Y279101D01*
X36038Y279276D01*
X36479Y279440D01*
X36923Y279592D01*
X37371Y279734D01*
X37822Y279865D01*
X38277Y279985D01*
X38734Y280094D01*
X39194Y280191D01*
X39656Y280277D01*
X40120Y280352D01*
X40586Y280415D01*
X41053Y280467D01*
X41521Y280507D01*
X41990Y280536D01*
X42460Y280553D01*
X42930Y280559D01*
X43400Y280553D01*
X43870Y280536D01*
X44339Y280507D01*
X44807Y280467D01*
X45274Y280415D01*
X45740Y280352D01*
X46204Y280277D01*
X46666Y280191D01*
X47126Y280094D01*
X47583Y279985D01*
X48038Y279865D01*
X48489Y279734D01*
X48937Y279592D01*
X49381Y279440D01*
X49822Y279276D01*
X50258Y279101D01*
X50690Y278916D01*
X51118Y278720D01*
X51540Y278514D01*
X51957Y278298D01*
X52369Y278071D01*
X52775Y277835D01*
X53175Y277588D01*
X53569Y277332D01*
X53957Y277066D01*
X54338Y276790D01*
X54712Y276506D01*
X55079Y276212D01*
X55438Y275910D01*
X55790Y275598D01*
X56135Y275278D01*
X56471Y274950D01*
X56799Y274614D01*
X57119Y274269D01*
X57431Y273917D01*
X57733Y273558D01*
X58027Y273191D01*
X58311Y272817D01*
X58587Y272436D01*
X58853Y272048D01*
X59109Y271654D01*
X59356Y271254D01*
X59592Y270848D01*
X59819Y270436D01*
X60035Y270019D01*
X60241Y269597D01*
X60437Y269169D01*
X60622Y268737D01*
X60797Y268301D01*
X60961Y267860D01*
X61113Y267416D01*
X61255Y266968D01*
X61386Y266517D01*
X61506Y266062D01*
X61615Y265605D01*
X61712Y265145D01*
X61798Y264683D01*
X61873Y264219D01*
X61936Y263753D01*
X61988Y263286D01*
X62028Y262818D01*
X62057Y262349D01*
X62074Y261879D01*
X62080Y261409D01*
X62074Y260939D01*
X62057Y260469D01*
X62028Y260000D01*
X61988Y259532D01*
X61936Y259065D01*
X61873Y258599D01*
X61798Y258135D01*
X61712Y257673D01*
X61615Y257213D01*
X61506Y256756D01*
X61386Y256301D01*
X61255Y255850D01*
X61113Y255402D01*
X60961Y254958D01*
X60797Y254517D01*
X60622Y254081D01*
X60437Y253649D01*
X60241Y253221D01*
X60035Y252799D01*
X59819Y252382D01*
X59592Y251970D01*
X59356Y251564D01*
X59109Y251164D01*
X58853Y250770D01*
X58587Y250382D01*
X58311Y250001D01*
X58027Y249627D01*
X57733Y249260D01*
X57431Y248901D01*
X57119Y248549D01*
X56799Y248204D01*
X56471Y247868D01*
X56135Y247540D01*
X55790Y247220D01*
X55438Y246908D01*
X55079Y246606D01*
X54712Y246312D01*
X54338Y246028D01*
X53957Y245752D01*
X53569Y245486D01*
X53175Y245230D01*
X52775Y244983D01*
X52369Y244747D01*
X51957Y244520D01*
X51540Y244304D01*
X51118Y244098D01*
X50690Y243902D01*
X50258Y243717D01*
X49822Y243542D01*
X49381Y243378D01*
X48937Y243226D01*
X48489Y243084D01*
X48038Y242953D01*
X47583Y242833D01*
X47126Y242724D01*
X46666Y242627D01*
X46204Y242541D01*
X45740Y242466D01*
X45274Y242403D01*
X44807Y242351D01*
X44339Y242311D01*
X43870Y242282D01*
X43400Y242265D01*
X42930Y242259D01*
X42460Y242265D01*
X41990Y242282D01*
X41521Y242311D01*
X41053Y242351D01*
X40586Y242403D01*
X40120Y242466D01*
X39656Y242541D01*
X39194Y242627D01*
X38734Y242724D01*
X38277Y242833D01*
X37822Y242953D01*
X37371Y243084D01*
X36923Y243226D01*
X36479Y243378D01*
X36038Y243542D01*
X35602Y243717D01*
X35170Y243902D01*
X34742Y244098D01*
X34320Y244304D01*
X33903Y244520D01*
X33491Y244747D01*
X33085Y244983D01*
X32685Y245230D01*
X32291Y245486D01*
X31903Y245752D01*
X31522Y246028D01*
X31148Y246312D01*
X30781Y246606D01*
X30422Y246908D01*
X30070Y247220D01*
X29725Y247540D01*
X29389Y247868D01*
X29061Y248204D01*
X28741Y248549D01*
X28429Y248901D01*
X28127Y249260D01*
X27833Y249627D01*
X27549Y250001D01*
X27273Y250382D01*
X27007Y250770D01*
X26751Y251164D01*
X26504Y251564D01*
X26268Y251970D01*
X26041Y252382D01*
X25825Y252799D01*
X25619Y253221D01*
X25423Y253649D01*
X25238Y254081D01*
X25063Y254517D01*
X24899Y254958D01*
X24747Y255402D01*
X24605Y255850D01*
X24474Y256301D01*
X24354Y256756D01*
X24245Y257213D01*
X24148Y257673D01*
X24062Y258135D01*
X23987Y258599D01*
X23924Y259065D01*
X23872Y259532D01*
X23832Y260000D01*
X23803Y260469D01*
X23786Y260939D01*
X23780Y261409D01*
X23780Y312209D02*
X23786Y312679D01*
X23803Y313149D01*
X23832Y313618D01*
X23872Y314086D01*
X23924Y314553D01*
X23987Y315019D01*
X24062Y315483D01*
X24148Y315945D01*
X24245Y316405D01*
X24354Y316862D01*
X24474Y317317D01*
X24605Y317768D01*
X24747Y318216D01*
X24899Y318660D01*
X25063Y319101D01*
X25238Y319537D01*
X25423Y319969D01*
X25619Y320397D01*
X25825Y320819D01*
X26041Y321236D01*
X26268Y321648D01*
X26504Y322054D01*
X26751Y322454D01*
X27007Y322848D01*
X27273Y323236D01*
X27549Y323617D01*
X27833Y323991D01*
X28127Y324358D01*
X28429Y324717D01*
X28741Y325069D01*
X29061Y325414D01*
X29389Y325750D01*
X29725Y326078D01*
X30070Y326398D01*
X30422Y326710D01*
X30781Y327012D01*
X31148Y327306D01*
X31522Y327590D01*
X31903Y327866D01*
X32291Y328132D01*
X32685Y328388D01*
X33085Y328635D01*
X33491Y328871D01*
X33903Y329098D01*
X34320Y329314D01*
X34742Y329520D01*
X35170Y329716D01*
X35602Y329901D01*
X36038Y330076D01*
X36479Y330240D01*
X36923Y330392D01*
X37371Y330534D01*
X37822Y330665D01*
X38277Y330785D01*
X38734Y330894D01*
X39194Y330991D01*
X39656Y331077D01*
X40120Y331152D01*
X40586Y331215D01*
X41053Y331267D01*
X41521Y331307D01*
X41990Y331336D01*
X42460Y331353D01*
X42930Y331359D01*
X43400Y331353D01*
X43870Y331336D01*
X44339Y331307D01*
X44807Y331267D01*
X45274Y331215D01*
X45740Y331152D01*
X46204Y331077D01*
X46666Y330991D01*
X47126Y330894D01*
X47583Y330785D01*
X48038Y330665D01*
X48489Y330534D01*
X48937Y330392D01*
X49381Y330240D01*
X49822Y330076D01*
X50258Y329901D01*
X50690Y329716D01*
X51118Y329520D01*
X51540Y329314D01*
X51957Y329098D01*
X52369Y328871D01*
X52775Y328635D01*
X53175Y328388D01*
X53569Y328132D01*
X53957Y327866D01*
X54338Y327590D01*
X54712Y327306D01*
X55079Y327012D01*
X55438Y326710D01*
X55790Y326398D01*
X56135Y326078D01*
X56471Y325750D01*
X56799Y325414D01*
X57119Y325069D01*
X57431Y324717D01*
X57733Y324358D01*
X58027Y323991D01*
X58311Y323617D01*
X58587Y323236D01*
X58853Y322848D01*
X59109Y322454D01*
X59356Y322054D01*
X59592Y321648D01*
X59819Y321236D01*
X60035Y320819D01*
X60241Y320397D01*
X60437Y319969D01*
X60622Y319537D01*
X60797Y319101D01*
X60961Y318660D01*
X61113Y318216D01*
X61255Y317768D01*
X61386Y317317D01*
X61506Y316862D01*
X61615Y316405D01*
X61712Y315945D01*
X61798Y315483D01*
X61873Y315019D01*
X61936Y314553D01*
X61988Y314086D01*
X62028Y313618D01*
X62057Y313149D01*
X62074Y312679D01*
X62080Y312209D01*
X62074Y311739D01*
X62057Y311269D01*
X62028Y310800D01*
X61988Y310332D01*
X61936Y309865D01*
X61873Y309399D01*
X61798Y308935D01*
X61712Y308473D01*
X61615Y308013D01*
X61506Y307556D01*
X61386Y307101D01*
X61255Y306650D01*
X61113Y306202D01*
X60961Y305758D01*
X60797Y305317D01*
X60622Y304881D01*
X60437Y304449D01*
X60241Y304021D01*
X60035Y303599D01*
X59819Y303182D01*
X59592Y302770D01*
X59356Y302364D01*
X59109Y301964D01*
X58853Y301570D01*
X58587Y301182D01*
X58311Y300801D01*
X58027Y300427D01*
X57733Y300060D01*
X57431Y299701D01*
X57119Y299349D01*
X56799Y299004D01*
X56471Y298668D01*
X56135Y298340D01*
X55790Y298020D01*
X55438Y297708D01*
X55079Y297406D01*
X54712Y297112D01*
X54338Y296828D01*
X53957Y296552D01*
X53569Y296286D01*
X53175Y296030D01*
X52775Y295783D01*
X52369Y295547D01*
X51957Y295320D01*
X51540Y295104D01*
X51118Y294898D01*
X50690Y294702D01*
X50258Y294517D01*
X49822Y294342D01*
X49381Y294178D01*
X48937Y294026D01*
X48489Y293884D01*
X48038Y293753D01*
X47583Y293633D01*
X47126Y293524D01*
X46666Y293427D01*
X46204Y293341D01*
X45740Y293266D01*
X45274Y293203D01*
X44807Y293151D01*
X44339Y293111D01*
X43870Y293082D01*
X43400Y293065D01*
X42930Y293059D01*
X42460Y293065D01*
X41990Y293082D01*
X41521Y293111D01*
X41053Y293151D01*
X40586Y293203D01*
X40120Y293266D01*
X39656Y293341D01*
X39194Y293427D01*
X38734Y293524D01*
X38277Y293633D01*
X37822Y293753D01*
X37371Y293884D01*
X36923Y294026D01*
X36479Y294178D01*
X36038Y294342D01*
X35602Y294517D01*
X35170Y294702D01*
X34742Y294898D01*
X34320Y295104D01*
X33903Y295320D01*
X33491Y295547D01*
X33085Y295783D01*
X32685Y296030D01*
X32291Y296286D01*
X31903Y296552D01*
X31522Y296828D01*
X31148Y297112D01*
X30781Y297406D01*
X30422Y297708D01*
X30070Y298020D01*
X29725Y298340D01*
X29389Y298668D01*
X29061Y299004D01*
X28741Y299349D01*
X28429Y299701D01*
X28127Y300060D01*
X27833Y300427D01*
X27549Y300801D01*
X27273Y301182D01*
X27007Y301570D01*
X26751Y301964D01*
X26504Y302364D01*
X26268Y302770D01*
X26041Y303182D01*
X25825Y303599D01*
X25619Y304021D01*
X25423Y304449D01*
X25238Y304881D01*
X25063Y305317D01*
X24899Y305758D01*
X24747Y306202D01*
X24605Y306650D01*
X24474Y307101D01*
X24354Y307556D01*
X24245Y308013D01*
X24148Y308473D01*
X24062Y308935D01*
X23987Y309399D01*
X23924Y309865D01*
X23872Y310332D01*
X23832Y310800D01*
X23803Y311269D01*
X23786Y311739D01*
X23780Y312209D01*
D11*
X33048Y340995D02*
X38975Y349885D01*
X33048Y349885D02*
X38975Y340995D01*
X47626Y347663D02*
X47624Y347755D01*
X47618Y347847D01*
X47609Y347938D01*
X47596Y348029D01*
X47579Y348119D01*
X47558Y348209D01*
X47534Y348297D01*
X47506Y348385D01*
X47474Y348471D01*
X47439Y348556D01*
X47400Y348639D01*
X47358Y348721D01*
X47313Y348801D01*
X47264Y348879D01*
X47212Y348955D01*
X47157Y349028D01*
X47099Y349100D01*
X47039Y349169D01*
X46975Y349235D01*
X46909Y349299D01*
X46840Y349359D01*
X46768Y349417D01*
X46695Y349472D01*
X46619Y349524D01*
X46541Y349573D01*
X46461Y349618D01*
X46379Y349660D01*
X46296Y349699D01*
X46211Y349734D01*
X46125Y349766D01*
X46037Y349794D01*
X45949Y349818D01*
X45859Y349839D01*
X45769Y349856D01*
X45678Y349869D01*
X45587Y349878D01*
X45495Y349884D01*
X45403Y349886D01*
X45403Y349885D02*
X45297Y349883D01*
X45192Y349877D01*
X45087Y349867D01*
X44982Y349854D01*
X44878Y349836D01*
X44775Y349815D01*
X44672Y349790D01*
X44570Y349761D01*
X44470Y349728D01*
X44371Y349692D01*
X44273Y349652D01*
X44177Y349608D01*
X44082Y349561D01*
X43990Y349511D01*
X43899Y349457D01*
X43810Y349399D01*
X43724Y349339D01*
X43640Y349275D01*
X43558Y349209D01*
X43478Y349139D01*
X43402Y349066D01*
X43328Y348991D01*
X43257Y348913D01*
X43189Y348832D01*
X43123Y348749D01*
X43061Y348663D01*
X43003Y348576D01*
X42947Y348486D01*
X42895Y348394D01*
X42846Y348300D01*
X42801Y348205D01*
X42759Y348108D01*
X42721Y348009D01*
X42687Y347910D01*
X46884Y345934D02*
X46953Y346003D01*
X47019Y346073D01*
X47082Y346147D01*
X47141Y346223D01*
X47198Y346301D01*
X47252Y346381D01*
X47302Y346464D01*
X47349Y346548D01*
X47392Y346635D01*
X47432Y346723D01*
X47468Y346812D01*
X47501Y346903D01*
X47530Y346995D01*
X47555Y347089D01*
X47576Y347183D01*
X47594Y347278D01*
X47607Y347374D01*
X47617Y347470D01*
X47623Y347566D01*
X47625Y347663D01*
X46884Y345934D02*
X42686Y340995D01*
X47625Y340995D01*
D10*
X83680Y177589D02*
X83680Y25189D01*
X17937Y25189D02*
X17937Y177589D01*
X62735Y25189D02*
X67659Y25189D01*
X76450Y25189D02*
X76450Y23902D01*
X72310Y23902D02*
X72310Y25189D01*
X74459Y25189D01*
X76450Y25189D01*
X70810Y22119D02*
X70810Y19489D01*
X77950Y19489D02*
X77950Y22119D01*
X72310Y25189D02*
X67659Y25189D01*
X76450Y23902D02*
X77950Y22119D01*
X77950Y19489D02*
X70810Y19489D01*
X22767Y25189D02*
X17937Y25189D01*
X22767Y25189D02*
X62735Y25189D01*
X70810Y22119D02*
X72310Y23902D01*
X67659Y25189D02*
X67659Y177589D01*
X62735Y177589D01*
X74459Y177589D02*
X74459Y25189D01*
X74459Y177589D02*
X67659Y177589D01*
X62735Y177589D02*
X22767Y177589D01*
X17937Y177589D01*
X2680Y177589D01*
X76450Y25189D02*
X80680Y25189D01*
X80680Y177589D02*
X74459Y177589D01*
X2680Y177589D02*
X2680Y25189D01*
X17937Y25189D01*
X80680Y25189D02*
X80680Y177589D01*
X80680Y25189D02*
X83680Y25189D01*
X83680Y177589D02*
X80680Y177589D01*
X23780Y50589D02*
X23786Y51059D01*
X23803Y51529D01*
X23832Y51998D01*
X23872Y52466D01*
X23924Y52933D01*
X23987Y53399D01*
X24062Y53863D01*
X24148Y54325D01*
X24245Y54785D01*
X24354Y55242D01*
X24474Y55697D01*
X24605Y56148D01*
X24747Y56596D01*
X24899Y57040D01*
X25063Y57481D01*
X25238Y57917D01*
X25423Y58349D01*
X25619Y58777D01*
X25825Y59199D01*
X26041Y59616D01*
X26268Y60028D01*
X26504Y60434D01*
X26751Y60834D01*
X27007Y61228D01*
X27273Y61616D01*
X27549Y61997D01*
X27833Y62371D01*
X28127Y62738D01*
X28429Y63097D01*
X28741Y63449D01*
X29061Y63794D01*
X29389Y64130D01*
X29725Y64458D01*
X30070Y64778D01*
X30422Y65090D01*
X30781Y65392D01*
X31148Y65686D01*
X31522Y65970D01*
X31903Y66246D01*
X32291Y66512D01*
X32685Y66768D01*
X33085Y67015D01*
X33491Y67251D01*
X33903Y67478D01*
X34320Y67694D01*
X34742Y67900D01*
X35170Y68096D01*
X35602Y68281D01*
X36038Y68456D01*
X36479Y68620D01*
X36923Y68772D01*
X37371Y68914D01*
X37822Y69045D01*
X38277Y69165D01*
X38734Y69274D01*
X39194Y69371D01*
X39656Y69457D01*
X40120Y69532D01*
X40586Y69595D01*
X41053Y69647D01*
X41521Y69687D01*
X41990Y69716D01*
X42460Y69733D01*
X42930Y69739D01*
X43400Y69733D01*
X43870Y69716D01*
X44339Y69687D01*
X44807Y69647D01*
X45274Y69595D01*
X45740Y69532D01*
X46204Y69457D01*
X46666Y69371D01*
X47126Y69274D01*
X47583Y69165D01*
X48038Y69045D01*
X48489Y68914D01*
X48937Y68772D01*
X49381Y68620D01*
X49822Y68456D01*
X50258Y68281D01*
X50690Y68096D01*
X51118Y67900D01*
X51540Y67694D01*
X51957Y67478D01*
X52369Y67251D01*
X52775Y67015D01*
X53175Y66768D01*
X53569Y66512D01*
X53957Y66246D01*
X54338Y65970D01*
X54712Y65686D01*
X55079Y65392D01*
X55438Y65090D01*
X55790Y64778D01*
X56135Y64458D01*
X56471Y64130D01*
X56799Y63794D01*
X57119Y63449D01*
X57431Y63097D01*
X57733Y62738D01*
X58027Y62371D01*
X58311Y61997D01*
X58587Y61616D01*
X58853Y61228D01*
X59109Y60834D01*
X59356Y60434D01*
X59592Y60028D01*
X59819Y59616D01*
X60035Y59199D01*
X60241Y58777D01*
X60437Y58349D01*
X60622Y57917D01*
X60797Y57481D01*
X60961Y57040D01*
X61113Y56596D01*
X61255Y56148D01*
X61386Y55697D01*
X61506Y55242D01*
X61615Y54785D01*
X61712Y54325D01*
X61798Y53863D01*
X61873Y53399D01*
X61936Y52933D01*
X61988Y52466D01*
X62028Y51998D01*
X62057Y51529D01*
X62074Y51059D01*
X62080Y50589D01*
X62074Y50119D01*
X62057Y49649D01*
X62028Y49180D01*
X61988Y48712D01*
X61936Y48245D01*
X61873Y47779D01*
X61798Y47315D01*
X61712Y46853D01*
X61615Y46393D01*
X61506Y45936D01*
X61386Y45481D01*
X61255Y45030D01*
X61113Y44582D01*
X60961Y44138D01*
X60797Y43697D01*
X60622Y43261D01*
X60437Y42829D01*
X60241Y42401D01*
X60035Y41979D01*
X59819Y41562D01*
X59592Y41150D01*
X59356Y40744D01*
X59109Y40344D01*
X58853Y39950D01*
X58587Y39562D01*
X58311Y39181D01*
X58027Y38807D01*
X57733Y38440D01*
X57431Y38081D01*
X57119Y37729D01*
X56799Y37384D01*
X56471Y37048D01*
X56135Y36720D01*
X55790Y36400D01*
X55438Y36088D01*
X55079Y35786D01*
X54712Y35492D01*
X54338Y35208D01*
X53957Y34932D01*
X53569Y34666D01*
X53175Y34410D01*
X52775Y34163D01*
X52369Y33927D01*
X51957Y33700D01*
X51540Y33484D01*
X51118Y33278D01*
X50690Y33082D01*
X50258Y32897D01*
X49822Y32722D01*
X49381Y32558D01*
X48937Y32406D01*
X48489Y32264D01*
X48038Y32133D01*
X47583Y32013D01*
X47126Y31904D01*
X46666Y31807D01*
X46204Y31721D01*
X45740Y31646D01*
X45274Y31583D01*
X44807Y31531D01*
X44339Y31491D01*
X43870Y31462D01*
X43400Y31445D01*
X42930Y31439D01*
X42460Y31445D01*
X41990Y31462D01*
X41521Y31491D01*
X41053Y31531D01*
X40586Y31583D01*
X40120Y31646D01*
X39656Y31721D01*
X39194Y31807D01*
X38734Y31904D01*
X38277Y32013D01*
X37822Y32133D01*
X37371Y32264D01*
X36923Y32406D01*
X36479Y32558D01*
X36038Y32722D01*
X35602Y32897D01*
X35170Y33082D01*
X34742Y33278D01*
X34320Y33484D01*
X33903Y33700D01*
X33491Y33927D01*
X33085Y34163D01*
X32685Y34410D01*
X32291Y34666D01*
X31903Y34932D01*
X31522Y35208D01*
X31148Y35492D01*
X30781Y35786D01*
X30422Y36088D01*
X30070Y36400D01*
X29725Y36720D01*
X29389Y37048D01*
X29061Y37384D01*
X28741Y37729D01*
X28429Y38081D01*
X28127Y38440D01*
X27833Y38807D01*
X27549Y39181D01*
X27273Y39562D01*
X27007Y39950D01*
X26751Y40344D01*
X26504Y40744D01*
X26268Y41150D01*
X26041Y41562D01*
X25825Y41979D01*
X25619Y42401D01*
X25423Y42829D01*
X25238Y43261D01*
X25063Y43697D01*
X24899Y44138D01*
X24747Y44582D01*
X24605Y45030D01*
X24474Y45481D01*
X24354Y45936D01*
X24245Y46393D01*
X24148Y46853D01*
X24062Y47315D01*
X23987Y47779D01*
X23924Y48245D01*
X23872Y48712D01*
X23832Y49180D01*
X23803Y49649D01*
X23786Y50119D01*
X23780Y50589D01*
X23780Y101389D02*
X23786Y101859D01*
X23803Y102329D01*
X23832Y102798D01*
X23872Y103266D01*
X23924Y103733D01*
X23987Y104199D01*
X24062Y104663D01*
X24148Y105125D01*
X24245Y105585D01*
X24354Y106042D01*
X24474Y106497D01*
X24605Y106948D01*
X24747Y107396D01*
X24899Y107840D01*
X25063Y108281D01*
X25238Y108717D01*
X25423Y109149D01*
X25619Y109577D01*
X25825Y109999D01*
X26041Y110416D01*
X26268Y110828D01*
X26504Y111234D01*
X26751Y111634D01*
X27007Y112028D01*
X27273Y112416D01*
X27549Y112797D01*
X27833Y113171D01*
X28127Y113538D01*
X28429Y113897D01*
X28741Y114249D01*
X29061Y114594D01*
X29389Y114930D01*
X29725Y115258D01*
X30070Y115578D01*
X30422Y115890D01*
X30781Y116192D01*
X31148Y116486D01*
X31522Y116770D01*
X31903Y117046D01*
X32291Y117312D01*
X32685Y117568D01*
X33085Y117815D01*
X33491Y118051D01*
X33903Y118278D01*
X34320Y118494D01*
X34742Y118700D01*
X35170Y118896D01*
X35602Y119081D01*
X36038Y119256D01*
X36479Y119420D01*
X36923Y119572D01*
X37371Y119714D01*
X37822Y119845D01*
X38277Y119965D01*
X38734Y120074D01*
X39194Y120171D01*
X39656Y120257D01*
X40120Y120332D01*
X40586Y120395D01*
X41053Y120447D01*
X41521Y120487D01*
X41990Y120516D01*
X42460Y120533D01*
X42930Y120539D01*
X43400Y120533D01*
X43870Y120516D01*
X44339Y120487D01*
X44807Y120447D01*
X45274Y120395D01*
X45740Y120332D01*
X46204Y120257D01*
X46666Y120171D01*
X47126Y120074D01*
X47583Y119965D01*
X48038Y119845D01*
X48489Y119714D01*
X48937Y119572D01*
X49381Y119420D01*
X49822Y119256D01*
X50258Y119081D01*
X50690Y118896D01*
X51118Y118700D01*
X51540Y118494D01*
X51957Y118278D01*
X52369Y118051D01*
X52775Y117815D01*
X53175Y117568D01*
X53569Y117312D01*
X53957Y117046D01*
X54338Y116770D01*
X54712Y116486D01*
X55079Y116192D01*
X55438Y115890D01*
X55790Y115578D01*
X56135Y115258D01*
X56471Y114930D01*
X56799Y114594D01*
X57119Y114249D01*
X57431Y113897D01*
X57733Y113538D01*
X58027Y113171D01*
X58311Y112797D01*
X58587Y112416D01*
X58853Y112028D01*
X59109Y111634D01*
X59356Y111234D01*
X59592Y110828D01*
X59819Y110416D01*
X60035Y109999D01*
X60241Y109577D01*
X60437Y109149D01*
X60622Y108717D01*
X60797Y108281D01*
X60961Y107840D01*
X61113Y107396D01*
X61255Y106948D01*
X61386Y106497D01*
X61506Y106042D01*
X61615Y105585D01*
X61712Y105125D01*
X61798Y104663D01*
X61873Y104199D01*
X61936Y103733D01*
X61988Y103266D01*
X62028Y102798D01*
X62057Y102329D01*
X62074Y101859D01*
X62080Y101389D01*
X62074Y100919D01*
X62057Y100449D01*
X62028Y99980D01*
X61988Y99512D01*
X61936Y99045D01*
X61873Y98579D01*
X61798Y98115D01*
X61712Y97653D01*
X61615Y97193D01*
X61506Y96736D01*
X61386Y96281D01*
X61255Y95830D01*
X61113Y95382D01*
X60961Y94938D01*
X60797Y94497D01*
X60622Y94061D01*
X60437Y93629D01*
X60241Y93201D01*
X60035Y92779D01*
X59819Y92362D01*
X59592Y91950D01*
X59356Y91544D01*
X59109Y91144D01*
X58853Y90750D01*
X58587Y90362D01*
X58311Y89981D01*
X58027Y89607D01*
X57733Y89240D01*
X57431Y88881D01*
X57119Y88529D01*
X56799Y88184D01*
X56471Y87848D01*
X56135Y87520D01*
X55790Y87200D01*
X55438Y86888D01*
X55079Y86586D01*
X54712Y86292D01*
X54338Y86008D01*
X53957Y85732D01*
X53569Y85466D01*
X53175Y85210D01*
X52775Y84963D01*
X52369Y84727D01*
X51957Y84500D01*
X51540Y84284D01*
X51118Y84078D01*
X50690Y83882D01*
X50258Y83697D01*
X49822Y83522D01*
X49381Y83358D01*
X48937Y83206D01*
X48489Y83064D01*
X48038Y82933D01*
X47583Y82813D01*
X47126Y82704D01*
X46666Y82607D01*
X46204Y82521D01*
X45740Y82446D01*
X45274Y82383D01*
X44807Y82331D01*
X44339Y82291D01*
X43870Y82262D01*
X43400Y82245D01*
X42930Y82239D01*
X42460Y82245D01*
X41990Y82262D01*
X41521Y82291D01*
X41053Y82331D01*
X40586Y82383D01*
X40120Y82446D01*
X39656Y82521D01*
X39194Y82607D01*
X38734Y82704D01*
X38277Y82813D01*
X37822Y82933D01*
X37371Y83064D01*
X36923Y83206D01*
X36479Y83358D01*
X36038Y83522D01*
X35602Y83697D01*
X35170Y83882D01*
X34742Y84078D01*
X34320Y84284D01*
X33903Y84500D01*
X33491Y84727D01*
X33085Y84963D01*
X32685Y85210D01*
X32291Y85466D01*
X31903Y85732D01*
X31522Y86008D01*
X31148Y86292D01*
X30781Y86586D01*
X30422Y86888D01*
X30070Y87200D01*
X29725Y87520D01*
X29389Y87848D01*
X29061Y88184D01*
X28741Y88529D01*
X28429Y88881D01*
X28127Y89240D01*
X27833Y89607D01*
X27549Y89981D01*
X27273Y90362D01*
X27007Y90750D01*
X26751Y91144D01*
X26504Y91544D01*
X26268Y91950D01*
X26041Y92362D01*
X25825Y92779D01*
X25619Y93201D01*
X25423Y93629D01*
X25238Y94061D01*
X25063Y94497D01*
X24899Y94938D01*
X24747Y95382D01*
X24605Y95830D01*
X24474Y96281D01*
X24354Y96736D01*
X24245Y97193D01*
X24148Y97653D01*
X24062Y98115D01*
X23987Y98579D01*
X23924Y99045D01*
X23872Y99512D01*
X23832Y99980D01*
X23803Y100449D01*
X23786Y100919D01*
X23780Y101389D01*
X23780Y152189D02*
X23786Y152659D01*
X23803Y153129D01*
X23832Y153598D01*
X23872Y154066D01*
X23924Y154533D01*
X23987Y154999D01*
X24062Y155463D01*
X24148Y155925D01*
X24245Y156385D01*
X24354Y156842D01*
X24474Y157297D01*
X24605Y157748D01*
X24747Y158196D01*
X24899Y158640D01*
X25063Y159081D01*
X25238Y159517D01*
X25423Y159949D01*
X25619Y160377D01*
X25825Y160799D01*
X26041Y161216D01*
X26268Y161628D01*
X26504Y162034D01*
X26751Y162434D01*
X27007Y162828D01*
X27273Y163216D01*
X27549Y163597D01*
X27833Y163971D01*
X28127Y164338D01*
X28429Y164697D01*
X28741Y165049D01*
X29061Y165394D01*
X29389Y165730D01*
X29725Y166058D01*
X30070Y166378D01*
X30422Y166690D01*
X30781Y166992D01*
X31148Y167286D01*
X31522Y167570D01*
X31903Y167846D01*
X32291Y168112D01*
X32685Y168368D01*
X33085Y168615D01*
X33491Y168851D01*
X33903Y169078D01*
X34320Y169294D01*
X34742Y169500D01*
X35170Y169696D01*
X35602Y169881D01*
X36038Y170056D01*
X36479Y170220D01*
X36923Y170372D01*
X37371Y170514D01*
X37822Y170645D01*
X38277Y170765D01*
X38734Y170874D01*
X39194Y170971D01*
X39656Y171057D01*
X40120Y171132D01*
X40586Y171195D01*
X41053Y171247D01*
X41521Y171287D01*
X41990Y171316D01*
X42460Y171333D01*
X42930Y171339D01*
X43400Y171333D01*
X43870Y171316D01*
X44339Y171287D01*
X44807Y171247D01*
X45274Y171195D01*
X45740Y171132D01*
X46204Y171057D01*
X46666Y170971D01*
X47126Y170874D01*
X47583Y170765D01*
X48038Y170645D01*
X48489Y170514D01*
X48937Y170372D01*
X49381Y170220D01*
X49822Y170056D01*
X50258Y169881D01*
X50690Y169696D01*
X51118Y169500D01*
X51540Y169294D01*
X51957Y169078D01*
X52369Y168851D01*
X52775Y168615D01*
X53175Y168368D01*
X53569Y168112D01*
X53957Y167846D01*
X54338Y167570D01*
X54712Y167286D01*
X55079Y166992D01*
X55438Y166690D01*
X55790Y166378D01*
X56135Y166058D01*
X56471Y165730D01*
X56799Y165394D01*
X57119Y165049D01*
X57431Y164697D01*
X57733Y164338D01*
X58027Y163971D01*
X58311Y163597D01*
X58587Y163216D01*
X58853Y162828D01*
X59109Y162434D01*
X59356Y162034D01*
X59592Y161628D01*
X59819Y161216D01*
X60035Y160799D01*
X60241Y160377D01*
X60437Y159949D01*
X60622Y159517D01*
X60797Y159081D01*
X60961Y158640D01*
X61113Y158196D01*
X61255Y157748D01*
X61386Y157297D01*
X61506Y156842D01*
X61615Y156385D01*
X61712Y155925D01*
X61798Y155463D01*
X61873Y154999D01*
X61936Y154533D01*
X61988Y154066D01*
X62028Y153598D01*
X62057Y153129D01*
X62074Y152659D01*
X62080Y152189D01*
X62074Y151719D01*
X62057Y151249D01*
X62028Y150780D01*
X61988Y150312D01*
X61936Y149845D01*
X61873Y149379D01*
X61798Y148915D01*
X61712Y148453D01*
X61615Y147993D01*
X61506Y147536D01*
X61386Y147081D01*
X61255Y146630D01*
X61113Y146182D01*
X60961Y145738D01*
X60797Y145297D01*
X60622Y144861D01*
X60437Y144429D01*
X60241Y144001D01*
X60035Y143579D01*
X59819Y143162D01*
X59592Y142750D01*
X59356Y142344D01*
X59109Y141944D01*
X58853Y141550D01*
X58587Y141162D01*
X58311Y140781D01*
X58027Y140407D01*
X57733Y140040D01*
X57431Y139681D01*
X57119Y139329D01*
X56799Y138984D01*
X56471Y138648D01*
X56135Y138320D01*
X55790Y138000D01*
X55438Y137688D01*
X55079Y137386D01*
X54712Y137092D01*
X54338Y136808D01*
X53957Y136532D01*
X53569Y136266D01*
X53175Y136010D01*
X52775Y135763D01*
X52369Y135527D01*
X51957Y135300D01*
X51540Y135084D01*
X51118Y134878D01*
X50690Y134682D01*
X50258Y134497D01*
X49822Y134322D01*
X49381Y134158D01*
X48937Y134006D01*
X48489Y133864D01*
X48038Y133733D01*
X47583Y133613D01*
X47126Y133504D01*
X46666Y133407D01*
X46204Y133321D01*
X45740Y133246D01*
X45274Y133183D01*
X44807Y133131D01*
X44339Y133091D01*
X43870Y133062D01*
X43400Y133045D01*
X42930Y133039D01*
X42460Y133045D01*
X41990Y133062D01*
X41521Y133091D01*
X41053Y133131D01*
X40586Y133183D01*
X40120Y133246D01*
X39656Y133321D01*
X39194Y133407D01*
X38734Y133504D01*
X38277Y133613D01*
X37822Y133733D01*
X37371Y133864D01*
X36923Y134006D01*
X36479Y134158D01*
X36038Y134322D01*
X35602Y134497D01*
X35170Y134682D01*
X34742Y134878D01*
X34320Y135084D01*
X33903Y135300D01*
X33491Y135527D01*
X33085Y135763D01*
X32685Y136010D01*
X32291Y136266D01*
X31903Y136532D01*
X31522Y136808D01*
X31148Y137092D01*
X30781Y137386D01*
X30422Y137688D01*
X30070Y138000D01*
X29725Y138320D01*
X29389Y138648D01*
X29061Y138984D01*
X28741Y139329D01*
X28429Y139681D01*
X28127Y140040D01*
X27833Y140407D01*
X27549Y140781D01*
X27273Y141162D01*
X27007Y141550D01*
X26751Y141944D01*
X26504Y142344D01*
X26268Y142750D01*
X26041Y143162D01*
X25825Y143579D01*
X25619Y144001D01*
X25423Y144429D01*
X25238Y144861D01*
X25063Y145297D01*
X24899Y145738D01*
X24747Y146182D01*
X24605Y146630D01*
X24474Y147081D01*
X24354Y147536D01*
X24245Y147993D01*
X24148Y148453D01*
X24062Y148915D01*
X23987Y149379D01*
X23924Y149845D01*
X23872Y150312D01*
X23832Y150780D01*
X23803Y151249D01*
X23786Y151719D01*
X23780Y152189D01*
D11*
X38975Y17145D02*
X33048Y8255D01*
X38975Y8255D02*
X33048Y17145D01*
X42686Y8255D02*
X45156Y8255D01*
X45254Y8257D01*
X45352Y8263D01*
X45450Y8273D01*
X45547Y8286D01*
X45644Y8304D01*
X45740Y8325D01*
X45834Y8350D01*
X45928Y8379D01*
X46021Y8411D01*
X46112Y8448D01*
X46202Y8487D01*
X46290Y8531D01*
X46376Y8578D01*
X46461Y8628D01*
X46543Y8681D01*
X46623Y8738D01*
X46701Y8798D01*
X46776Y8861D01*
X46849Y8927D01*
X46919Y8996D01*
X46986Y9067D01*
X47051Y9141D01*
X47112Y9218D01*
X47171Y9297D01*
X47226Y9378D01*
X47278Y9461D01*
X47326Y9547D01*
X47371Y9634D01*
X47413Y9723D01*
X47451Y9813D01*
X47485Y9905D01*
X47516Y9998D01*
X47543Y10093D01*
X47566Y10188D01*
X47586Y10285D01*
X47601Y10381D01*
X47613Y10479D01*
X47621Y10577D01*
X47625Y10675D01*
X47625Y10773D01*
X47621Y10871D01*
X47613Y10969D01*
X47601Y11067D01*
X47586Y11163D01*
X47566Y11260D01*
X47543Y11355D01*
X47516Y11450D01*
X47485Y11543D01*
X47451Y11635D01*
X47413Y11725D01*
X47371Y11814D01*
X47326Y11901D01*
X47278Y11987D01*
X47226Y12070D01*
X47171Y12151D01*
X47112Y12230D01*
X47051Y12307D01*
X46986Y12381D01*
X46919Y12452D01*
X46849Y12521D01*
X46776Y12587D01*
X46701Y12650D01*
X46623Y12710D01*
X46543Y12767D01*
X46461Y12820D01*
X46376Y12870D01*
X46290Y12917D01*
X46202Y12961D01*
X46112Y13000D01*
X46021Y13037D01*
X45928Y13069D01*
X45834Y13098D01*
X45740Y13123D01*
X45644Y13144D01*
X45547Y13162D01*
X45450Y13175D01*
X45352Y13185D01*
X45254Y13191D01*
X45156Y13193D01*
X45649Y17145D02*
X42686Y17145D01*
X45649Y17145D02*
X45736Y17143D01*
X45824Y17137D01*
X45911Y17128D01*
X45997Y17114D01*
X46083Y17097D01*
X46167Y17076D01*
X46251Y17051D01*
X46334Y17022D01*
X46415Y16990D01*
X46495Y16955D01*
X46573Y16916D01*
X46650Y16873D01*
X46724Y16827D01*
X46796Y16778D01*
X46866Y16726D01*
X46934Y16670D01*
X46999Y16612D01*
X47062Y16551D01*
X47121Y16487D01*
X47178Y16420D01*
X47232Y16352D01*
X47283Y16280D01*
X47330Y16207D01*
X47375Y16132D01*
X47416Y16054D01*
X47453Y15975D01*
X47487Y15895D01*
X47517Y15813D01*
X47544Y15730D01*
X47567Y15645D01*
X47586Y15560D01*
X47601Y15474D01*
X47613Y15387D01*
X47621Y15300D01*
X47625Y15213D01*
X47625Y15125D01*
X47621Y15038D01*
X47613Y14951D01*
X47601Y14864D01*
X47586Y14778D01*
X47567Y14693D01*
X47544Y14608D01*
X47517Y14525D01*
X47487Y14443D01*
X47453Y14363D01*
X47416Y14284D01*
X47375Y14206D01*
X47330Y14131D01*
X47283Y14058D01*
X47232Y13986D01*
X47178Y13918D01*
X47121Y13851D01*
X47062Y13787D01*
X46999Y13726D01*
X46934Y13668D01*
X46866Y13612D01*
X46796Y13560D01*
X46724Y13511D01*
X46650Y13465D01*
X46573Y13422D01*
X46495Y13383D01*
X46415Y13348D01*
X46334Y13316D01*
X46251Y13287D01*
X46167Y13262D01*
X46083Y13241D01*
X45997Y13224D01*
X45911Y13210D01*
X45824Y13201D01*
X45736Y13195D01*
X45649Y13193D01*
X45649Y13194D02*
X43674Y13194D01*
D13*
X87630Y316230D02*
X87630Y567690D01*
X166370Y567690D02*
X166370Y316230D01*
D14*
X97790Y391160D02*
X97790Y492760D01*
X156210Y492760D02*
X156210Y391160D01*
D13*
X163830Y499110D02*
X163830Y549910D01*
X95250Y549910D02*
X90170Y549910D01*
X101600Y549910D02*
X101600Y499110D01*
X152400Y549910D02*
X163830Y549910D01*
X152400Y549910D02*
X152400Y499110D01*
X90170Y499110D02*
X90170Y549910D01*
X90170Y499110D02*
X101600Y499110D01*
X90170Y549910D02*
X90170Y556260D01*
X106680Y556260D01*
X106680Y553720D02*
X95250Y553720D01*
X95250Y549910D01*
X101600Y549910D01*
X152400Y499110D02*
X163830Y499110D01*
X90170Y384810D02*
X90170Y334010D01*
X158750Y334010D02*
X163830Y334010D01*
X152400Y334010D02*
X152400Y384810D01*
X101600Y334010D02*
X90170Y334010D01*
X101600Y334010D02*
X101600Y384810D01*
X163830Y384810D02*
X163830Y334010D01*
X163830Y384810D02*
X152400Y384810D01*
X163830Y334010D02*
X163830Y327660D01*
X147320Y327660D01*
X147320Y330200D02*
X158750Y330200D01*
X158750Y334010D01*
X152400Y334010D01*
X101600Y384810D02*
X90170Y384810D01*
D14*
X127000Y389890D02*
X127000Y494030D01*
D13*
X143510Y316230D02*
X166370Y316230D01*
X110490Y316230D02*
X87630Y316230D01*
X143510Y567690D02*
X166370Y567690D01*
X110490Y567690D02*
X87630Y567690D01*
D15*
X100965Y495935D03*
X153035Y495935D03*
D16*
X127000Y495935D03*
D15*
X153035Y387985D03*
X100965Y387985D03*
D16*
X127000Y387985D03*
D17*
X151130Y441960D03*
X102870Y441960D03*
D18*
X107315Y365125D03*
X146685Y365125D03*
X146685Y518795D03*
X107315Y518795D03*
D19*
X104140Y523240D03*
X149860Y523240D03*
X149860Y360680D03*
X104140Y360680D03*
D10*
X171196Y547116D02*
X171196Y562864D01*
X178195Y562864D01*
X178195Y555865D02*
X171196Y555865D01*
X184186Y559364D02*
X188561Y562864D01*
X188561Y547116D01*
X192935Y547116D02*
X184186Y547116D01*
D13*
X187960Y346710D02*
X223520Y346710D01*
D14*
X224790Y359410D02*
X224790Y429260D01*
X186690Y429260D02*
X186690Y499110D01*
X190500Y454660D02*
X190500Y429260D01*
X220980Y429260D02*
X220980Y403860D01*
D13*
X175260Y392430D02*
X175260Y448310D01*
X236220Y466090D02*
X236220Y410210D01*
X236218Y410052D01*
X236212Y409893D01*
X236202Y409735D01*
X236188Y409578D01*
X236171Y409420D01*
X236149Y409264D01*
X236124Y409107D01*
X236094Y408952D01*
X236061Y408797D01*
X236024Y408643D01*
X235983Y408490D01*
X235938Y408338D01*
X235889Y408188D01*
X235837Y408038D01*
X235781Y407890D01*
X235721Y407743D01*
X235658Y407598D01*
X235591Y407455D01*
X235521Y407313D01*
X235447Y407173D01*
X235369Y407035D01*
X235288Y406899D01*
X235204Y406765D01*
X235117Y406633D01*
X235026Y406503D01*
X234932Y406376D01*
X234835Y406251D01*
X234734Y406128D01*
X234631Y406008D01*
X234525Y405891D01*
X234416Y405776D01*
X234304Y405664D01*
X234189Y405555D01*
X234072Y405449D01*
X233952Y405346D01*
X233829Y405245D01*
X233704Y405148D01*
X233577Y405054D01*
X233447Y404963D01*
X233315Y404876D01*
X233181Y404792D01*
X233045Y404711D01*
X232907Y404633D01*
X232767Y404559D01*
X232625Y404489D01*
X232482Y404422D01*
X232337Y404359D01*
X232190Y404299D01*
X232042Y404243D01*
X231892Y404191D01*
X231742Y404142D01*
X231590Y404097D01*
X231437Y404056D01*
X231283Y404019D01*
X231128Y403986D01*
X230973Y403956D01*
X230816Y403931D01*
X230660Y403909D01*
X230502Y403892D01*
X230345Y403878D01*
X230187Y403868D01*
X230028Y403862D01*
X229870Y403860D01*
X181610Y454660D02*
X181452Y454658D01*
X181293Y454652D01*
X181135Y454642D01*
X180978Y454628D01*
X180820Y454611D01*
X180664Y454589D01*
X180507Y454564D01*
X180352Y454534D01*
X180197Y454501D01*
X180043Y454464D01*
X179890Y454423D01*
X179738Y454378D01*
X179588Y454329D01*
X179438Y454277D01*
X179290Y454221D01*
X179143Y454161D01*
X178998Y454098D01*
X178855Y454031D01*
X178713Y453961D01*
X178573Y453887D01*
X178435Y453809D01*
X178299Y453728D01*
X178165Y453644D01*
X178033Y453557D01*
X177903Y453466D01*
X177776Y453372D01*
X177651Y453275D01*
X177528Y453174D01*
X177408Y453071D01*
X177291Y452965D01*
X177176Y452856D01*
X177064Y452744D01*
X176955Y452629D01*
X176849Y452512D01*
X176746Y452392D01*
X176645Y452269D01*
X176548Y452144D01*
X176454Y452017D01*
X176363Y451887D01*
X176276Y451755D01*
X176192Y451621D01*
X176111Y451485D01*
X176033Y451347D01*
X175959Y451207D01*
X175889Y451065D01*
X175822Y450922D01*
X175759Y450777D01*
X175699Y450630D01*
X175643Y450482D01*
X175591Y450332D01*
X175542Y450182D01*
X175497Y450030D01*
X175456Y449877D01*
X175419Y449723D01*
X175386Y449568D01*
X175356Y449413D01*
X175331Y449256D01*
X175309Y449100D01*
X175292Y448942D01*
X175278Y448785D01*
X175268Y448627D01*
X175262Y448468D01*
X175260Y448310D01*
X181610Y402590D02*
X181610Y505460D01*
X229870Y455930D02*
X229870Y353060D01*
X181610Y505460D02*
X181612Y505618D01*
X181618Y505777D01*
X181628Y505935D01*
X181642Y506092D01*
X181659Y506250D01*
X181681Y506406D01*
X181706Y506563D01*
X181736Y506718D01*
X181769Y506873D01*
X181806Y507027D01*
X181847Y507180D01*
X181892Y507332D01*
X181941Y507482D01*
X181993Y507632D01*
X182049Y507780D01*
X182109Y507927D01*
X182172Y508072D01*
X182239Y508215D01*
X182309Y508357D01*
X182383Y508497D01*
X182461Y508635D01*
X182542Y508771D01*
X182626Y508905D01*
X182713Y509037D01*
X182804Y509167D01*
X182898Y509294D01*
X182995Y509419D01*
X183096Y509542D01*
X183199Y509662D01*
X183305Y509779D01*
X183414Y509894D01*
X183526Y510006D01*
X183641Y510115D01*
X183758Y510221D01*
X183878Y510324D01*
X184001Y510425D01*
X184126Y510522D01*
X184253Y510616D01*
X184383Y510707D01*
X184515Y510794D01*
X184649Y510878D01*
X184785Y510959D01*
X184923Y511037D01*
X185063Y511111D01*
X185205Y511181D01*
X185348Y511248D01*
X185493Y511311D01*
X185640Y511371D01*
X185788Y511427D01*
X185938Y511479D01*
X186088Y511528D01*
X186240Y511573D01*
X186393Y511614D01*
X186547Y511651D01*
X186702Y511684D01*
X186857Y511714D01*
X187014Y511739D01*
X187170Y511761D01*
X187328Y511778D01*
X187485Y511792D01*
X187643Y511802D01*
X187802Y511808D01*
X187960Y511810D01*
X223520Y511810D02*
X223678Y511808D01*
X223837Y511802D01*
X223995Y511792D01*
X224152Y511778D01*
X224310Y511761D01*
X224466Y511739D01*
X224623Y511714D01*
X224778Y511684D01*
X224933Y511651D01*
X225087Y511614D01*
X225240Y511573D01*
X225392Y511528D01*
X225542Y511479D01*
X225692Y511427D01*
X225840Y511371D01*
X225987Y511311D01*
X226132Y511248D01*
X226275Y511181D01*
X226417Y511111D01*
X226557Y511037D01*
X226695Y510959D01*
X226831Y510878D01*
X226965Y510794D01*
X227097Y510707D01*
X227227Y510616D01*
X227354Y510522D01*
X227479Y510425D01*
X227602Y510324D01*
X227722Y510221D01*
X227839Y510115D01*
X227954Y510006D01*
X228066Y509894D01*
X228175Y509779D01*
X228281Y509662D01*
X228384Y509542D01*
X228485Y509419D01*
X228582Y509294D01*
X228676Y509167D01*
X228767Y509037D01*
X228854Y508905D01*
X228938Y508771D01*
X229019Y508635D01*
X229097Y508497D01*
X229171Y508357D01*
X229241Y508215D01*
X229308Y508072D01*
X229371Y507927D01*
X229431Y507780D01*
X229487Y507632D01*
X229539Y507482D01*
X229588Y507332D01*
X229633Y507180D01*
X229674Y507027D01*
X229711Y506873D01*
X229744Y506718D01*
X229774Y506563D01*
X229799Y506406D01*
X229821Y506250D01*
X229838Y506092D01*
X229852Y505935D01*
X229862Y505777D01*
X229868Y505618D01*
X229870Y505460D01*
X229870Y353060D02*
X229868Y352902D01*
X229862Y352743D01*
X229852Y352585D01*
X229838Y352428D01*
X229821Y352270D01*
X229799Y352114D01*
X229774Y351957D01*
X229744Y351802D01*
X229711Y351647D01*
X229674Y351493D01*
X229633Y351340D01*
X229588Y351188D01*
X229539Y351038D01*
X229487Y350888D01*
X229431Y350740D01*
X229371Y350593D01*
X229308Y350448D01*
X229241Y350305D01*
X229171Y350163D01*
X229097Y350023D01*
X229019Y349885D01*
X228938Y349749D01*
X228854Y349615D01*
X228767Y349483D01*
X228676Y349353D01*
X228582Y349226D01*
X228485Y349101D01*
X228384Y348978D01*
X228281Y348858D01*
X228175Y348741D01*
X228066Y348626D01*
X227954Y348514D01*
X227839Y348405D01*
X227722Y348299D01*
X227602Y348196D01*
X227479Y348095D01*
X227354Y347998D01*
X227227Y347904D01*
X227097Y347813D01*
X226965Y347726D01*
X226831Y347642D01*
X226695Y347561D01*
X226557Y347483D01*
X226417Y347409D01*
X226275Y347339D01*
X226132Y347272D01*
X225987Y347209D01*
X225840Y347149D01*
X225692Y347093D01*
X225542Y347041D01*
X225392Y346992D01*
X225240Y346947D01*
X225087Y346906D01*
X224933Y346869D01*
X224778Y346836D01*
X224623Y346806D01*
X224466Y346781D01*
X224310Y346759D01*
X224152Y346742D01*
X223995Y346728D01*
X223837Y346718D01*
X223678Y346712D01*
X223520Y346710D01*
X187960Y346710D02*
X187802Y346712D01*
X187643Y346718D01*
X187485Y346728D01*
X187328Y346742D01*
X187170Y346759D01*
X187014Y346781D01*
X186857Y346806D01*
X186702Y346836D01*
X186547Y346869D01*
X186393Y346906D01*
X186240Y346947D01*
X186088Y346992D01*
X185938Y347041D01*
X185788Y347093D01*
X185640Y347149D01*
X185493Y347209D01*
X185348Y347272D01*
X185205Y347339D01*
X185063Y347409D01*
X184923Y347483D01*
X184785Y347561D01*
X184649Y347642D01*
X184515Y347726D01*
X184383Y347813D01*
X184253Y347904D01*
X184126Y347998D01*
X184001Y348095D01*
X183878Y348196D01*
X183758Y348299D01*
X183641Y348405D01*
X183526Y348514D01*
X183414Y348626D01*
X183305Y348741D01*
X183199Y348858D01*
X183096Y348978D01*
X182995Y349101D01*
X182898Y349226D01*
X182804Y349353D01*
X182713Y349483D01*
X182626Y349615D01*
X182542Y349749D01*
X182461Y349885D01*
X182383Y350023D01*
X182309Y350163D01*
X182239Y350305D01*
X182172Y350448D01*
X182109Y350593D01*
X182049Y350740D01*
X181993Y350888D01*
X181941Y351038D01*
X181892Y351188D01*
X181847Y351340D01*
X181806Y351493D01*
X181769Y351647D01*
X181736Y351802D01*
X181706Y351957D01*
X181681Y352114D01*
X181659Y352270D01*
X181642Y352428D01*
X181628Y352585D01*
X181618Y352743D01*
X181612Y352902D01*
X181610Y353060D01*
X187960Y511810D02*
X223520Y511810D01*
X181610Y379730D02*
X181610Y353060D01*
X229870Y478790D02*
X229870Y505460D01*
X198882Y340868D02*
X198882Y329692D01*
X198882Y340868D02*
X201986Y340868D01*
X202097Y340866D01*
X202207Y340860D01*
X202318Y340850D01*
X202428Y340836D01*
X202537Y340819D01*
X202646Y340797D01*
X202754Y340772D01*
X202860Y340742D01*
X202966Y340709D01*
X203071Y340672D01*
X203174Y340632D01*
X203275Y340587D01*
X203375Y340540D01*
X203474Y340488D01*
X203570Y340433D01*
X203664Y340375D01*
X203756Y340314D01*
X203846Y340249D01*
X203934Y340181D01*
X204019Y340110D01*
X204101Y340036D01*
X204181Y339959D01*
X204258Y339879D01*
X204332Y339797D01*
X204403Y339712D01*
X204471Y339624D01*
X204536Y339534D01*
X204597Y339442D01*
X204655Y339348D01*
X204710Y339252D01*
X204762Y339153D01*
X204809Y339053D01*
X204854Y338952D01*
X204894Y338849D01*
X204931Y338744D01*
X204964Y338638D01*
X204994Y338532D01*
X205019Y338424D01*
X205041Y338315D01*
X205058Y338206D01*
X205072Y338096D01*
X205082Y337985D01*
X205088Y337875D01*
X205090Y337764D01*
X205088Y337653D01*
X205082Y337543D01*
X205072Y337432D01*
X205058Y337322D01*
X205041Y337213D01*
X205019Y337104D01*
X204994Y336996D01*
X204964Y336890D01*
X204931Y336784D01*
X204894Y336679D01*
X204854Y336576D01*
X204809Y336475D01*
X204762Y336375D01*
X204710Y336276D01*
X204655Y336180D01*
X204597Y336086D01*
X204536Y335994D01*
X204471Y335904D01*
X204403Y335816D01*
X204332Y335731D01*
X204258Y335649D01*
X204181Y335569D01*
X204101Y335492D01*
X204019Y335418D01*
X203934Y335347D01*
X203846Y335279D01*
X203756Y335214D01*
X203664Y335153D01*
X203570Y335095D01*
X203474Y335040D01*
X203375Y334988D01*
X203275Y334941D01*
X203174Y334896D01*
X203071Y334856D01*
X202966Y334819D01*
X202860Y334786D01*
X202754Y334756D01*
X202646Y334731D01*
X202537Y334709D01*
X202428Y334692D01*
X202318Y334678D01*
X202207Y334668D01*
X202097Y334662D01*
X201986Y334660D01*
X201986Y334659D02*
X198882Y334659D01*
X202607Y334659D02*
X205091Y329692D01*
X210220Y338384D02*
X213324Y340868D01*
X213324Y329692D01*
X210220Y329692D02*
X216429Y329692D01*
D11*
X484490Y502500D02*
X484490Y132500D01*
X244490Y132500D01*
X244490Y502500D01*
X484490Y502500D01*
X341990Y399700D02*
X341997Y400252D01*
X342017Y400804D01*
X342051Y401355D01*
X342098Y401905D01*
X342159Y402454D01*
X342234Y403001D01*
X342321Y403547D01*
X342422Y404090D01*
X342537Y404630D01*
X342664Y405167D01*
X342805Y405701D01*
X342959Y406231D01*
X343126Y406758D01*
X343305Y407280D01*
X343498Y407798D01*
X343703Y408310D01*
X343920Y408818D01*
X344150Y409320D01*
X344392Y409816D01*
X344647Y410306D01*
X344913Y410790D01*
X345191Y411267D01*
X345481Y411737D01*
X345782Y412200D01*
X346094Y412656D01*
X346418Y413103D01*
X346752Y413543D01*
X347097Y413974D01*
X347453Y414396D01*
X347819Y414810D01*
X348194Y415215D01*
X348580Y415610D01*
X348975Y415996D01*
X349380Y416371D01*
X349794Y416737D01*
X350216Y417093D01*
X350647Y417438D01*
X351087Y417772D01*
X351534Y418096D01*
X351990Y418408D01*
X352453Y418709D01*
X352923Y418999D01*
X353400Y419277D01*
X353884Y419543D01*
X354374Y419798D01*
X354870Y420040D01*
X355372Y420270D01*
X355880Y420487D01*
X356392Y420692D01*
X356910Y420885D01*
X357432Y421064D01*
X357959Y421231D01*
X358489Y421385D01*
X359023Y421526D01*
X359560Y421653D01*
X360100Y421768D01*
X360643Y421869D01*
X361189Y421956D01*
X361736Y422031D01*
X362285Y422092D01*
X362835Y422139D01*
X363386Y422173D01*
X363938Y422193D01*
X364490Y422200D01*
X365042Y422193D01*
X365594Y422173D01*
X366145Y422139D01*
X366695Y422092D01*
X367244Y422031D01*
X367791Y421956D01*
X368337Y421869D01*
X368880Y421768D01*
X369420Y421653D01*
X369957Y421526D01*
X370491Y421385D01*
X371021Y421231D01*
X371548Y421064D01*
X372070Y420885D01*
X372588Y420692D01*
X373100Y420487D01*
X373608Y420270D01*
X374110Y420040D01*
X374606Y419798D01*
X375096Y419543D01*
X375580Y419277D01*
X376057Y418999D01*
X376527Y418709D01*
X376990Y418408D01*
X377446Y418096D01*
X377893Y417772D01*
X378333Y417438D01*
X378764Y417093D01*
X379186Y416737D01*
X379600Y416371D01*
X380005Y415996D01*
X380400Y415610D01*
X380786Y415215D01*
X381161Y414810D01*
X381527Y414396D01*
X381883Y413974D01*
X382228Y413543D01*
X382562Y413103D01*
X382886Y412656D01*
X383198Y412200D01*
X383499Y411737D01*
X383789Y411267D01*
X384067Y410790D01*
X384333Y410306D01*
X384588Y409816D01*
X384830Y409320D01*
X385060Y408818D01*
X385277Y408310D01*
X385482Y407798D01*
X385675Y407280D01*
X385854Y406758D01*
X386021Y406231D01*
X386175Y405701D01*
X386316Y405167D01*
X386443Y404630D01*
X386558Y404090D01*
X386659Y403547D01*
X386746Y403001D01*
X386821Y402454D01*
X386882Y401905D01*
X386929Y401355D01*
X386963Y400804D01*
X386983Y400252D01*
X386990Y399700D01*
X386983Y399148D01*
X386963Y398596D01*
X386929Y398045D01*
X386882Y397495D01*
X386821Y396946D01*
X386746Y396399D01*
X386659Y395853D01*
X386558Y395310D01*
X386443Y394770D01*
X386316Y394233D01*
X386175Y393699D01*
X386021Y393169D01*
X385854Y392642D01*
X385675Y392120D01*
X385482Y391602D01*
X385277Y391090D01*
X385060Y390582D01*
X384830Y390080D01*
X384588Y389584D01*
X384333Y389094D01*
X384067Y388610D01*
X383789Y388133D01*
X383499Y387663D01*
X383198Y387200D01*
X382886Y386744D01*
X382562Y386297D01*
X382228Y385857D01*
X381883Y385426D01*
X381527Y385004D01*
X381161Y384590D01*
X380786Y384185D01*
X380400Y383790D01*
X380005Y383404D01*
X379600Y383029D01*
X379186Y382663D01*
X378764Y382307D01*
X378333Y381962D01*
X377893Y381628D01*
X377446Y381304D01*
X376990Y380992D01*
X376527Y380691D01*
X376057Y380401D01*
X375580Y380123D01*
X375096Y379857D01*
X374606Y379602D01*
X374110Y379360D01*
X373608Y379130D01*
X373100Y378913D01*
X372588Y378708D01*
X372070Y378515D01*
X371548Y378336D01*
X371021Y378169D01*
X370491Y378015D01*
X369957Y377874D01*
X369420Y377747D01*
X368880Y377632D01*
X368337Y377531D01*
X367791Y377444D01*
X367244Y377369D01*
X366695Y377308D01*
X366145Y377261D01*
X365594Y377227D01*
X365042Y377207D01*
X364490Y377200D01*
X363938Y377207D01*
X363386Y377227D01*
X362835Y377261D01*
X362285Y377308D01*
X361736Y377369D01*
X361189Y377444D01*
X360643Y377531D01*
X360100Y377632D01*
X359560Y377747D01*
X359023Y377874D01*
X358489Y378015D01*
X357959Y378169D01*
X357432Y378336D01*
X356910Y378515D01*
X356392Y378708D01*
X355880Y378913D01*
X355372Y379130D01*
X354870Y379360D01*
X354374Y379602D01*
X353884Y379857D01*
X353400Y380123D01*
X352923Y380401D01*
X352453Y380691D01*
X351990Y380992D01*
X351534Y381304D01*
X351087Y381628D01*
X350647Y381962D01*
X350216Y382307D01*
X349794Y382663D01*
X349380Y383029D01*
X348975Y383404D01*
X348580Y383790D01*
X348194Y384185D01*
X347819Y384590D01*
X347453Y385004D01*
X347097Y385426D01*
X346752Y385857D01*
X346418Y386297D01*
X346094Y386744D01*
X345782Y387200D01*
X345481Y387663D01*
X345191Y388133D01*
X344913Y388610D01*
X344647Y389094D01*
X344392Y389584D01*
X344150Y390080D01*
X343920Y390582D01*
X343703Y391090D01*
X343498Y391602D01*
X343305Y392120D01*
X343126Y392642D01*
X342959Y393169D01*
X342805Y393699D01*
X342664Y394233D01*
X342537Y394770D01*
X342422Y395310D01*
X342321Y395853D01*
X342234Y396399D01*
X342159Y396946D01*
X342098Y397495D01*
X342051Y398045D01*
X342017Y398596D01*
X341997Y399148D01*
X341990Y399700D01*
X341990Y235300D02*
X341997Y235852D01*
X342017Y236404D01*
X342051Y236955D01*
X342098Y237505D01*
X342159Y238054D01*
X342234Y238601D01*
X342321Y239147D01*
X342422Y239690D01*
X342537Y240230D01*
X342664Y240767D01*
X342805Y241301D01*
X342959Y241831D01*
X343126Y242358D01*
X343305Y242880D01*
X343498Y243398D01*
X343703Y243910D01*
X343920Y244418D01*
X344150Y244920D01*
X344392Y245416D01*
X344647Y245906D01*
X344913Y246390D01*
X345191Y246867D01*
X345481Y247337D01*
X345782Y247800D01*
X346094Y248256D01*
X346418Y248703D01*
X346752Y249143D01*
X347097Y249574D01*
X347453Y249996D01*
X347819Y250410D01*
X348194Y250815D01*
X348580Y251210D01*
X348975Y251596D01*
X349380Y251971D01*
X349794Y252337D01*
X350216Y252693D01*
X350647Y253038D01*
X351087Y253372D01*
X351534Y253696D01*
X351990Y254008D01*
X352453Y254309D01*
X352923Y254599D01*
X353400Y254877D01*
X353884Y255143D01*
X354374Y255398D01*
X354870Y255640D01*
X355372Y255870D01*
X355880Y256087D01*
X356392Y256292D01*
X356910Y256485D01*
X357432Y256664D01*
X357959Y256831D01*
X358489Y256985D01*
X359023Y257126D01*
X359560Y257253D01*
X360100Y257368D01*
X360643Y257469D01*
X361189Y257556D01*
X361736Y257631D01*
X362285Y257692D01*
X362835Y257739D01*
X363386Y257773D01*
X363938Y257793D01*
X364490Y257800D01*
X365042Y257793D01*
X365594Y257773D01*
X366145Y257739D01*
X366695Y257692D01*
X367244Y257631D01*
X367791Y257556D01*
X368337Y257469D01*
X368880Y257368D01*
X369420Y257253D01*
X369957Y257126D01*
X370491Y256985D01*
X371021Y256831D01*
X371548Y256664D01*
X372070Y256485D01*
X372588Y256292D01*
X373100Y256087D01*
X373608Y255870D01*
X374110Y255640D01*
X374606Y255398D01*
X375096Y255143D01*
X375580Y254877D01*
X376057Y254599D01*
X376527Y254309D01*
X376990Y254008D01*
X377446Y253696D01*
X377893Y253372D01*
X378333Y253038D01*
X378764Y252693D01*
X379186Y252337D01*
X379600Y251971D01*
X380005Y251596D01*
X380400Y251210D01*
X380786Y250815D01*
X381161Y250410D01*
X381527Y249996D01*
X381883Y249574D01*
X382228Y249143D01*
X382562Y248703D01*
X382886Y248256D01*
X383198Y247800D01*
X383499Y247337D01*
X383789Y246867D01*
X384067Y246390D01*
X384333Y245906D01*
X384588Y245416D01*
X384830Y244920D01*
X385060Y244418D01*
X385277Y243910D01*
X385482Y243398D01*
X385675Y242880D01*
X385854Y242358D01*
X386021Y241831D01*
X386175Y241301D01*
X386316Y240767D01*
X386443Y240230D01*
X386558Y239690D01*
X386659Y239147D01*
X386746Y238601D01*
X386821Y238054D01*
X386882Y237505D01*
X386929Y236955D01*
X386963Y236404D01*
X386983Y235852D01*
X386990Y235300D01*
X386983Y234748D01*
X386963Y234196D01*
X386929Y233645D01*
X386882Y233095D01*
X386821Y232546D01*
X386746Y231999D01*
X386659Y231453D01*
X386558Y230910D01*
X386443Y230370D01*
X386316Y229833D01*
X386175Y229299D01*
X386021Y228769D01*
X385854Y228242D01*
X385675Y227720D01*
X385482Y227202D01*
X385277Y226690D01*
X385060Y226182D01*
X384830Y225680D01*
X384588Y225184D01*
X384333Y224694D01*
X384067Y224210D01*
X383789Y223733D01*
X383499Y223263D01*
X383198Y222800D01*
X382886Y222344D01*
X382562Y221897D01*
X382228Y221457D01*
X381883Y221026D01*
X381527Y220604D01*
X381161Y220190D01*
X380786Y219785D01*
X380400Y219390D01*
X380005Y219004D01*
X379600Y218629D01*
X379186Y218263D01*
X378764Y217907D01*
X378333Y217562D01*
X377893Y217228D01*
X377446Y216904D01*
X376990Y216592D01*
X376527Y216291D01*
X376057Y216001D01*
X375580Y215723D01*
X375096Y215457D01*
X374606Y215202D01*
X374110Y214960D01*
X373608Y214730D01*
X373100Y214513D01*
X372588Y214308D01*
X372070Y214115D01*
X371548Y213936D01*
X371021Y213769D01*
X370491Y213615D01*
X369957Y213474D01*
X369420Y213347D01*
X368880Y213232D01*
X368337Y213131D01*
X367791Y213044D01*
X367244Y212969D01*
X366695Y212908D01*
X366145Y212861D01*
X365594Y212827D01*
X365042Y212807D01*
X364490Y212800D01*
X363938Y212807D01*
X363386Y212827D01*
X362835Y212861D01*
X362285Y212908D01*
X361736Y212969D01*
X361189Y213044D01*
X360643Y213131D01*
X360100Y213232D01*
X359560Y213347D01*
X359023Y213474D01*
X358489Y213615D01*
X357959Y213769D01*
X357432Y213936D01*
X356910Y214115D01*
X356392Y214308D01*
X355880Y214513D01*
X355372Y214730D01*
X354870Y214960D01*
X354374Y215202D01*
X353884Y215457D01*
X353400Y215723D01*
X352923Y216001D01*
X352453Y216291D01*
X351990Y216592D01*
X351534Y216904D01*
X351087Y217228D01*
X350647Y217562D01*
X350216Y217907D01*
X349794Y218263D01*
X349380Y218629D01*
X348975Y219004D01*
X348580Y219390D01*
X348194Y219785D01*
X347819Y220190D01*
X347453Y220604D01*
X347097Y221026D01*
X346752Y221457D01*
X346418Y221897D01*
X346094Y222344D01*
X345782Y222800D01*
X345481Y223263D01*
X345191Y223733D01*
X344913Y224210D01*
X344647Y224694D01*
X344392Y225184D01*
X344150Y225680D01*
X343920Y226182D01*
X343703Y226690D01*
X343498Y227202D01*
X343305Y227720D01*
X343126Y228242D01*
X342959Y228769D01*
X342805Y229299D01*
X342664Y229833D01*
X342537Y230370D01*
X342422Y230910D01*
X342321Y231453D01*
X342234Y231999D01*
X342159Y232546D01*
X342098Y233095D01*
X342051Y233645D01*
X342017Y234196D01*
X341997Y234748D01*
X341990Y235300D01*
D13*
X384302Y297307D02*
X395478Y293581D01*
X395478Y301032D02*
X384302Y297307D01*
X392684Y300101D02*
X392684Y294513D01*
X395478Y308074D02*
X395478Y310558D01*
X395478Y308074D02*
X395476Y307976D01*
X395470Y307879D01*
X395461Y307782D01*
X395447Y307685D01*
X395430Y307589D01*
X395409Y307494D01*
X395385Y307400D01*
X395356Y307306D01*
X395324Y307214D01*
X395289Y307123D01*
X395250Y307034D01*
X395207Y306946D01*
X395161Y306860D01*
X395112Y306776D01*
X395059Y306694D01*
X395004Y306614D01*
X394945Y306536D01*
X394883Y306461D01*
X394818Y306388D01*
X394750Y306318D01*
X394680Y306250D01*
X394607Y306185D01*
X394532Y306123D01*
X394454Y306064D01*
X394374Y306009D01*
X394292Y305956D01*
X394208Y305907D01*
X394122Y305861D01*
X394034Y305818D01*
X393945Y305779D01*
X393854Y305744D01*
X393762Y305712D01*
X393668Y305683D01*
X393574Y305659D01*
X393479Y305638D01*
X393383Y305621D01*
X393286Y305607D01*
X393189Y305598D01*
X393092Y305592D01*
X392994Y305590D01*
X392994Y305591D02*
X386786Y305591D01*
X386786Y305590D02*
X386688Y305592D01*
X386591Y305598D01*
X386494Y305607D01*
X386397Y305621D01*
X386301Y305638D01*
X386206Y305659D01*
X386112Y305683D01*
X386018Y305712D01*
X385926Y305744D01*
X385835Y305779D01*
X385746Y305818D01*
X385658Y305861D01*
X385572Y305907D01*
X385488Y305956D01*
X385406Y306009D01*
X385326Y306064D01*
X385248Y306123D01*
X385173Y306185D01*
X385100Y306250D01*
X385030Y306318D01*
X384962Y306388D01*
X384897Y306461D01*
X384835Y306536D01*
X384776Y306614D01*
X384721Y306694D01*
X384668Y306776D01*
X384619Y306860D01*
X384573Y306946D01*
X384530Y307034D01*
X384491Y307123D01*
X384456Y307214D01*
X384424Y307306D01*
X384395Y307400D01*
X384371Y307494D01*
X384350Y307589D01*
X384333Y307685D01*
X384319Y307782D01*
X384310Y307879D01*
X384304Y307976D01*
X384302Y308074D01*
X384302Y310558D01*
X383060Y319602D02*
X396720Y314635D01*
X395478Y324682D02*
X384302Y324682D01*
X384302Y327787D01*
X384304Y327895D01*
X384310Y328004D01*
X384319Y328111D01*
X384332Y328219D01*
X384349Y328326D01*
X384370Y328432D01*
X384394Y328538D01*
X384422Y328643D01*
X384454Y328746D01*
X384489Y328849D01*
X384528Y328950D01*
X384570Y329050D01*
X384616Y329148D01*
X384665Y329244D01*
X384718Y329339D01*
X384774Y329432D01*
X384833Y329523D01*
X384895Y329611D01*
X384960Y329698D01*
X385028Y329782D01*
X385099Y329864D01*
X385173Y329943D01*
X385250Y330020D01*
X385329Y330094D01*
X385411Y330165D01*
X385495Y330233D01*
X385582Y330298D01*
X385670Y330360D01*
X385761Y330419D01*
X385854Y330475D01*
X385949Y330528D01*
X386045Y330577D01*
X386144Y330623D01*
X386243Y330665D01*
X386344Y330704D01*
X386447Y330739D01*
X386550Y330771D01*
X386655Y330799D01*
X386761Y330823D01*
X386867Y330844D01*
X386974Y330861D01*
X387082Y330874D01*
X387190Y330883D01*
X387298Y330889D01*
X387406Y330891D01*
X392374Y330891D01*
X392485Y330889D01*
X392595Y330883D01*
X392706Y330873D01*
X392816Y330859D01*
X392925Y330842D01*
X393034Y330820D01*
X393142Y330795D01*
X393248Y330765D01*
X393354Y330732D01*
X393459Y330695D01*
X393562Y330655D01*
X393663Y330610D01*
X393763Y330563D01*
X393862Y330511D01*
X393958Y330456D01*
X394052Y330398D01*
X394144Y330337D01*
X394234Y330272D01*
X394322Y330204D01*
X394407Y330133D01*
X394489Y330059D01*
X394569Y329982D01*
X394646Y329902D01*
X394720Y329820D01*
X394791Y329735D01*
X394859Y329647D01*
X394924Y329557D01*
X394985Y329465D01*
X395043Y329371D01*
X395098Y329275D01*
X395150Y329176D01*
X395197Y329076D01*
X395242Y328975D01*
X395282Y328872D01*
X395319Y328767D01*
X395352Y328661D01*
X395382Y328555D01*
X395407Y328447D01*
X395429Y328338D01*
X395446Y328229D01*
X395460Y328119D01*
X395470Y328008D01*
X395476Y327898D01*
X395478Y327787D01*
X395478Y324682D01*
X395478Y338935D02*
X395478Y341419D01*
X395478Y338935D02*
X395476Y338837D01*
X395470Y338740D01*
X395461Y338643D01*
X395447Y338546D01*
X395430Y338450D01*
X395409Y338355D01*
X395385Y338261D01*
X395356Y338167D01*
X395324Y338075D01*
X395289Y337984D01*
X395250Y337895D01*
X395207Y337807D01*
X395161Y337721D01*
X395112Y337637D01*
X395059Y337555D01*
X395004Y337475D01*
X394945Y337397D01*
X394883Y337322D01*
X394818Y337249D01*
X394750Y337179D01*
X394680Y337111D01*
X394607Y337046D01*
X394532Y336984D01*
X394454Y336925D01*
X394374Y336870D01*
X394292Y336817D01*
X394208Y336768D01*
X394122Y336722D01*
X394034Y336679D01*
X393945Y336640D01*
X393854Y336605D01*
X393762Y336573D01*
X393668Y336544D01*
X393574Y336520D01*
X393479Y336499D01*
X393383Y336482D01*
X393286Y336468D01*
X393189Y336459D01*
X393092Y336453D01*
X392994Y336451D01*
X392994Y336452D02*
X386786Y336452D01*
X386786Y336451D02*
X386688Y336453D01*
X386591Y336459D01*
X386494Y336468D01*
X386397Y336482D01*
X386301Y336499D01*
X386206Y336520D01*
X386112Y336544D01*
X386018Y336573D01*
X385926Y336605D01*
X385835Y336640D01*
X385746Y336679D01*
X385658Y336722D01*
X385572Y336768D01*
X385488Y336817D01*
X385406Y336870D01*
X385326Y336925D01*
X385248Y336984D01*
X385173Y337046D01*
X385100Y337111D01*
X385030Y337179D01*
X384962Y337249D01*
X384897Y337322D01*
X384835Y337397D01*
X384776Y337475D01*
X384721Y337555D01*
X384668Y337637D01*
X384619Y337721D01*
X384573Y337807D01*
X384530Y337895D01*
X384491Y337984D01*
X384456Y338075D01*
X384424Y338167D01*
X384395Y338261D01*
X384371Y338355D01*
X384350Y338450D01*
X384333Y338546D01*
X384319Y338643D01*
X384310Y338740D01*
X384304Y338837D01*
X384302Y338935D01*
X384302Y341419D01*
D11*
X85020Y305820D02*
X85020Y115820D01*
X235020Y115820D02*
X235020Y305820D01*
X235020Y115820D02*
X85020Y115820D01*
X85020Y305820D02*
X235020Y305820D01*
D13*
X92127Y104728D02*
X92127Y93552D01*
X92127Y97898D02*
X98336Y104728D01*
X94610Y100382D02*
X98336Y93552D01*
X102964Y102244D02*
X106069Y104728D01*
X106069Y93552D01*
X109173Y93552D02*
X102964Y93552D01*
D20*
X263739Y115570D02*
X263739Y122682D01*
X265714Y122682D02*
X261763Y122682D01*
X268591Y121102D02*
X270566Y122682D01*
X270566Y115570D01*
X268591Y115570D02*
X272542Y115570D01*
X304516Y79502D02*
X304516Y72390D01*
X304516Y79502D02*
X306492Y79502D01*
X306579Y79500D01*
X306667Y79494D01*
X306754Y79485D01*
X306840Y79471D01*
X306926Y79454D01*
X307010Y79433D01*
X307094Y79408D01*
X307177Y79379D01*
X307258Y79347D01*
X307338Y79312D01*
X307416Y79273D01*
X307493Y79230D01*
X307567Y79184D01*
X307639Y79135D01*
X307709Y79083D01*
X307777Y79027D01*
X307842Y78969D01*
X307905Y78908D01*
X307964Y78844D01*
X308021Y78777D01*
X308075Y78709D01*
X308126Y78637D01*
X308173Y78564D01*
X308218Y78489D01*
X308259Y78411D01*
X308296Y78332D01*
X308330Y78252D01*
X308360Y78170D01*
X308387Y78087D01*
X308410Y78002D01*
X308429Y77917D01*
X308444Y77831D01*
X308456Y77744D01*
X308464Y77657D01*
X308468Y77570D01*
X308468Y77482D01*
X308464Y77395D01*
X308456Y77308D01*
X308444Y77221D01*
X308429Y77135D01*
X308410Y77050D01*
X308387Y76965D01*
X308360Y76882D01*
X308330Y76800D01*
X308296Y76720D01*
X308259Y76641D01*
X308218Y76563D01*
X308173Y76488D01*
X308126Y76415D01*
X308075Y76343D01*
X308021Y76275D01*
X307964Y76208D01*
X307905Y76144D01*
X307842Y76083D01*
X307777Y76025D01*
X307709Y75969D01*
X307639Y75917D01*
X307567Y75868D01*
X307493Y75822D01*
X307416Y75779D01*
X307338Y75740D01*
X307258Y75705D01*
X307177Y75673D01*
X307094Y75644D01*
X307010Y75619D01*
X306926Y75598D01*
X306840Y75581D01*
X306754Y75567D01*
X306667Y75558D01*
X306579Y75552D01*
X306492Y75550D01*
X306492Y75551D02*
X304516Y75551D01*
X306887Y75551D02*
X308467Y72390D01*
X313944Y79502D02*
X314026Y79500D01*
X314108Y79494D01*
X314190Y79485D01*
X314271Y79472D01*
X314351Y79455D01*
X314431Y79434D01*
X314509Y79410D01*
X314586Y79382D01*
X314662Y79351D01*
X314737Y79316D01*
X314809Y79277D01*
X314880Y79236D01*
X314949Y79191D01*
X315015Y79143D01*
X315080Y79092D01*
X315142Y79038D01*
X315201Y78981D01*
X315258Y78922D01*
X315312Y78860D01*
X315363Y78795D01*
X315411Y78729D01*
X315456Y78660D01*
X315497Y78589D01*
X315536Y78517D01*
X315571Y78442D01*
X315602Y78366D01*
X315630Y78289D01*
X315654Y78211D01*
X315675Y78131D01*
X315692Y78051D01*
X315705Y77970D01*
X315714Y77888D01*
X315720Y77806D01*
X315722Y77724D01*
X313944Y79502D02*
X313851Y79500D01*
X313759Y79494D01*
X313667Y79485D01*
X313575Y79472D01*
X313484Y79455D01*
X313394Y79435D01*
X313304Y79411D01*
X313216Y79383D01*
X313128Y79351D01*
X313043Y79317D01*
X312958Y79278D01*
X312876Y79237D01*
X312795Y79192D01*
X312715Y79143D01*
X312638Y79092D01*
X312563Y79038D01*
X312491Y78980D01*
X312421Y78920D01*
X312353Y78856D01*
X312288Y78791D01*
X312225Y78722D01*
X312166Y78651D01*
X312109Y78578D01*
X312055Y78502D01*
X312005Y78425D01*
X311957Y78345D01*
X311913Y78264D01*
X311873Y78180D01*
X311835Y78096D01*
X311801Y78009D01*
X311771Y77922D01*
X315129Y76341D02*
X315190Y76402D01*
X315248Y76465D01*
X315303Y76531D01*
X315356Y76599D01*
X315405Y76670D01*
X315450Y76742D01*
X315493Y76817D01*
X315532Y76893D01*
X315568Y76972D01*
X315600Y77051D01*
X315628Y77132D01*
X315653Y77215D01*
X315674Y77298D01*
X315691Y77382D01*
X315705Y77467D01*
X315714Y77552D01*
X315720Y77638D01*
X315722Y77724D01*
X315129Y76341D02*
X311771Y72390D01*
X315722Y72390D01*
D13*
X371475Y41275D02*
X371475Y36195D01*
X371475Y41275D02*
X366395Y41275D01*
X351155Y41275D02*
X346075Y41275D01*
X346075Y36195D01*
X346075Y20955D02*
X346075Y15875D01*
X351155Y15875D01*
X366395Y15875D02*
X371475Y15875D01*
X371475Y20955D01*
X332839Y47117D02*
X332839Y58293D01*
X331597Y47117D02*
X334081Y47117D01*
X334081Y58293D02*
X331597Y58293D01*
X339259Y58293D02*
X339259Y47117D01*
X345468Y47117D02*
X339259Y58293D01*
X345468Y58293D02*
X345468Y47117D01*
X351070Y55809D02*
X354175Y58293D01*
X354175Y47117D01*
X357279Y47117D02*
X351070Y47117D01*
X516255Y41275D02*
X516255Y36195D01*
X516255Y41275D02*
X511175Y41275D01*
X495935Y41275D02*
X490855Y41275D01*
X490855Y36195D01*
X490855Y20955D02*
X490855Y15875D01*
X495935Y15875D01*
X511175Y15875D02*
X516255Y15875D01*
X516255Y20955D01*
X481288Y48923D02*
X473837Y48923D01*
X477562Y45198D02*
X477562Y52649D01*
X489133Y49544D02*
X492859Y49544D01*
X489133Y49544D02*
X489035Y49546D01*
X488938Y49552D01*
X488841Y49561D01*
X488744Y49575D01*
X488648Y49592D01*
X488553Y49613D01*
X488459Y49637D01*
X488365Y49666D01*
X488273Y49698D01*
X488182Y49733D01*
X488093Y49772D01*
X488005Y49815D01*
X487919Y49861D01*
X487835Y49910D01*
X487753Y49963D01*
X487673Y50018D01*
X487595Y50077D01*
X487520Y50139D01*
X487447Y50204D01*
X487377Y50272D01*
X487309Y50342D01*
X487244Y50415D01*
X487182Y50490D01*
X487123Y50568D01*
X487068Y50648D01*
X487015Y50730D01*
X486966Y50814D01*
X486920Y50900D01*
X486877Y50988D01*
X486838Y51077D01*
X486803Y51168D01*
X486771Y51260D01*
X486742Y51354D01*
X486718Y51448D01*
X486697Y51543D01*
X486680Y51639D01*
X486666Y51736D01*
X486657Y51833D01*
X486651Y51930D01*
X486649Y52028D01*
X486650Y52028D02*
X486650Y52649D01*
X486652Y52760D01*
X486658Y52870D01*
X486668Y52981D01*
X486682Y53091D01*
X486699Y53200D01*
X486721Y53309D01*
X486746Y53417D01*
X486776Y53523D01*
X486809Y53629D01*
X486846Y53734D01*
X486886Y53837D01*
X486931Y53938D01*
X486978Y54038D01*
X487030Y54137D01*
X487085Y54233D01*
X487143Y54327D01*
X487204Y54419D01*
X487269Y54509D01*
X487337Y54597D01*
X487408Y54682D01*
X487482Y54764D01*
X487559Y54844D01*
X487639Y54921D01*
X487721Y54995D01*
X487806Y55066D01*
X487894Y55134D01*
X487984Y55199D01*
X488076Y55260D01*
X488170Y55318D01*
X488266Y55373D01*
X488365Y55425D01*
X488465Y55472D01*
X488566Y55517D01*
X488669Y55557D01*
X488774Y55594D01*
X488880Y55627D01*
X488986Y55657D01*
X489094Y55682D01*
X489203Y55704D01*
X489312Y55721D01*
X489422Y55735D01*
X489533Y55745D01*
X489643Y55751D01*
X489754Y55753D01*
X489865Y55751D01*
X489975Y55745D01*
X490086Y55735D01*
X490196Y55721D01*
X490305Y55704D01*
X490414Y55682D01*
X490522Y55657D01*
X490628Y55627D01*
X490734Y55594D01*
X490839Y55557D01*
X490942Y55517D01*
X491043Y55472D01*
X491143Y55425D01*
X491242Y55373D01*
X491338Y55318D01*
X491432Y55260D01*
X491524Y55199D01*
X491614Y55134D01*
X491702Y55066D01*
X491787Y54995D01*
X491869Y54921D01*
X491949Y54844D01*
X492026Y54764D01*
X492100Y54682D01*
X492171Y54597D01*
X492239Y54509D01*
X492304Y54419D01*
X492365Y54327D01*
X492423Y54233D01*
X492478Y54137D01*
X492530Y54038D01*
X492577Y53938D01*
X492622Y53837D01*
X492662Y53734D01*
X492699Y53629D01*
X492732Y53523D01*
X492762Y53417D01*
X492787Y53309D01*
X492809Y53200D01*
X492826Y53091D01*
X492840Y52981D01*
X492850Y52870D01*
X492856Y52760D01*
X492858Y52649D01*
X492859Y52649D02*
X492859Y49544D01*
X492857Y49405D01*
X492851Y49265D01*
X492841Y49127D01*
X492828Y48988D01*
X492810Y48850D01*
X492789Y48712D01*
X492764Y48575D01*
X492734Y48439D01*
X492702Y48303D01*
X492665Y48169D01*
X492624Y48036D01*
X492580Y47903D01*
X492532Y47773D01*
X492481Y47643D01*
X492426Y47515D01*
X492367Y47389D01*
X492305Y47264D01*
X492239Y47141D01*
X492170Y47020D01*
X492098Y46901D01*
X492022Y46784D01*
X491943Y46670D01*
X491861Y46557D01*
X491775Y46447D01*
X491687Y46339D01*
X491596Y46234D01*
X491501Y46132D01*
X491404Y46032D01*
X491304Y45935D01*
X491202Y45840D01*
X491097Y45749D01*
X490989Y45661D01*
X490879Y45575D01*
X490766Y45493D01*
X490652Y45414D01*
X490535Y45338D01*
X490416Y45266D01*
X490295Y45197D01*
X490172Y45131D01*
X490047Y45069D01*
X489921Y45010D01*
X489793Y44955D01*
X489663Y44904D01*
X489532Y44856D01*
X489400Y44812D01*
X489267Y44771D01*
X489133Y44734D01*
X488997Y44702D01*
X488861Y44672D01*
X488724Y44647D01*
X488586Y44626D01*
X488448Y44608D01*
X488309Y44595D01*
X488170Y44585D01*
X488031Y44579D01*
X487892Y44577D01*
X501184Y44577D02*
X497459Y55753D01*
X504910Y55753D02*
X501184Y44577D01*
X447675Y41275D02*
X447675Y36195D01*
X447675Y41275D02*
X442595Y41275D01*
X427355Y41275D02*
X422275Y41275D01*
X422275Y36195D01*
X422275Y20955D02*
X422275Y15875D01*
X427355Y15875D01*
X442595Y15875D02*
X447675Y15875D01*
X447675Y20955D01*
X414006Y50786D02*
X412143Y50786D01*
X414006Y50786D02*
X414006Y44577D01*
X410281Y44577D01*
X410183Y44579D01*
X410086Y44585D01*
X409989Y44594D01*
X409892Y44608D01*
X409796Y44625D01*
X409701Y44646D01*
X409607Y44670D01*
X409513Y44699D01*
X409421Y44731D01*
X409330Y44766D01*
X409241Y44805D01*
X409153Y44848D01*
X409067Y44894D01*
X408983Y44943D01*
X408901Y44996D01*
X408821Y45051D01*
X408743Y45110D01*
X408668Y45172D01*
X408595Y45237D01*
X408525Y45305D01*
X408457Y45375D01*
X408392Y45448D01*
X408330Y45523D01*
X408271Y45601D01*
X408216Y45681D01*
X408163Y45763D01*
X408114Y45847D01*
X408068Y45933D01*
X408025Y46021D01*
X407986Y46110D01*
X407951Y46201D01*
X407919Y46293D01*
X407890Y46387D01*
X407866Y46481D01*
X407845Y46576D01*
X407828Y46672D01*
X407814Y46769D01*
X407805Y46866D01*
X407799Y46963D01*
X407797Y47061D01*
X407797Y53269D01*
X407799Y53367D01*
X407805Y53464D01*
X407814Y53561D01*
X407828Y53658D01*
X407845Y53754D01*
X407866Y53849D01*
X407890Y53943D01*
X407919Y54037D01*
X407951Y54129D01*
X407986Y54220D01*
X408025Y54309D01*
X408068Y54397D01*
X408114Y54483D01*
X408163Y54567D01*
X408216Y54649D01*
X408271Y54729D01*
X408330Y54807D01*
X408392Y54882D01*
X408457Y54955D01*
X408525Y55025D01*
X408595Y55093D01*
X408668Y55158D01*
X408743Y55220D01*
X408821Y55279D01*
X408901Y55334D01*
X408983Y55387D01*
X409067Y55436D01*
X409153Y55482D01*
X409241Y55525D01*
X409330Y55564D01*
X409421Y55599D01*
X409513Y55631D01*
X409607Y55660D01*
X409701Y55684D01*
X409796Y55705D01*
X409892Y55722D01*
X409989Y55736D01*
X410086Y55745D01*
X410183Y55751D01*
X410281Y55753D01*
X414006Y55753D01*
X419989Y55753D02*
X419989Y44577D01*
X426198Y44577D02*
X419989Y55753D01*
X426198Y55753D02*
X426198Y44577D01*
X432181Y44577D02*
X432181Y55753D01*
X435285Y55753D01*
X435396Y55751D01*
X435506Y55745D01*
X435617Y55735D01*
X435727Y55721D01*
X435836Y55704D01*
X435945Y55682D01*
X436053Y55657D01*
X436159Y55627D01*
X436265Y55594D01*
X436370Y55557D01*
X436473Y55517D01*
X436574Y55472D01*
X436674Y55425D01*
X436773Y55373D01*
X436869Y55318D01*
X436963Y55260D01*
X437055Y55199D01*
X437145Y55134D01*
X437233Y55066D01*
X437318Y54995D01*
X437400Y54921D01*
X437480Y54844D01*
X437557Y54764D01*
X437631Y54682D01*
X437702Y54597D01*
X437770Y54509D01*
X437835Y54419D01*
X437896Y54327D01*
X437954Y54233D01*
X438009Y54137D01*
X438061Y54038D01*
X438108Y53938D01*
X438153Y53837D01*
X438193Y53734D01*
X438230Y53629D01*
X438263Y53523D01*
X438293Y53417D01*
X438318Y53309D01*
X438340Y53200D01*
X438357Y53091D01*
X438371Y52981D01*
X438381Y52870D01*
X438387Y52760D01*
X438389Y52649D01*
X438390Y52649D02*
X438390Y47681D01*
X438389Y47681D02*
X438387Y47570D01*
X438381Y47460D01*
X438371Y47349D01*
X438357Y47239D01*
X438340Y47130D01*
X438318Y47021D01*
X438293Y46913D01*
X438263Y46807D01*
X438230Y46701D01*
X438193Y46596D01*
X438153Y46493D01*
X438108Y46392D01*
X438061Y46292D01*
X438009Y46193D01*
X437954Y46097D01*
X437896Y46003D01*
X437835Y45911D01*
X437770Y45821D01*
X437702Y45733D01*
X437631Y45648D01*
X437557Y45566D01*
X437480Y45486D01*
X437400Y45409D01*
X437318Y45335D01*
X437233Y45264D01*
X437145Y45196D01*
X437055Y45131D01*
X436963Y45070D01*
X436869Y45012D01*
X436773Y44957D01*
X436674Y44905D01*
X436574Y44858D01*
X436473Y44813D01*
X436370Y44773D01*
X436265Y44736D01*
X436159Y44703D01*
X436053Y44673D01*
X435945Y44648D01*
X435836Y44626D01*
X435727Y44609D01*
X435617Y44595D01*
X435506Y44585D01*
X435396Y44579D01*
X435285Y44577D01*
X432181Y44577D01*
X152400Y67310D02*
X152400Y71120D01*
X152400Y67310D02*
X148590Y67310D01*
X152400Y67310D02*
X152400Y63500D01*
X152400Y67310D02*
X156210Y67310D01*
X111760Y50800D02*
X111768Y51486D01*
X111794Y52171D01*
X111836Y52855D01*
X111895Y53539D01*
X111970Y54220D01*
X112062Y54900D01*
X112171Y55577D01*
X112297Y56251D01*
X112439Y56922D01*
X112597Y57589D01*
X112772Y58252D01*
X112963Y58911D01*
X113170Y59564D01*
X113393Y60213D01*
X113632Y60855D01*
X113887Y61492D01*
X114157Y62122D01*
X114443Y62746D01*
X114743Y63362D01*
X115059Y63971D01*
X115390Y64572D01*
X115735Y65164D01*
X116095Y65748D01*
X116469Y66323D01*
X116857Y66888D01*
X117258Y67444D01*
X117674Y67990D01*
X118102Y68525D01*
X118544Y69050D01*
X118998Y69563D01*
X119465Y70066D01*
X119943Y70557D01*
X120434Y71035D01*
X120937Y71502D01*
X121450Y71956D01*
X121975Y72398D01*
X122510Y72826D01*
X123056Y73242D01*
X123612Y73643D01*
X124177Y74031D01*
X124752Y74405D01*
X125336Y74765D01*
X125928Y75110D01*
X126529Y75441D01*
X127138Y75757D01*
X127754Y76057D01*
X128378Y76343D01*
X129008Y76613D01*
X129645Y76868D01*
X130287Y77107D01*
X130936Y77330D01*
X131589Y77537D01*
X132248Y77728D01*
X132911Y77903D01*
X133578Y78061D01*
X134249Y78203D01*
X134923Y78329D01*
X135600Y78438D01*
X136280Y78530D01*
X136961Y78605D01*
X137645Y78664D01*
X138329Y78706D01*
X139014Y78732D01*
X139700Y78740D01*
X140386Y78732D01*
X141071Y78706D01*
X141755Y78664D01*
X142439Y78605D01*
X143120Y78530D01*
X143800Y78438D01*
X144477Y78329D01*
X145151Y78203D01*
X145822Y78061D01*
X146489Y77903D01*
X147152Y77728D01*
X147811Y77537D01*
X148464Y77330D01*
X149113Y77107D01*
X149755Y76868D01*
X150392Y76613D01*
X151022Y76343D01*
X151646Y76057D01*
X152262Y75757D01*
X152871Y75441D01*
X153472Y75110D01*
X154064Y74765D01*
X154648Y74405D01*
X155223Y74031D01*
X155788Y73643D01*
X156344Y73242D01*
X156890Y72826D01*
X157425Y72398D01*
X157950Y71956D01*
X158463Y71502D01*
X158966Y71035D01*
X159457Y70557D01*
X159935Y70066D01*
X160402Y69563D01*
X160856Y69050D01*
X161298Y68525D01*
X161726Y67990D01*
X162142Y67444D01*
X162543Y66888D01*
X162931Y66323D01*
X163305Y65748D01*
X163665Y65164D01*
X164010Y64572D01*
X164341Y63971D01*
X164657Y63362D01*
X164957Y62746D01*
X165243Y62122D01*
X165513Y61492D01*
X165768Y60855D01*
X166007Y60213D01*
X166230Y59564D01*
X166437Y58911D01*
X166628Y58252D01*
X166803Y57589D01*
X166961Y56922D01*
X167103Y56251D01*
X167229Y55577D01*
X167338Y54900D01*
X167430Y54220D01*
X167505Y53539D01*
X167564Y52855D01*
X167606Y52171D01*
X167632Y51486D01*
X167640Y50800D01*
X167632Y50114D01*
X167606Y49429D01*
X167564Y48745D01*
X167505Y48061D01*
X167430Y47380D01*
X167338Y46700D01*
X167229Y46023D01*
X167103Y45349D01*
X166961Y44678D01*
X166803Y44011D01*
X166628Y43348D01*
X166437Y42689D01*
X166230Y42036D01*
X166007Y41387D01*
X165768Y40745D01*
X165513Y40108D01*
X165243Y39478D01*
X164957Y38854D01*
X164657Y38238D01*
X164341Y37629D01*
X164010Y37028D01*
X163665Y36436D01*
X163305Y35852D01*
X162931Y35277D01*
X162543Y34712D01*
X162142Y34156D01*
X161726Y33610D01*
X161298Y33075D01*
X160856Y32550D01*
X160402Y32037D01*
X159935Y31534D01*
X159457Y31043D01*
X158966Y30565D01*
X158463Y30098D01*
X157950Y29644D01*
X157425Y29202D01*
X156890Y28774D01*
X156344Y28358D01*
X155788Y27957D01*
X155223Y27569D01*
X154648Y27195D01*
X154064Y26835D01*
X153472Y26490D01*
X152871Y26159D01*
X152262Y25843D01*
X151646Y25543D01*
X151022Y25257D01*
X150392Y24987D01*
X149755Y24732D01*
X149113Y24493D01*
X148464Y24270D01*
X147811Y24063D01*
X147152Y23872D01*
X146489Y23697D01*
X145822Y23539D01*
X145151Y23397D01*
X144477Y23271D01*
X143800Y23162D01*
X143120Y23070D01*
X142439Y22995D01*
X141755Y22936D01*
X141071Y22894D01*
X140386Y22868D01*
X139700Y22860D01*
X139014Y22868D01*
X138329Y22894D01*
X137645Y22936D01*
X136961Y22995D01*
X136280Y23070D01*
X135600Y23162D01*
X134923Y23271D01*
X134249Y23397D01*
X133578Y23539D01*
X132911Y23697D01*
X132248Y23872D01*
X131589Y24063D01*
X130936Y24270D01*
X130287Y24493D01*
X129645Y24732D01*
X129008Y24987D01*
X128378Y25257D01*
X127754Y25543D01*
X127138Y25843D01*
X126529Y26159D01*
X125928Y26490D01*
X125336Y26835D01*
X124752Y27195D01*
X124177Y27569D01*
X123612Y27957D01*
X123056Y28358D01*
X122510Y28774D01*
X121975Y29202D01*
X121450Y29644D01*
X120937Y30098D01*
X120434Y30565D01*
X119943Y31043D01*
X119465Y31534D01*
X118998Y32037D01*
X118544Y32550D01*
X118102Y33075D01*
X117674Y33610D01*
X117258Y34156D01*
X116857Y34712D01*
X116469Y35277D01*
X116095Y35852D01*
X115735Y36436D01*
X115390Y37028D01*
X115059Y37629D01*
X114743Y38238D01*
X114443Y38854D01*
X114157Y39478D01*
X113887Y40108D01*
X113632Y40745D01*
X113393Y41387D01*
X113170Y42036D01*
X112963Y42689D01*
X112772Y43348D01*
X112597Y44011D01*
X112439Y44678D01*
X112297Y45349D01*
X112171Y46023D01*
X112062Y46700D01*
X111970Y47380D01*
X111895Y48061D01*
X111836Y48745D01*
X111794Y49429D01*
X111768Y50114D01*
X111760Y50800D01*
X168981Y66802D02*
X171464Y66802D01*
X168981Y66802D02*
X168883Y66804D01*
X168786Y66810D01*
X168689Y66819D01*
X168592Y66833D01*
X168496Y66850D01*
X168401Y66871D01*
X168307Y66895D01*
X168213Y66924D01*
X168121Y66956D01*
X168030Y66991D01*
X167941Y67030D01*
X167853Y67073D01*
X167767Y67119D01*
X167683Y67168D01*
X167601Y67221D01*
X167521Y67276D01*
X167443Y67335D01*
X167368Y67397D01*
X167295Y67462D01*
X167225Y67530D01*
X167157Y67600D01*
X167092Y67673D01*
X167030Y67748D01*
X166971Y67826D01*
X166916Y67906D01*
X166863Y67988D01*
X166814Y68072D01*
X166768Y68158D01*
X166725Y68246D01*
X166686Y68335D01*
X166651Y68426D01*
X166619Y68518D01*
X166590Y68612D01*
X166566Y68706D01*
X166545Y68801D01*
X166528Y68897D01*
X166514Y68994D01*
X166505Y69091D01*
X166499Y69188D01*
X166497Y69286D01*
X166497Y75494D01*
X166499Y75592D01*
X166505Y75689D01*
X166514Y75786D01*
X166528Y75883D01*
X166545Y75979D01*
X166566Y76074D01*
X166590Y76168D01*
X166619Y76262D01*
X166651Y76354D01*
X166686Y76445D01*
X166725Y76534D01*
X166768Y76622D01*
X166814Y76708D01*
X166863Y76792D01*
X166916Y76874D01*
X166971Y76954D01*
X167030Y77032D01*
X167092Y77107D01*
X167157Y77180D01*
X167225Y77250D01*
X167295Y77318D01*
X167368Y77383D01*
X167443Y77445D01*
X167521Y77504D01*
X167601Y77559D01*
X167683Y77612D01*
X167767Y77661D01*
X167853Y77707D01*
X167941Y77750D01*
X168030Y77789D01*
X168121Y77824D01*
X168213Y77856D01*
X168307Y77885D01*
X168401Y77909D01*
X168496Y77930D01*
X168592Y77947D01*
X168689Y77961D01*
X168786Y77970D01*
X168883Y77976D01*
X168981Y77978D01*
X171464Y77978D01*
X179478Y77978D02*
X179582Y77976D01*
X179687Y77970D01*
X179791Y77960D01*
X179894Y77947D01*
X179997Y77929D01*
X180100Y77908D01*
X180201Y77883D01*
X180302Y77854D01*
X180401Y77821D01*
X180499Y77785D01*
X180595Y77745D01*
X180690Y77701D01*
X180784Y77654D01*
X180875Y77604D01*
X180964Y77550D01*
X181052Y77493D01*
X181137Y77432D01*
X181220Y77368D01*
X181300Y77302D01*
X181378Y77232D01*
X181454Y77160D01*
X181526Y77084D01*
X181596Y77006D01*
X181662Y76926D01*
X181726Y76843D01*
X181787Y76758D01*
X181844Y76670D01*
X181898Y76581D01*
X181948Y76490D01*
X181995Y76396D01*
X182039Y76301D01*
X182079Y76205D01*
X182115Y76107D01*
X182148Y76008D01*
X182177Y75907D01*
X182202Y75806D01*
X182223Y75703D01*
X182241Y75600D01*
X182254Y75497D01*
X182264Y75393D01*
X182270Y75288D01*
X182272Y75184D01*
X179478Y77979D02*
X179359Y77977D01*
X179241Y77971D01*
X179122Y77961D01*
X179004Y77948D01*
X178887Y77930D01*
X178770Y77908D01*
X178654Y77883D01*
X178539Y77854D01*
X178424Y77821D01*
X178311Y77784D01*
X178200Y77744D01*
X178089Y77700D01*
X177981Y77652D01*
X177874Y77601D01*
X177768Y77546D01*
X177665Y77487D01*
X177563Y77426D01*
X177464Y77361D01*
X177366Y77292D01*
X177272Y77221D01*
X177179Y77146D01*
X177089Y77069D01*
X177002Y76988D01*
X176917Y76905D01*
X176835Y76819D01*
X176756Y76730D01*
X176680Y76639D01*
X176607Y76545D01*
X176538Y76449D01*
X176471Y76350D01*
X176408Y76250D01*
X176348Y76147D01*
X176291Y76043D01*
X176239Y75936D01*
X176189Y75828D01*
X176143Y75719D01*
X176101Y75607D01*
X176063Y75495D01*
X181341Y73011D02*
X181416Y73085D01*
X181488Y73162D01*
X181558Y73241D01*
X181625Y73323D01*
X181689Y73407D01*
X181750Y73493D01*
X181808Y73581D01*
X181863Y73672D01*
X181915Y73764D01*
X181963Y73858D01*
X182008Y73953D01*
X182050Y74051D01*
X182088Y74149D01*
X182123Y74249D01*
X182154Y74350D01*
X182181Y74452D01*
X182205Y74555D01*
X182226Y74658D01*
X182242Y74763D01*
X182255Y74868D01*
X182265Y74973D01*
X182270Y75078D01*
X182272Y75184D01*
X181341Y73011D02*
X176064Y66802D01*
X182272Y66802D01*
D20*
X418013Y86868D02*
X419594Y86868D01*
X418013Y86868D02*
X417935Y86870D01*
X417858Y86876D01*
X417781Y86885D01*
X417705Y86898D01*
X417629Y86915D01*
X417554Y86936D01*
X417481Y86960D01*
X417408Y86988D01*
X417337Y87020D01*
X417268Y87055D01*
X417201Y87093D01*
X417135Y87134D01*
X417072Y87179D01*
X417011Y87227D01*
X416952Y87277D01*
X416896Y87331D01*
X416842Y87387D01*
X416792Y87446D01*
X416744Y87507D01*
X416699Y87570D01*
X416658Y87636D01*
X416620Y87703D01*
X416585Y87772D01*
X416553Y87843D01*
X416525Y87916D01*
X416501Y87989D01*
X416480Y88064D01*
X416463Y88140D01*
X416450Y88216D01*
X416441Y88293D01*
X416435Y88370D01*
X416433Y88448D01*
X416433Y92400D01*
X416435Y92478D01*
X416441Y92555D01*
X416450Y92632D01*
X416463Y92708D01*
X416480Y92784D01*
X416501Y92859D01*
X416525Y92932D01*
X416553Y93005D01*
X416585Y93076D01*
X416620Y93145D01*
X416658Y93212D01*
X416699Y93278D01*
X416744Y93341D01*
X416792Y93402D01*
X416842Y93461D01*
X416896Y93517D01*
X416952Y93571D01*
X417011Y93621D01*
X417072Y93669D01*
X417135Y93714D01*
X417201Y93755D01*
X417268Y93793D01*
X417337Y93828D01*
X417408Y93860D01*
X417481Y93888D01*
X417554Y93912D01*
X417629Y93933D01*
X417705Y93950D01*
X417781Y93963D01*
X417858Y93972D01*
X417935Y93978D01*
X418013Y93980D01*
X419594Y93980D01*
X422556Y86868D02*
X424532Y86868D01*
X424619Y86870D01*
X424707Y86876D01*
X424794Y86885D01*
X424880Y86899D01*
X424966Y86916D01*
X425050Y86937D01*
X425134Y86962D01*
X425217Y86991D01*
X425298Y87023D01*
X425378Y87058D01*
X425456Y87097D01*
X425533Y87140D01*
X425607Y87186D01*
X425679Y87235D01*
X425749Y87287D01*
X425817Y87343D01*
X425882Y87401D01*
X425945Y87462D01*
X426004Y87526D01*
X426061Y87593D01*
X426115Y87661D01*
X426166Y87733D01*
X426213Y87806D01*
X426258Y87881D01*
X426299Y87959D01*
X426336Y88038D01*
X426370Y88118D01*
X426400Y88200D01*
X426427Y88283D01*
X426450Y88368D01*
X426469Y88453D01*
X426484Y88539D01*
X426496Y88626D01*
X426504Y88713D01*
X426508Y88800D01*
X426508Y88888D01*
X426504Y88975D01*
X426496Y89062D01*
X426484Y89149D01*
X426469Y89235D01*
X426450Y89320D01*
X426427Y89405D01*
X426400Y89488D01*
X426370Y89570D01*
X426336Y89650D01*
X426299Y89729D01*
X426258Y89807D01*
X426213Y89882D01*
X426166Y89955D01*
X426115Y90027D01*
X426061Y90095D01*
X426004Y90162D01*
X425945Y90226D01*
X425882Y90287D01*
X425817Y90345D01*
X425749Y90401D01*
X425679Y90453D01*
X425607Y90502D01*
X425533Y90548D01*
X425456Y90591D01*
X425378Y90630D01*
X425298Y90665D01*
X425217Y90697D01*
X425134Y90726D01*
X425050Y90751D01*
X424966Y90772D01*
X424880Y90789D01*
X424794Y90803D01*
X424707Y90812D01*
X424619Y90818D01*
X424532Y90820D01*
X424927Y93980D02*
X422556Y93980D01*
X424927Y93980D02*
X425006Y93978D01*
X425084Y93972D01*
X425162Y93962D01*
X425240Y93949D01*
X425317Y93931D01*
X425393Y93910D01*
X425467Y93885D01*
X425541Y93856D01*
X425613Y93824D01*
X425683Y93788D01*
X425751Y93748D01*
X425817Y93705D01*
X425881Y93659D01*
X425943Y93610D01*
X426002Y93558D01*
X426058Y93503D01*
X426112Y93445D01*
X426162Y93385D01*
X426210Y93322D01*
X426254Y93257D01*
X426295Y93190D01*
X426333Y93121D01*
X426367Y93050D01*
X426398Y92977D01*
X426425Y92903D01*
X426448Y92828D01*
X426467Y92752D01*
X426483Y92674D01*
X426495Y92596D01*
X426503Y92518D01*
X426507Y92439D01*
X426507Y92361D01*
X426503Y92282D01*
X426495Y92204D01*
X426483Y92126D01*
X426467Y92048D01*
X426448Y91972D01*
X426425Y91897D01*
X426398Y91823D01*
X426367Y91750D01*
X426333Y91679D01*
X426295Y91610D01*
X426254Y91543D01*
X426210Y91478D01*
X426162Y91415D01*
X426112Y91355D01*
X426058Y91297D01*
X426002Y91242D01*
X425943Y91190D01*
X425881Y91141D01*
X425817Y91095D01*
X425751Y91052D01*
X425683Y91012D01*
X425613Y90976D01*
X425541Y90944D01*
X425467Y90915D01*
X425393Y90890D01*
X425317Y90869D01*
X425240Y90851D01*
X425162Y90838D01*
X425084Y90828D01*
X425006Y90822D01*
X424927Y90820D01*
X424927Y90819D02*
X423346Y90819D01*
X368808Y87503D02*
X368808Y94615D01*
X370784Y94615D01*
X370871Y94613D01*
X370959Y94607D01*
X371046Y94598D01*
X371132Y94584D01*
X371218Y94567D01*
X371302Y94546D01*
X371386Y94521D01*
X371469Y94492D01*
X371550Y94460D01*
X371630Y94425D01*
X371708Y94386D01*
X371785Y94343D01*
X371859Y94297D01*
X371931Y94248D01*
X372001Y94196D01*
X372069Y94140D01*
X372134Y94082D01*
X372197Y94021D01*
X372256Y93957D01*
X372313Y93890D01*
X372367Y93822D01*
X372418Y93750D01*
X372465Y93677D01*
X372510Y93602D01*
X372551Y93524D01*
X372588Y93445D01*
X372622Y93365D01*
X372652Y93283D01*
X372679Y93200D01*
X372702Y93115D01*
X372721Y93030D01*
X372736Y92944D01*
X372748Y92857D01*
X372756Y92770D01*
X372760Y92683D01*
X372760Y92595D01*
X372756Y92508D01*
X372748Y92421D01*
X372736Y92334D01*
X372721Y92248D01*
X372702Y92163D01*
X372679Y92078D01*
X372652Y91995D01*
X372622Y91913D01*
X372588Y91833D01*
X372551Y91754D01*
X372510Y91676D01*
X372465Y91601D01*
X372418Y91528D01*
X372367Y91456D01*
X372313Y91388D01*
X372256Y91321D01*
X372197Y91257D01*
X372134Y91196D01*
X372069Y91138D01*
X372001Y91082D01*
X371931Y91030D01*
X371859Y90981D01*
X371785Y90935D01*
X371708Y90892D01*
X371630Y90853D01*
X371550Y90818D01*
X371469Y90786D01*
X371386Y90757D01*
X371302Y90732D01*
X371218Y90711D01*
X371132Y90694D01*
X371046Y90680D01*
X370959Y90671D01*
X370871Y90665D01*
X370784Y90663D01*
X370784Y90664D02*
X368808Y90664D01*
X371179Y90664D02*
X372759Y87503D01*
X376063Y87503D02*
X378038Y87503D01*
X378125Y87505D01*
X378213Y87511D01*
X378300Y87520D01*
X378386Y87534D01*
X378472Y87551D01*
X378556Y87572D01*
X378640Y87597D01*
X378723Y87626D01*
X378804Y87658D01*
X378884Y87693D01*
X378962Y87732D01*
X379039Y87775D01*
X379113Y87821D01*
X379185Y87870D01*
X379255Y87922D01*
X379323Y87978D01*
X379388Y88036D01*
X379451Y88097D01*
X379510Y88161D01*
X379567Y88228D01*
X379621Y88296D01*
X379672Y88368D01*
X379719Y88441D01*
X379764Y88516D01*
X379805Y88594D01*
X379842Y88673D01*
X379876Y88753D01*
X379906Y88835D01*
X379933Y88918D01*
X379956Y89003D01*
X379975Y89088D01*
X379990Y89174D01*
X380002Y89261D01*
X380010Y89348D01*
X380014Y89435D01*
X380014Y89523D01*
X380010Y89610D01*
X380002Y89697D01*
X379990Y89784D01*
X379975Y89870D01*
X379956Y89955D01*
X379933Y90040D01*
X379906Y90123D01*
X379876Y90205D01*
X379842Y90285D01*
X379805Y90364D01*
X379764Y90442D01*
X379719Y90517D01*
X379672Y90590D01*
X379621Y90662D01*
X379567Y90730D01*
X379510Y90797D01*
X379451Y90861D01*
X379388Y90922D01*
X379323Y90980D01*
X379255Y91036D01*
X379185Y91088D01*
X379113Y91137D01*
X379039Y91183D01*
X378962Y91226D01*
X378884Y91265D01*
X378804Y91300D01*
X378723Y91332D01*
X378640Y91361D01*
X378556Y91386D01*
X378472Y91407D01*
X378386Y91424D01*
X378300Y91438D01*
X378213Y91447D01*
X378125Y91453D01*
X378038Y91455D01*
X378434Y94615D02*
X376063Y94615D01*
X378434Y94615D02*
X378513Y94613D01*
X378591Y94607D01*
X378669Y94597D01*
X378747Y94584D01*
X378824Y94566D01*
X378900Y94545D01*
X378974Y94520D01*
X379048Y94491D01*
X379120Y94459D01*
X379190Y94423D01*
X379258Y94383D01*
X379324Y94340D01*
X379388Y94294D01*
X379450Y94245D01*
X379509Y94193D01*
X379565Y94138D01*
X379619Y94080D01*
X379669Y94020D01*
X379717Y93957D01*
X379761Y93892D01*
X379802Y93825D01*
X379840Y93756D01*
X379874Y93685D01*
X379905Y93612D01*
X379932Y93538D01*
X379955Y93463D01*
X379974Y93387D01*
X379990Y93309D01*
X380002Y93231D01*
X380010Y93153D01*
X380014Y93074D01*
X380014Y92996D01*
X380010Y92917D01*
X380002Y92839D01*
X379990Y92761D01*
X379974Y92683D01*
X379955Y92607D01*
X379932Y92532D01*
X379905Y92458D01*
X379874Y92385D01*
X379840Y92314D01*
X379802Y92245D01*
X379761Y92178D01*
X379717Y92113D01*
X379669Y92050D01*
X379619Y91990D01*
X379565Y91932D01*
X379509Y91877D01*
X379450Y91825D01*
X379388Y91776D01*
X379324Y91730D01*
X379258Y91687D01*
X379190Y91647D01*
X379120Y91611D01*
X379048Y91579D01*
X378974Y91550D01*
X378900Y91525D01*
X378824Y91504D01*
X378747Y91486D01*
X378669Y91473D01*
X378591Y91463D01*
X378513Y91457D01*
X378434Y91455D01*
X378434Y91454D02*
X376853Y91454D01*
D13*
X480060Y76835D02*
X523240Y76835D01*
X523240Y114935D02*
X480060Y114935D01*
X477520Y112395D02*
X477520Y79375D01*
X525780Y79375D02*
X525780Y112395D01*
X480060Y76835D02*
X479960Y76837D01*
X479861Y76843D01*
X479761Y76853D01*
X479663Y76866D01*
X479564Y76884D01*
X479467Y76905D01*
X479371Y76930D01*
X479275Y76959D01*
X479181Y76992D01*
X479088Y77028D01*
X478997Y77068D01*
X478907Y77112D01*
X478819Y77159D01*
X478733Y77209D01*
X478649Y77263D01*
X478567Y77320D01*
X478488Y77380D01*
X478410Y77444D01*
X478336Y77510D01*
X478264Y77579D01*
X478195Y77651D01*
X478129Y77725D01*
X478065Y77803D01*
X478005Y77882D01*
X477948Y77964D01*
X477894Y78048D01*
X477844Y78134D01*
X477797Y78222D01*
X477753Y78312D01*
X477713Y78403D01*
X477677Y78496D01*
X477644Y78590D01*
X477615Y78686D01*
X477590Y78782D01*
X477569Y78879D01*
X477551Y78978D01*
X477538Y79076D01*
X477528Y79176D01*
X477522Y79275D01*
X477520Y79375D01*
X523240Y76835D02*
X523340Y76837D01*
X523439Y76843D01*
X523539Y76853D01*
X523637Y76866D01*
X523736Y76884D01*
X523833Y76905D01*
X523929Y76930D01*
X524025Y76959D01*
X524119Y76992D01*
X524212Y77028D01*
X524303Y77068D01*
X524393Y77112D01*
X524481Y77159D01*
X524567Y77209D01*
X524651Y77263D01*
X524733Y77320D01*
X524812Y77380D01*
X524890Y77444D01*
X524964Y77510D01*
X525036Y77579D01*
X525105Y77651D01*
X525171Y77725D01*
X525235Y77803D01*
X525295Y77882D01*
X525352Y77964D01*
X525406Y78048D01*
X525456Y78134D01*
X525503Y78222D01*
X525547Y78312D01*
X525587Y78403D01*
X525623Y78496D01*
X525656Y78590D01*
X525685Y78686D01*
X525710Y78782D01*
X525731Y78879D01*
X525749Y78978D01*
X525762Y79076D01*
X525772Y79176D01*
X525778Y79275D01*
X525780Y79375D01*
X480060Y114935D02*
X479960Y114933D01*
X479861Y114927D01*
X479761Y114917D01*
X479663Y114904D01*
X479564Y114886D01*
X479467Y114865D01*
X479371Y114840D01*
X479275Y114811D01*
X479181Y114778D01*
X479088Y114742D01*
X478997Y114702D01*
X478907Y114658D01*
X478819Y114611D01*
X478733Y114561D01*
X478649Y114507D01*
X478567Y114450D01*
X478488Y114390D01*
X478410Y114326D01*
X478336Y114260D01*
X478264Y114191D01*
X478195Y114119D01*
X478129Y114045D01*
X478065Y113967D01*
X478005Y113888D01*
X477948Y113806D01*
X477894Y113722D01*
X477844Y113636D01*
X477797Y113548D01*
X477753Y113458D01*
X477713Y113367D01*
X477677Y113274D01*
X477644Y113180D01*
X477615Y113084D01*
X477590Y112988D01*
X477569Y112891D01*
X477551Y112792D01*
X477538Y112694D01*
X477528Y112594D01*
X477522Y112495D01*
X477520Y112395D01*
X523240Y114935D02*
X523340Y114933D01*
X523439Y114927D01*
X523539Y114917D01*
X523637Y114904D01*
X523736Y114886D01*
X523833Y114865D01*
X523929Y114840D01*
X524025Y114811D01*
X524119Y114778D01*
X524212Y114742D01*
X524303Y114702D01*
X524393Y114658D01*
X524481Y114611D01*
X524567Y114561D01*
X524651Y114507D01*
X524733Y114450D01*
X524812Y114390D01*
X524890Y114326D01*
X524964Y114260D01*
X525036Y114191D01*
X525105Y114119D01*
X525171Y114045D01*
X525235Y113967D01*
X525295Y113888D01*
X525352Y113806D01*
X525406Y113722D01*
X525456Y113636D01*
X525503Y113548D01*
X525547Y113458D01*
X525587Y113367D01*
X525623Y113274D01*
X525656Y113180D01*
X525685Y113084D01*
X525710Y112988D01*
X525731Y112891D01*
X525749Y112792D01*
X525762Y112694D01*
X525772Y112594D01*
X525778Y112495D01*
X525780Y112395D01*
X499110Y95885D02*
X497840Y95885D01*
D21*
X499110Y95885D02*
X499110Y88265D01*
X499110Y95885D02*
X499110Y103505D01*
X504190Y95885D02*
X504190Y88265D01*
X504190Y95885D02*
X504190Y103505D01*
D13*
X504190Y95885D02*
X505460Y95885D01*
D22*
X515555Y66548D02*
X517191Y66548D01*
X515555Y66548D02*
X515477Y66550D01*
X515399Y66555D01*
X515322Y66565D01*
X515245Y66578D01*
X515169Y66594D01*
X515094Y66614D01*
X515020Y66638D01*
X514947Y66665D01*
X514875Y66696D01*
X514805Y66730D01*
X514737Y66767D01*
X514670Y66808D01*
X514605Y66852D01*
X514543Y66898D01*
X514483Y66948D01*
X514425Y67000D01*
X514370Y67055D01*
X514318Y67113D01*
X514268Y67173D01*
X514222Y67235D01*
X514178Y67300D01*
X514137Y67367D01*
X514100Y67435D01*
X514066Y67505D01*
X514035Y67577D01*
X514008Y67650D01*
X513984Y67724D01*
X513964Y67799D01*
X513948Y67875D01*
X513935Y67952D01*
X513925Y68029D01*
X513920Y68107D01*
X513918Y68185D01*
X513918Y72277D01*
X513920Y72357D01*
X513926Y72437D01*
X513936Y72517D01*
X513949Y72596D01*
X513967Y72675D01*
X513988Y72752D01*
X514014Y72828D01*
X514043Y72903D01*
X514075Y72977D01*
X514111Y73049D01*
X514151Y73119D01*
X514194Y73186D01*
X514240Y73252D01*
X514290Y73315D01*
X514342Y73376D01*
X514397Y73435D01*
X514456Y73490D01*
X514516Y73542D01*
X514580Y73592D01*
X514646Y73638D01*
X514713Y73681D01*
X514783Y73721D01*
X514855Y73757D01*
X514929Y73789D01*
X515003Y73818D01*
X515080Y73844D01*
X515157Y73865D01*
X515236Y73883D01*
X515315Y73896D01*
X515395Y73906D01*
X515475Y73912D01*
X515555Y73914D01*
X517191Y73914D01*
X521674Y73914D02*
X520037Y68185D01*
X524129Y68185D01*
X522901Y69822D02*
X522901Y66548D01*
D11*
X247529Y55244D02*
X247461Y55877D01*
X247378Y56507D01*
X247279Y57135D01*
X247166Y57761D01*
X247038Y58383D01*
X246896Y59003D01*
X246738Y59619D01*
X246566Y60231D01*
X246379Y60839D01*
X246178Y61442D01*
X245963Y62040D01*
X245733Y62633D01*
X245490Y63220D01*
X245232Y63801D01*
X244961Y64376D01*
X244676Y64945D01*
X244377Y65506D01*
X244065Y66060D01*
X243740Y66607D01*
X243403Y67145D01*
X243052Y67675D01*
X242689Y68197D01*
X242313Y68710D01*
X241926Y69214D01*
X247529Y55245D02*
X247583Y54596D01*
X247621Y53947D01*
X247643Y53296D01*
X247650Y52645D01*
X247641Y51994D01*
X247615Y51344D01*
X247574Y50694D01*
X247517Y50046D01*
X247444Y49399D01*
X247356Y48754D01*
X247251Y48111D01*
X247131Y47471D01*
X246996Y46835D01*
X246845Y46201D01*
X246678Y45572D01*
X246497Y44947D01*
X246300Y44326D01*
X246088Y43711D01*
X245861Y43101D01*
X245619Y42496D01*
X245362Y41898D01*
X245091Y41306D01*
X244806Y40721D01*
X244506Y40143D01*
X244193Y39573D01*
X243865Y39010D01*
X243524Y38456D01*
X243170Y37910D01*
X242802Y37373D01*
X242421Y36844D01*
X242028Y36326D01*
X241622Y35817D01*
X241204Y35318D01*
X240773Y34830D01*
X240331Y34352D01*
X239877Y33885D01*
X239412Y33430D01*
X238936Y32986D01*
X238450Y32553D01*
X237953Y32133D01*
X237446Y31725D01*
X236929Y31329D01*
X236402Y30946D01*
X235866Y30576D01*
X235322Y30219D01*
X234769Y29876D01*
X234208Y29546D01*
X233638Y29230D01*
X233062Y28928D01*
X232478Y28641D01*
X231887Y28367D01*
X231290Y28108D01*
X230686Y27864D01*
X230077Y27634D01*
X229463Y27420D01*
X228843Y27220D01*
X213117Y27220D02*
X212502Y27419D01*
X211891Y27631D01*
X211286Y27859D01*
X210687Y28101D01*
X210094Y28358D01*
X209507Y28629D01*
X208927Y28914D01*
X208354Y29213D01*
X207788Y29526D01*
X207230Y29853D01*
X206680Y30193D01*
X206139Y30546D01*
X205606Y30912D01*
X205083Y31291D01*
X204568Y31683D01*
X204064Y32086D01*
X203569Y32503D01*
X203084Y32930D01*
X202610Y33370D01*
X202147Y33821D01*
X201695Y34283D01*
X201254Y34756D01*
X200825Y35239D01*
X200408Y35733D01*
X200002Y36236D01*
X199609Y36749D01*
X199229Y37272D01*
X198861Y37804D01*
X198507Y38344D01*
X198165Y38893D01*
X197837Y39450D01*
X197523Y40015D01*
X197222Y40587D01*
X196935Y41166D01*
X196663Y41753D01*
X196404Y42345D01*
X196161Y42944D01*
X195931Y43548D01*
X195717Y44158D01*
X195517Y44773D01*
X195332Y45392D01*
X195162Y46016D01*
X195008Y46644D01*
X194869Y47275D01*
X194745Y47909D01*
X194636Y48547D01*
X194543Y49186D01*
X194466Y49828D01*
X194404Y50471D01*
X194357Y51116D01*
X194327Y51762D01*
X194312Y52408D01*
X194312Y53054D01*
X194329Y53701D01*
X194361Y54346D01*
X194408Y54991D01*
X194471Y55634D01*
X194550Y56276D01*
X194644Y56915D01*
X194754Y57552D01*
X194879Y58187D01*
X195020Y58818D01*
X195176Y59445D01*
X195347Y60068D01*
X195533Y60687D01*
X195734Y61302D01*
X195949Y61911D01*
X196180Y62515D01*
X196425Y63113D01*
X196684Y63705D01*
X196958Y64291D01*
X197246Y64870D01*
X197548Y65441D01*
X197863Y66006D01*
X198192Y66562D01*
X198535Y67110D01*
X198891Y67650D01*
X199259Y68181D01*
X199641Y68703D01*
X200035Y69215D01*
X241925Y69215D01*
X243517Y55245D02*
X247529Y55245D01*
X223843Y55245D02*
X218117Y55245D01*
X198443Y55245D02*
X194431Y55245D01*
D20*
X252054Y55936D02*
X252054Y52776D01*
X252053Y55936D02*
X252055Y56023D01*
X252061Y56111D01*
X252070Y56198D01*
X252084Y56284D01*
X252101Y56370D01*
X252122Y56454D01*
X252147Y56538D01*
X252176Y56621D01*
X252208Y56702D01*
X252243Y56782D01*
X252282Y56860D01*
X252325Y56937D01*
X252371Y57011D01*
X252420Y57083D01*
X252472Y57153D01*
X252528Y57221D01*
X252586Y57286D01*
X252647Y57349D01*
X252711Y57408D01*
X252778Y57465D01*
X252846Y57519D01*
X252918Y57570D01*
X252991Y57617D01*
X253066Y57662D01*
X253144Y57703D01*
X253223Y57740D01*
X253303Y57774D01*
X253385Y57804D01*
X253468Y57831D01*
X253553Y57854D01*
X253638Y57873D01*
X253724Y57888D01*
X253811Y57900D01*
X253898Y57908D01*
X253985Y57912D01*
X254073Y57912D01*
X254160Y57908D01*
X254247Y57900D01*
X254334Y57888D01*
X254420Y57873D01*
X254505Y57854D01*
X254590Y57831D01*
X254673Y57804D01*
X254755Y57774D01*
X254835Y57740D01*
X254914Y57703D01*
X254992Y57662D01*
X255067Y57617D01*
X255140Y57570D01*
X255212Y57519D01*
X255280Y57465D01*
X255347Y57408D01*
X255411Y57349D01*
X255472Y57286D01*
X255530Y57221D01*
X255586Y57153D01*
X255638Y57083D01*
X255687Y57011D01*
X255733Y56937D01*
X255776Y56860D01*
X255815Y56782D01*
X255850Y56702D01*
X255882Y56621D01*
X255911Y56538D01*
X255936Y56454D01*
X255957Y56370D01*
X255974Y56284D01*
X255988Y56198D01*
X255997Y56111D01*
X256003Y56023D01*
X256005Y55936D01*
X256005Y52776D01*
X256003Y52689D01*
X255997Y52601D01*
X255988Y52514D01*
X255974Y52428D01*
X255957Y52342D01*
X255936Y52258D01*
X255911Y52174D01*
X255882Y52091D01*
X255850Y52010D01*
X255815Y51930D01*
X255776Y51852D01*
X255733Y51775D01*
X255687Y51701D01*
X255638Y51629D01*
X255586Y51559D01*
X255530Y51491D01*
X255472Y51426D01*
X255411Y51363D01*
X255347Y51304D01*
X255280Y51247D01*
X255212Y51193D01*
X255140Y51142D01*
X255067Y51095D01*
X254992Y51050D01*
X254914Y51009D01*
X254835Y50972D01*
X254755Y50938D01*
X254673Y50908D01*
X254590Y50881D01*
X254505Y50858D01*
X254420Y50839D01*
X254334Y50824D01*
X254247Y50812D01*
X254160Y50804D01*
X254073Y50800D01*
X253985Y50800D01*
X253898Y50804D01*
X253811Y50812D01*
X253724Y50824D01*
X253638Y50839D01*
X253553Y50858D01*
X253468Y50881D01*
X253385Y50908D01*
X253303Y50938D01*
X253223Y50972D01*
X253144Y51009D01*
X253066Y51050D01*
X252991Y51095D01*
X252918Y51142D01*
X252846Y51193D01*
X252778Y51247D01*
X252711Y51304D01*
X252647Y51363D01*
X252586Y51426D01*
X252528Y51491D01*
X252472Y51559D01*
X252420Y51629D01*
X252371Y51701D01*
X252325Y51775D01*
X252282Y51852D01*
X252243Y51930D01*
X252208Y52010D01*
X252176Y52091D01*
X252147Y52174D01*
X252122Y52258D01*
X252101Y52342D01*
X252084Y52428D01*
X252070Y52514D01*
X252061Y52601D01*
X252055Y52689D01*
X252053Y52776D01*
X255215Y52380D02*
X256795Y50800D01*
X259066Y56332D02*
X261041Y57912D01*
X261041Y50800D01*
X259066Y50800D02*
X263017Y50800D01*
D13*
X326390Y75565D02*
X326392Y75465D01*
X326398Y75366D01*
X326408Y75266D01*
X326421Y75168D01*
X326439Y75069D01*
X326460Y74972D01*
X326485Y74876D01*
X326514Y74780D01*
X326547Y74686D01*
X326583Y74593D01*
X326623Y74502D01*
X326667Y74412D01*
X326714Y74324D01*
X326764Y74238D01*
X326818Y74154D01*
X326875Y74072D01*
X326935Y73993D01*
X326999Y73915D01*
X327065Y73841D01*
X327134Y73769D01*
X327206Y73700D01*
X327280Y73634D01*
X327358Y73570D01*
X327437Y73510D01*
X327519Y73453D01*
X327603Y73399D01*
X327689Y73349D01*
X327777Y73302D01*
X327867Y73258D01*
X327958Y73218D01*
X328051Y73182D01*
X328145Y73149D01*
X328241Y73120D01*
X328337Y73095D01*
X328434Y73074D01*
X328533Y73056D01*
X328631Y73043D01*
X328731Y73033D01*
X328830Y73027D01*
X328930Y73025D01*
X326390Y121285D02*
X326392Y121385D01*
X326398Y121484D01*
X326408Y121584D01*
X326421Y121682D01*
X326439Y121781D01*
X326460Y121878D01*
X326485Y121974D01*
X326514Y122070D01*
X326547Y122164D01*
X326583Y122257D01*
X326623Y122348D01*
X326667Y122438D01*
X326714Y122526D01*
X326764Y122612D01*
X326818Y122696D01*
X326875Y122778D01*
X326935Y122857D01*
X326999Y122935D01*
X327065Y123009D01*
X327134Y123081D01*
X327206Y123150D01*
X327280Y123216D01*
X327358Y123280D01*
X327437Y123340D01*
X327519Y123397D01*
X327603Y123451D01*
X327689Y123501D01*
X327777Y123548D01*
X327867Y123592D01*
X327958Y123632D01*
X328051Y123668D01*
X328145Y123701D01*
X328241Y123730D01*
X328337Y123755D01*
X328434Y123776D01*
X328533Y123794D01*
X328631Y123807D01*
X328731Y123817D01*
X328830Y123823D01*
X328930Y123825D01*
X349250Y123825D02*
X349350Y123823D01*
X349449Y123817D01*
X349549Y123807D01*
X349647Y123794D01*
X349746Y123776D01*
X349843Y123755D01*
X349939Y123730D01*
X350035Y123701D01*
X350129Y123668D01*
X350222Y123632D01*
X350313Y123592D01*
X350403Y123548D01*
X350491Y123501D01*
X350577Y123451D01*
X350661Y123397D01*
X350743Y123340D01*
X350822Y123280D01*
X350900Y123216D01*
X350974Y123150D01*
X351046Y123081D01*
X351115Y123009D01*
X351181Y122935D01*
X351245Y122857D01*
X351305Y122778D01*
X351362Y122696D01*
X351416Y122612D01*
X351466Y122526D01*
X351513Y122438D01*
X351557Y122348D01*
X351597Y122257D01*
X351633Y122164D01*
X351666Y122070D01*
X351695Y121974D01*
X351720Y121878D01*
X351741Y121781D01*
X351759Y121682D01*
X351772Y121584D01*
X351782Y121484D01*
X351788Y121385D01*
X351790Y121285D01*
X351790Y75565D02*
X351788Y75465D01*
X351782Y75366D01*
X351772Y75266D01*
X351759Y75168D01*
X351741Y75069D01*
X351720Y74972D01*
X351695Y74876D01*
X351666Y74780D01*
X351633Y74686D01*
X351597Y74593D01*
X351557Y74502D01*
X351513Y74412D01*
X351466Y74324D01*
X351416Y74238D01*
X351362Y74154D01*
X351305Y74072D01*
X351245Y73993D01*
X351181Y73915D01*
X351115Y73841D01*
X351046Y73769D01*
X350974Y73700D01*
X350900Y73634D01*
X350822Y73570D01*
X350743Y73510D01*
X350661Y73453D01*
X350577Y73399D01*
X350491Y73349D01*
X350403Y73302D01*
X350313Y73258D01*
X350222Y73218D01*
X350129Y73182D01*
X350035Y73149D01*
X349939Y73120D01*
X349843Y73095D01*
X349746Y73074D01*
X349647Y73056D01*
X349549Y73043D01*
X349449Y73033D01*
X349350Y73027D01*
X349250Y73025D01*
X326390Y75565D02*
X326390Y121285D01*
X328930Y123825D02*
X349250Y123825D01*
X351790Y121285D02*
X351790Y75565D01*
X349250Y73025D02*
X328930Y73025D01*
D20*
X354203Y104491D02*
X361315Y104491D01*
X354203Y104491D02*
X354203Y106467D01*
X354205Y106554D01*
X354211Y106642D01*
X354220Y106729D01*
X354234Y106815D01*
X354251Y106901D01*
X354272Y106985D01*
X354297Y107069D01*
X354326Y107152D01*
X354358Y107233D01*
X354393Y107313D01*
X354432Y107391D01*
X354475Y107468D01*
X354521Y107542D01*
X354570Y107614D01*
X354622Y107684D01*
X354678Y107752D01*
X354736Y107817D01*
X354797Y107880D01*
X354861Y107939D01*
X354928Y107996D01*
X354996Y108050D01*
X355068Y108101D01*
X355141Y108148D01*
X355216Y108193D01*
X355294Y108234D01*
X355373Y108271D01*
X355453Y108305D01*
X355535Y108335D01*
X355618Y108362D01*
X355703Y108385D01*
X355788Y108404D01*
X355874Y108419D01*
X355961Y108431D01*
X356048Y108439D01*
X356135Y108443D01*
X356223Y108443D01*
X356310Y108439D01*
X356397Y108431D01*
X356484Y108419D01*
X356570Y108404D01*
X356655Y108385D01*
X356740Y108362D01*
X356823Y108335D01*
X356905Y108305D01*
X356985Y108271D01*
X357064Y108234D01*
X357142Y108193D01*
X357217Y108148D01*
X357290Y108101D01*
X357362Y108050D01*
X357430Y107996D01*
X357497Y107939D01*
X357561Y107880D01*
X357622Y107817D01*
X357680Y107752D01*
X357736Y107684D01*
X357788Y107614D01*
X357837Y107542D01*
X357883Y107468D01*
X357926Y107391D01*
X357965Y107313D01*
X358000Y107233D01*
X358032Y107152D01*
X358061Y107069D01*
X358086Y106985D01*
X358107Y106901D01*
X358124Y106815D01*
X358138Y106729D01*
X358147Y106642D01*
X358153Y106554D01*
X358155Y106467D01*
X358154Y106467D02*
X358154Y104491D01*
X358154Y106862D02*
X361315Y108442D01*
X359735Y111746D02*
X354203Y113326D01*
X359735Y111746D02*
X359735Y115697D01*
X358154Y114512D02*
X361315Y114512D01*
M02*
