G04 EAGLE Gerber RS-274X export*
G75*
%MOMM*%
%FSLAX34Y34*%
%LPD*%
%INSoldermask Bottom*%
%IPPOS*%
%AMOC8*
5,1,8,0,0,1.08239X$1,22.5*%
G01*
%ADD10C,3.203200*%
%ADD11P,1.869504X8X202.500000*%
%ADD12C,2.203200*%
%ADD13C,2.743200*%
%ADD14C,1.727200*%
%ADD15C,2.743200*%
%ADD16R,2.387600X2.387600*%
%ADD17C,1.981200*%
%ADD18P,2.969212X8X22.500000*%
%ADD19P,1.951982X8X292.500000*%
%ADD20C,1.803400*%
%ADD21P,1.649562X8X202.500000*%
%ADD22P,1.649562X8X112.500000*%
%ADD23C,0.959600*%


D10*
X31000Y560000D03*
X502275Y560000D03*
D11*
X405130Y548640D03*
X255270Y548640D03*
D12*
X42930Y388409D03*
X42930Y439209D03*
X42930Y490009D03*
X42930Y210609D03*
X42930Y261409D03*
X42930Y312209D03*
X42930Y50589D03*
X42930Y101389D03*
X42930Y152189D03*
D13*
X114300Y554482D02*
X139700Y554482D01*
X139700Y329438D02*
X114300Y329438D01*
D14*
X214630Y467360D02*
X229870Y467360D01*
X196850Y391160D02*
X181610Y391160D01*
D15*
X275590Y469900D03*
X275590Y419100D03*
X275590Y165100D03*
X453390Y165100D03*
X453390Y215900D03*
D16*
X160020Y139820D03*
X220020Y281820D03*
X100020Y281820D03*
D17*
X100020Y159820D03*
X220020Y159820D03*
D18*
X358775Y28575D03*
X503555Y28575D03*
X434975Y28575D03*
D19*
X139700Y38100D03*
D20*
X139700Y63500D03*
D15*
X427155Y469565D03*
X275155Y469565D03*
X427155Y189565D03*
X351155Y189565D03*
D21*
X514350Y95885D03*
X488950Y95885D03*
X208280Y52705D03*
X220980Y33655D03*
X233680Y52705D03*
D22*
X339090Y85725D03*
X339090Y111125D03*
D23*
X127635Y96520D03*
M02*
