G04 EAGLE Gerber RS-274X export*
G75*
%MOMM*%
%FSLAX34Y34*%
%LPD*%
%INTop Copper*%
%IPPOS*%
%AMOC8*
5,1,8,0,0,1.08239X$1,22.5*%
G01*
%ADD10P,1.649562X8X202.500000*%
%ADD11C,2.000000*%
%ADD12C,2.540000*%
%ADD13C,1.524000*%
%ADD14C,2.540000*%
%ADD15R,2.184400X2.184400*%
%ADD16C,1.778000*%
%ADD17R,1.400000X1.000000*%
%ADD18R,1.500000X1.300000*%
%ADD19P,2.749271X8X22.500000*%
%ADD20P,1.732040X8X292.500000*%
%ADD21C,1.600200*%
%ADD22R,1.300000X1.500000*%
%ADD23C,0.406400*%
%ADD24C,0.304800*%
%ADD25C,0.756400*%

G36*
X300107Y10162D02*
X300107Y10162D01*
X300116Y10161D01*
X300308Y10182D01*
X300499Y10201D01*
X300508Y10203D01*
X300517Y10204D01*
X300699Y10262D01*
X300884Y10319D01*
X300892Y10323D01*
X300901Y10326D01*
X301069Y10419D01*
X301238Y10511D01*
X301245Y10516D01*
X301253Y10521D01*
X301400Y10645D01*
X301547Y10768D01*
X301553Y10775D01*
X301560Y10781D01*
X301679Y10932D01*
X301800Y11082D01*
X301804Y11090D01*
X301809Y11097D01*
X301897Y11270D01*
X301985Y11439D01*
X301988Y11448D01*
X301992Y11456D01*
X302044Y11642D01*
X302097Y11826D01*
X302097Y11835D01*
X302100Y11844D01*
X302114Y12037D01*
X302130Y12228D01*
X302129Y12236D01*
X302129Y12245D01*
X302105Y12438D01*
X302083Y12627D01*
X302080Y12636D01*
X302079Y12645D01*
X302017Y12828D01*
X301958Y13010D01*
X301953Y13018D01*
X301951Y13026D01*
X301854Y13193D01*
X301760Y13361D01*
X301754Y13368D01*
X301750Y13375D01*
X301535Y13628D01*
X298195Y16968D01*
X298195Y28752D01*
X306528Y37085D01*
X318618Y37085D01*
X318645Y37087D01*
X318671Y37085D01*
X318845Y37107D01*
X319019Y37125D01*
X319044Y37132D01*
X319071Y37136D01*
X319237Y37191D01*
X319404Y37243D01*
X319427Y37256D01*
X319453Y37264D01*
X319604Y37351D01*
X319758Y37435D01*
X319778Y37452D01*
X319801Y37465D01*
X320054Y37680D01*
X332144Y49770D01*
X332161Y49790D01*
X332182Y49808D01*
X332289Y49946D01*
X332399Y50081D01*
X332412Y50105D01*
X332428Y50126D01*
X332506Y50283D01*
X332588Y50437D01*
X332596Y50462D01*
X332608Y50486D01*
X332653Y50656D01*
X332703Y50823D01*
X332705Y50849D01*
X332712Y50875D01*
X332739Y51206D01*
X332739Y98654D01*
X332737Y98681D01*
X332739Y98707D01*
X332717Y98881D01*
X332699Y99055D01*
X332692Y99080D01*
X332688Y99107D01*
X332633Y99272D01*
X332581Y99440D01*
X332568Y99463D01*
X332560Y99489D01*
X332473Y99640D01*
X332389Y99794D01*
X332372Y99814D01*
X332359Y99837D01*
X332144Y100090D01*
X326810Y105424D01*
X326790Y105441D01*
X326772Y105462D01*
X326634Y105569D01*
X326499Y105679D01*
X326475Y105692D01*
X326454Y105708D01*
X326298Y105786D01*
X326143Y105868D01*
X326118Y105876D01*
X326094Y105888D01*
X325924Y105933D01*
X325757Y105983D01*
X325731Y105985D01*
X325705Y105992D01*
X325374Y106019D01*
X323476Y106019D01*
X323458Y106017D01*
X323440Y106019D01*
X323258Y105998D01*
X323075Y105979D01*
X323058Y105974D01*
X323041Y105972D01*
X322866Y105915D01*
X322690Y105861D01*
X322675Y105853D01*
X322658Y105847D01*
X322498Y105757D01*
X322336Y105669D01*
X322323Y105658D01*
X322307Y105649D01*
X322168Y105529D01*
X322027Y105412D01*
X322016Y105398D01*
X322002Y105386D01*
X321890Y105241D01*
X321775Y105098D01*
X321767Y105082D01*
X321756Y105068D01*
X321674Y104903D01*
X321589Y104741D01*
X321584Y104724D01*
X321576Y104708D01*
X321529Y104529D01*
X321478Y104354D01*
X321476Y104336D01*
X321472Y104319D01*
X321445Y103988D01*
X321445Y103968D01*
X320513Y103036D01*
X320501Y103022D01*
X320488Y103011D01*
X320374Y102867D01*
X320258Y102725D01*
X320249Y102709D01*
X320238Y102695D01*
X320155Y102531D01*
X320069Y102369D01*
X320064Y102352D01*
X320056Y102336D01*
X320006Y102159D01*
X319954Y101983D01*
X319953Y101965D01*
X319948Y101948D01*
X319934Y101765D01*
X319918Y101582D01*
X319920Y101564D01*
X319918Y101547D01*
X319941Y101365D01*
X319961Y101182D01*
X319967Y101165D01*
X319969Y101147D01*
X320027Y100973D01*
X320083Y100798D01*
X320091Y100782D01*
X320097Y100766D01*
X320189Y100607D01*
X320277Y100446D01*
X320289Y100432D01*
X320298Y100417D01*
X320513Y100164D01*
X321445Y99232D01*
X321445Y84968D01*
X320552Y84075D01*
X304288Y84075D01*
X303395Y84968D01*
X303395Y84988D01*
X303393Y85006D01*
X303395Y85024D01*
X303374Y85206D01*
X303355Y85389D01*
X303350Y85406D01*
X303348Y85423D01*
X303291Y85598D01*
X303237Y85774D01*
X303229Y85789D01*
X303223Y85806D01*
X303133Y85966D01*
X303045Y86128D01*
X303034Y86141D01*
X303025Y86157D01*
X302905Y86296D01*
X302788Y86437D01*
X302774Y86448D01*
X302762Y86462D01*
X302617Y86574D01*
X302474Y86689D01*
X302458Y86697D01*
X302444Y86708D01*
X302279Y86790D01*
X302117Y86875D01*
X302100Y86880D01*
X302084Y86888D01*
X301905Y86935D01*
X301730Y86986D01*
X301712Y86988D01*
X301695Y86992D01*
X301364Y87019D01*
X295876Y87019D01*
X295858Y87017D01*
X295840Y87019D01*
X295658Y86998D01*
X295475Y86979D01*
X295458Y86974D01*
X295441Y86972D01*
X295266Y86915D01*
X295090Y86861D01*
X295075Y86853D01*
X295058Y86847D01*
X294898Y86757D01*
X294736Y86669D01*
X294723Y86658D01*
X294707Y86649D01*
X294568Y86529D01*
X294427Y86412D01*
X294416Y86398D01*
X294402Y86386D01*
X294290Y86241D01*
X294175Y86098D01*
X294167Y86082D01*
X294156Y86068D01*
X294074Y85903D01*
X293989Y85741D01*
X293984Y85724D01*
X293976Y85708D01*
X293929Y85529D01*
X293878Y85354D01*
X293876Y85336D01*
X293872Y85319D01*
X293845Y84988D01*
X293845Y83928D01*
X292952Y83035D01*
X277688Y83035D01*
X276795Y83928D01*
X276795Y95192D01*
X277688Y96085D01*
X283818Y96085D01*
X283845Y96087D01*
X283871Y96085D01*
X284045Y96107D01*
X284219Y96125D01*
X284244Y96132D01*
X284271Y96136D01*
X284437Y96191D01*
X284604Y96243D01*
X284627Y96256D01*
X284653Y96264D01*
X284694Y96288D01*
X286682Y97111D01*
X286686Y97113D01*
X286690Y97115D01*
X286862Y97208D01*
X287037Y97302D01*
X287040Y97304D01*
X287044Y97307D01*
X287193Y97431D01*
X287347Y97558D01*
X287350Y97561D01*
X287353Y97564D01*
X287476Y97717D01*
X287601Y97871D01*
X287603Y97875D01*
X287606Y97878D01*
X287696Y98052D01*
X287788Y98227D01*
X287789Y98231D01*
X287791Y98235D01*
X287845Y98422D01*
X287901Y98614D01*
X287901Y98618D01*
X287903Y98622D01*
X287919Y98820D01*
X287936Y99015D01*
X287935Y99019D01*
X287936Y99024D01*
X287912Y99221D01*
X287891Y99415D01*
X287889Y99419D01*
X287889Y99423D01*
X287827Y99612D01*
X287819Y99637D01*
X287819Y106061D01*
X294861Y106061D01*
X294861Y103225D01*
X294688Y102579D01*
X294353Y102000D01*
X293880Y101527D01*
X293301Y101192D01*
X293232Y101174D01*
X293104Y101126D01*
X292972Y101085D01*
X292916Y101055D01*
X292855Y101032D01*
X292739Y100959D01*
X292618Y100893D01*
X292569Y100852D01*
X292514Y100818D01*
X292414Y100724D01*
X292309Y100636D01*
X292269Y100586D01*
X292222Y100541D01*
X292143Y100429D01*
X292057Y100322D01*
X292027Y100265D01*
X291990Y100212D01*
X291934Y100087D01*
X291871Y99965D01*
X291853Y99903D01*
X291827Y99844D01*
X291798Y99710D01*
X291760Y99578D01*
X291754Y99513D01*
X291741Y99451D01*
X291738Y99314D01*
X291727Y99176D01*
X291734Y99112D01*
X291733Y99048D01*
X291758Y98913D01*
X291774Y98777D01*
X291794Y98715D01*
X291805Y98652D01*
X291856Y98525D01*
X291899Y98394D01*
X291930Y98338D01*
X291954Y98278D01*
X292029Y98163D01*
X292096Y98043D01*
X292139Y97995D01*
X292174Y97941D01*
X292270Y97842D01*
X292360Y97738D01*
X292410Y97699D01*
X292456Y97653D01*
X292569Y97576D01*
X292678Y97492D01*
X292735Y97463D01*
X292789Y97427D01*
X292915Y97374D01*
X293038Y97312D01*
X293100Y97296D01*
X293160Y97271D01*
X293294Y97244D01*
X293427Y97208D01*
X293501Y97202D01*
X293554Y97191D01*
X293634Y97191D01*
X293758Y97181D01*
X301364Y97181D01*
X301382Y97183D01*
X301400Y97181D01*
X301582Y97202D01*
X301765Y97221D01*
X301782Y97226D01*
X301799Y97228D01*
X301974Y97285D01*
X302150Y97339D01*
X302165Y97347D01*
X302182Y97353D01*
X302342Y97443D01*
X302504Y97531D01*
X302517Y97542D01*
X302533Y97551D01*
X302672Y97671D01*
X302813Y97788D01*
X302824Y97802D01*
X302838Y97814D01*
X302950Y97959D01*
X303065Y98102D01*
X303073Y98118D01*
X303084Y98132D01*
X303166Y98297D01*
X303251Y98459D01*
X303256Y98476D01*
X303264Y98492D01*
X303311Y98671D01*
X303362Y98846D01*
X303364Y98864D01*
X303368Y98881D01*
X303395Y99212D01*
X303395Y99232D01*
X304327Y100164D01*
X304339Y100177D01*
X304352Y100189D01*
X304467Y100334D01*
X304582Y100475D01*
X304591Y100491D01*
X304602Y100505D01*
X304685Y100669D01*
X304771Y100831D01*
X304776Y100848D01*
X304784Y100864D01*
X304834Y101041D01*
X304886Y101217D01*
X304887Y101235D01*
X304892Y101252D01*
X304906Y101435D01*
X304922Y101618D01*
X304920Y101636D01*
X304922Y101653D01*
X304899Y101835D01*
X304879Y102018D01*
X304873Y102035D01*
X304871Y102053D01*
X304813Y102226D01*
X304757Y102402D01*
X304749Y102418D01*
X304743Y102434D01*
X304652Y102593D01*
X304563Y102754D01*
X304551Y102768D01*
X304542Y102783D01*
X304327Y103036D01*
X303395Y103968D01*
X303395Y118232D01*
X304288Y119125D01*
X320552Y119125D01*
X321445Y118232D01*
X321445Y118212D01*
X321447Y118194D01*
X321445Y118176D01*
X321466Y117994D01*
X321485Y117811D01*
X321490Y117794D01*
X321492Y117777D01*
X321549Y117602D01*
X321603Y117426D01*
X321611Y117411D01*
X321617Y117394D01*
X321707Y117234D01*
X321795Y117072D01*
X321806Y117059D01*
X321815Y117043D01*
X321935Y116904D01*
X322052Y116763D01*
X322066Y116752D01*
X322078Y116738D01*
X322223Y116626D01*
X322366Y116511D01*
X322382Y116503D01*
X322396Y116492D01*
X322561Y116410D01*
X322723Y116325D01*
X322740Y116320D01*
X322756Y116312D01*
X322935Y116265D01*
X323110Y116214D01*
X323128Y116212D01*
X323145Y116208D01*
X323476Y116181D01*
X329331Y116181D01*
X331198Y115407D01*
X332913Y113692D01*
X342127Y104478D01*
X342901Y102611D01*
X342901Y47249D01*
X342127Y45382D01*
X327240Y30494D01*
X327223Y30474D01*
X327202Y30456D01*
X327095Y30318D01*
X326985Y30183D01*
X326972Y30159D01*
X326956Y30138D01*
X326878Y29981D01*
X326796Y29827D01*
X326788Y29802D01*
X326776Y29778D01*
X326731Y29608D01*
X326681Y29441D01*
X326679Y29415D01*
X326672Y29389D01*
X326645Y29058D01*
X326645Y16968D01*
X323305Y13628D01*
X323299Y13621D01*
X323293Y13616D01*
X323172Y13466D01*
X323050Y13317D01*
X323046Y13309D01*
X323040Y13302D01*
X322952Y13132D01*
X322861Y12961D01*
X322859Y12952D01*
X322855Y12945D01*
X322802Y12760D01*
X322747Y12575D01*
X322746Y12566D01*
X322743Y12558D01*
X322728Y12367D01*
X322710Y12174D01*
X322711Y12165D01*
X322710Y12156D01*
X322733Y11967D01*
X322754Y11774D01*
X322756Y11765D01*
X322757Y11757D01*
X322817Y11575D01*
X322875Y11390D01*
X322879Y11382D01*
X322882Y11374D01*
X322977Y11205D01*
X323070Y11038D01*
X323076Y11031D01*
X323080Y11023D01*
X323206Y10877D01*
X323330Y10731D01*
X323337Y10725D01*
X323343Y10718D01*
X323495Y10601D01*
X323646Y10481D01*
X323654Y10477D01*
X323661Y10472D01*
X323833Y10386D01*
X324005Y10299D01*
X324014Y10296D01*
X324022Y10292D01*
X324208Y10242D01*
X324393Y10191D01*
X324402Y10190D01*
X324411Y10188D01*
X324741Y10161D01*
X385022Y10161D01*
X385031Y10162D01*
X385040Y10161D01*
X385231Y10182D01*
X385422Y10201D01*
X385431Y10203D01*
X385440Y10204D01*
X385622Y10262D01*
X385807Y10319D01*
X385815Y10323D01*
X385824Y10326D01*
X385992Y10419D01*
X386161Y10511D01*
X386168Y10516D01*
X386176Y10521D01*
X386323Y10645D01*
X386471Y10768D01*
X386476Y10775D01*
X386483Y10781D01*
X386602Y10932D01*
X386723Y11082D01*
X386727Y11090D01*
X386733Y11097D01*
X386820Y11270D01*
X386908Y11439D01*
X386911Y11448D01*
X386915Y11456D01*
X386967Y11642D01*
X387020Y11826D01*
X387021Y11835D01*
X387023Y11844D01*
X387037Y12037D01*
X387053Y12228D01*
X387052Y12236D01*
X387052Y12245D01*
X387028Y12438D01*
X387006Y12627D01*
X387003Y12636D01*
X387002Y12645D01*
X386941Y12828D01*
X386881Y13010D01*
X386877Y13018D01*
X386874Y13026D01*
X386778Y13193D01*
X386683Y13361D01*
X386677Y13368D01*
X386673Y13375D01*
X386458Y13628D01*
X380999Y19087D01*
X380999Y22861D01*
X395732Y22861D01*
X395750Y22862D01*
X395767Y22861D01*
X395950Y22882D01*
X396132Y22901D01*
X396149Y22906D01*
X396167Y22908D01*
X396245Y22933D01*
X396382Y22894D01*
X396400Y22892D01*
X396417Y22888D01*
X396748Y22861D01*
X411481Y22861D01*
X411481Y19087D01*
X406022Y13628D01*
X406016Y13621D01*
X406009Y13616D01*
X405889Y13466D01*
X405767Y13317D01*
X405763Y13309D01*
X405757Y13302D01*
X405669Y13132D01*
X405578Y12961D01*
X405576Y12952D01*
X405572Y12945D01*
X405518Y12760D01*
X405463Y12575D01*
X405463Y12566D01*
X405460Y12558D01*
X405445Y12366D01*
X405427Y12174D01*
X405428Y12165D01*
X405427Y12156D01*
X405449Y11967D01*
X405470Y11774D01*
X405473Y11765D01*
X405474Y11757D01*
X405534Y11575D01*
X405592Y11390D01*
X405596Y11382D01*
X405599Y11374D01*
X405694Y11205D01*
X405787Y11038D01*
X405793Y11031D01*
X405797Y11023D01*
X405923Y10877D01*
X406047Y10731D01*
X406054Y10725D01*
X406060Y10718D01*
X406212Y10601D01*
X406363Y10481D01*
X406371Y10477D01*
X406378Y10472D01*
X406550Y10386D01*
X406722Y10299D01*
X406731Y10296D01*
X406739Y10292D01*
X406925Y10242D01*
X407110Y10191D01*
X407119Y10190D01*
X407128Y10188D01*
X407458Y10161D01*
X455039Y10161D01*
X455047Y10162D01*
X455056Y10161D01*
X455250Y10182D01*
X455439Y10201D01*
X455448Y10203D01*
X455457Y10204D01*
X455641Y10262D01*
X455824Y10319D01*
X455832Y10323D01*
X455841Y10326D01*
X456009Y10419D01*
X456178Y10511D01*
X456185Y10516D01*
X456193Y10521D01*
X456340Y10645D01*
X456487Y10768D01*
X456493Y10775D01*
X456500Y10781D01*
X456619Y10932D01*
X456740Y11082D01*
X456744Y11090D01*
X456749Y11097D01*
X456837Y11270D01*
X456925Y11439D01*
X456928Y11448D01*
X456932Y11456D01*
X456984Y11642D01*
X457037Y11826D01*
X457037Y11835D01*
X457040Y11844D01*
X457054Y12037D01*
X457070Y12228D01*
X457069Y12236D01*
X457069Y12245D01*
X457045Y12438D01*
X457023Y12627D01*
X457020Y12636D01*
X457019Y12645D01*
X456957Y12828D01*
X456898Y13010D01*
X456893Y13018D01*
X456891Y13026D01*
X456794Y13193D01*
X456700Y13361D01*
X456694Y13368D01*
X456690Y13375D01*
X456475Y13628D01*
X450595Y19508D01*
X450595Y31292D01*
X458928Y39625D01*
X462788Y39625D01*
X462806Y39627D01*
X462824Y39625D01*
X463006Y39646D01*
X463189Y39665D01*
X463206Y39670D01*
X463223Y39672D01*
X463398Y39729D01*
X463574Y39783D01*
X463589Y39791D01*
X463606Y39797D01*
X463766Y39887D01*
X463928Y39975D01*
X463941Y39986D01*
X463957Y39995D01*
X464096Y40115D01*
X464237Y40232D01*
X464248Y40246D01*
X464262Y40258D01*
X464374Y40403D01*
X464489Y40546D01*
X464497Y40562D01*
X464508Y40576D01*
X464590Y40741D01*
X464675Y40903D01*
X464680Y40920D01*
X464688Y40936D01*
X464735Y41115D01*
X464786Y41290D01*
X464788Y41308D01*
X464792Y41325D01*
X464819Y41656D01*
X464819Y99568D01*
X464817Y99586D01*
X464819Y99604D01*
X464798Y99786D01*
X464779Y99969D01*
X464774Y99986D01*
X464772Y100003D01*
X464715Y100178D01*
X464661Y100354D01*
X464653Y100369D01*
X464647Y100386D01*
X464557Y100546D01*
X464469Y100708D01*
X464458Y100721D01*
X464449Y100737D01*
X464329Y100876D01*
X464212Y101017D01*
X464198Y101028D01*
X464186Y101042D01*
X464041Y101154D01*
X463898Y101269D01*
X463882Y101277D01*
X463868Y101288D01*
X463703Y101370D01*
X463541Y101455D01*
X463524Y101460D01*
X463508Y101468D01*
X463329Y101515D01*
X463154Y101566D01*
X463136Y101568D01*
X463119Y101572D01*
X462788Y101599D01*
X448816Y101599D01*
X448798Y101597D01*
X448780Y101599D01*
X448598Y101578D01*
X448415Y101559D01*
X448398Y101554D01*
X448381Y101552D01*
X448206Y101495D01*
X448030Y101441D01*
X448015Y101433D01*
X447998Y101427D01*
X447838Y101337D01*
X447676Y101249D01*
X447663Y101238D01*
X447647Y101229D01*
X447508Y101109D01*
X447367Y100992D01*
X447356Y100978D01*
X447342Y100966D01*
X447230Y100821D01*
X447115Y100678D01*
X447107Y100662D01*
X447096Y100648D01*
X447014Y100483D01*
X446929Y100321D01*
X446924Y100304D01*
X446916Y100288D01*
X446869Y100109D01*
X446818Y99934D01*
X446816Y99916D01*
X446812Y99899D01*
X446785Y99568D01*
X446785Y98548D01*
X445892Y97655D01*
X431628Y97655D01*
X431399Y97885D01*
X431335Y97937D01*
X431278Y97996D01*
X431180Y98064D01*
X431087Y98140D01*
X431015Y98179D01*
X430947Y98225D01*
X430837Y98273D01*
X430731Y98329D01*
X430653Y98352D01*
X430577Y98385D01*
X430460Y98409D01*
X430346Y98443D01*
X430263Y98451D01*
X430183Y98468D01*
X430064Y98469D01*
X429945Y98480D01*
X429863Y98471D01*
X429780Y98472D01*
X429663Y98449D01*
X429544Y98436D01*
X429466Y98412D01*
X429385Y98396D01*
X429274Y98351D01*
X429160Y98315D01*
X429088Y98275D01*
X429012Y98244D01*
X428913Y98178D01*
X428808Y98120D01*
X428745Y98067D01*
X428677Y98021D01*
X428592Y97937D01*
X428501Y97860D01*
X428450Y97795D01*
X428392Y97737D01*
X428351Y97678D01*
X427820Y97147D01*
X427241Y96812D01*
X426595Y96639D01*
X423009Y96639D01*
X423009Y105462D01*
X423007Y105480D01*
X423009Y105497D01*
X422988Y105680D01*
X422969Y105862D01*
X422964Y105879D01*
X422962Y105897D01*
X422905Y106072D01*
X422851Y106247D01*
X422843Y106263D01*
X422837Y106280D01*
X422747Y106440D01*
X422659Y106601D01*
X422648Y106615D01*
X422639Y106631D01*
X422594Y106683D01*
X422679Y106788D01*
X422687Y106804D01*
X422698Y106818D01*
X422780Y106983D01*
X422865Y107146D01*
X422870Y107163D01*
X422878Y107179D01*
X422925Y107357D01*
X422976Y107532D01*
X422978Y107550D01*
X422982Y107567D01*
X423009Y107898D01*
X423009Y116721D01*
X426595Y116721D01*
X427241Y116548D01*
X427820Y116213D01*
X428371Y115662D01*
X428438Y115569D01*
X428498Y115513D01*
X428551Y115450D01*
X428645Y115376D01*
X428733Y115295D01*
X428803Y115252D01*
X428867Y115200D01*
X428974Y115146D01*
X429076Y115084D01*
X429153Y115055D01*
X429226Y115018D01*
X429342Y114986D01*
X429453Y114945D01*
X429535Y114932D01*
X429614Y114910D01*
X429733Y114901D01*
X429851Y114883D01*
X429934Y114887D01*
X430016Y114881D01*
X430134Y114896D01*
X430254Y114901D01*
X430333Y114921D01*
X430415Y114931D01*
X430528Y114969D01*
X430644Y114998D01*
X430719Y115033D01*
X430797Y115059D01*
X430900Y115119D01*
X431008Y115170D01*
X431074Y115219D01*
X431146Y115260D01*
X431262Y115359D01*
X431331Y115411D01*
X431358Y115441D01*
X431399Y115475D01*
X431628Y115705D01*
X445892Y115705D01*
X446785Y114812D01*
X446785Y113792D01*
X446787Y113774D01*
X446785Y113756D01*
X446806Y113574D01*
X446825Y113391D01*
X446830Y113374D01*
X446832Y113357D01*
X446889Y113182D01*
X446943Y113006D01*
X446951Y112991D01*
X446957Y112974D01*
X447047Y112814D01*
X447135Y112652D01*
X447146Y112639D01*
X447155Y112623D01*
X447275Y112484D01*
X447392Y112343D01*
X447406Y112332D01*
X447418Y112318D01*
X447563Y112206D01*
X447706Y112091D01*
X447722Y112083D01*
X447736Y112072D01*
X447901Y111990D01*
X448063Y111905D01*
X448080Y111900D01*
X448096Y111892D01*
X448275Y111845D01*
X448450Y111794D01*
X448468Y111792D01*
X448485Y111788D01*
X448816Y111761D01*
X462788Y111761D01*
X462806Y111763D01*
X462824Y111761D01*
X463006Y111782D01*
X463189Y111801D01*
X463206Y111806D01*
X463223Y111808D01*
X463398Y111865D01*
X463574Y111919D01*
X463589Y111927D01*
X463606Y111933D01*
X463766Y112023D01*
X463928Y112111D01*
X463941Y112122D01*
X463957Y112131D01*
X464096Y112251D01*
X464237Y112368D01*
X464248Y112382D01*
X464262Y112394D01*
X464374Y112539D01*
X464489Y112682D01*
X464497Y112698D01*
X464508Y112712D01*
X464590Y112877D01*
X464675Y113039D01*
X464680Y113056D01*
X464688Y113072D01*
X464735Y113251D01*
X464786Y113426D01*
X464788Y113444D01*
X464792Y113461D01*
X464819Y113792D01*
X464819Y166641D01*
X464805Y166782D01*
X464799Y166924D01*
X464785Y166982D01*
X464779Y167041D01*
X464738Y167177D01*
X464704Y167315D01*
X464679Y167369D01*
X464661Y167426D01*
X464594Y167551D01*
X464534Y167679D01*
X464498Y167728D01*
X464469Y167780D01*
X464379Y167889D01*
X464294Y168003D01*
X464250Y168043D01*
X464212Y168090D01*
X464101Y168178D01*
X463996Y168274D01*
X463945Y168304D01*
X463898Y168342D01*
X463772Y168407D01*
X463650Y168480D01*
X463594Y168500D01*
X463541Y168527D01*
X463404Y168567D01*
X463271Y168614D01*
X463211Y168622D01*
X463154Y168639D01*
X463012Y168650D01*
X462872Y168670D01*
X462812Y168667D01*
X462752Y168672D01*
X462611Y168655D01*
X462470Y168647D01*
X462412Y168632D01*
X462353Y168625D01*
X462218Y168581D01*
X462081Y168545D01*
X462027Y168518D01*
X461970Y168500D01*
X461846Y168430D01*
X461719Y168368D01*
X461671Y168331D01*
X461619Y168302D01*
X461512Y168209D01*
X461399Y168123D01*
X461353Y168072D01*
X461315Y168039D01*
X461264Y167974D01*
X461176Y167877D01*
X461063Y167729D01*
X459651Y166317D01*
X458065Y165101D01*
X456335Y164102D01*
X454490Y163337D01*
X452560Y162820D01*
X452079Y162757D01*
X452079Y177332D01*
X452077Y177350D01*
X452079Y177367D01*
X452058Y177548D01*
X452039Y177732D01*
X452034Y177749D01*
X452032Y177767D01*
X452019Y177808D01*
X452046Y177902D01*
X452048Y177920D01*
X452052Y177937D01*
X452079Y178268D01*
X452079Y192843D01*
X452560Y192780D01*
X454490Y192263D01*
X456335Y191498D01*
X458065Y190499D01*
X459651Y189283D01*
X461063Y187871D01*
X461176Y187723D01*
X461274Y187619D01*
X461364Y187510D01*
X461411Y187473D01*
X461452Y187429D01*
X461568Y187347D01*
X461678Y187258D01*
X461731Y187231D01*
X461780Y187196D01*
X461910Y187138D01*
X462035Y187073D01*
X462093Y187056D01*
X462148Y187032D01*
X462286Y187000D01*
X462422Y186961D01*
X462482Y186956D01*
X462540Y186943D01*
X462682Y186940D01*
X462824Y186928D01*
X462883Y186935D01*
X462943Y186934D01*
X463083Y186959D01*
X463223Y186975D01*
X463280Y186994D01*
X463339Y187004D01*
X463471Y187056D01*
X463606Y187100D01*
X463658Y187130D01*
X463714Y187151D01*
X463833Y187228D01*
X463957Y187298D01*
X464002Y187337D01*
X464052Y187370D01*
X464154Y187468D01*
X464262Y187561D01*
X464298Y187608D01*
X464341Y187650D01*
X464421Y187767D01*
X464508Y187879D01*
X464535Y187933D01*
X464569Y187982D01*
X464624Y188113D01*
X464688Y188240D01*
X464703Y188298D01*
X464727Y188353D01*
X464755Y188491D01*
X464792Y188629D01*
X464798Y188697D01*
X464808Y188747D01*
X464809Y188829D01*
X464819Y188959D01*
X464819Y205334D01*
X464817Y205361D01*
X464819Y205387D01*
X464797Y205561D01*
X464779Y205735D01*
X464772Y205760D01*
X464768Y205787D01*
X464713Y205953D01*
X464661Y206120D01*
X464648Y206143D01*
X464640Y206169D01*
X464553Y206320D01*
X464469Y206474D01*
X464452Y206494D01*
X464439Y206517D01*
X464224Y206770D01*
X456346Y214649D01*
X456329Y214663D01*
X456314Y214680D01*
X456173Y214790D01*
X456035Y214904D01*
X456015Y214914D01*
X455997Y214928D01*
X455837Y215009D01*
X455679Y215092D01*
X455658Y215099D01*
X455638Y215109D01*
X455465Y215156D01*
X455293Y215207D01*
X455271Y215209D01*
X455249Y215215D01*
X455070Y215227D01*
X454892Y215244D01*
X454870Y215241D01*
X454848Y215243D01*
X454670Y215219D01*
X454492Y215200D01*
X454470Y215193D01*
X454448Y215190D01*
X454132Y215089D01*
X452409Y214375D01*
X446750Y214375D01*
X441522Y216541D01*
X437521Y220542D01*
X436807Y222265D01*
X436797Y222285D01*
X436790Y222306D01*
X436702Y222462D01*
X436617Y222620D01*
X436603Y222637D01*
X436592Y222657D01*
X436475Y222792D01*
X436361Y222931D01*
X436343Y222945D01*
X436329Y222962D01*
X436187Y223071D01*
X436048Y223184D01*
X436028Y223195D01*
X436011Y223208D01*
X435850Y223288D01*
X435691Y223371D01*
X435670Y223378D01*
X435650Y223388D01*
X435476Y223434D01*
X435305Y223484D01*
X435283Y223486D01*
X435261Y223492D01*
X434931Y223519D01*
X257048Y223519D01*
X257021Y223517D01*
X256995Y223519D01*
X256821Y223497D01*
X256647Y223479D01*
X256622Y223472D01*
X256595Y223468D01*
X256430Y223413D01*
X256262Y223361D01*
X256239Y223348D01*
X256214Y223340D01*
X256062Y223253D01*
X255908Y223169D01*
X255888Y223152D01*
X255865Y223139D01*
X255612Y222924D01*
X229704Y197016D01*
X229687Y196996D01*
X229667Y196978D01*
X229559Y196840D01*
X229449Y196705D01*
X229436Y196681D01*
X229420Y196660D01*
X229342Y196503D01*
X229260Y196349D01*
X229252Y196324D01*
X229240Y196300D01*
X229195Y196130D01*
X229145Y195963D01*
X229143Y195937D01*
X229136Y195911D01*
X229109Y195580D01*
X229109Y165497D01*
X229112Y165466D01*
X229110Y165435D01*
X229132Y165265D01*
X229149Y165096D01*
X229158Y165066D01*
X229162Y165035D01*
X229263Y164720D01*
X230435Y161892D01*
X230435Y157748D01*
X229263Y154920D01*
X229254Y154891D01*
X229240Y154863D01*
X229196Y154698D01*
X229147Y154535D01*
X229144Y154504D01*
X229136Y154474D01*
X229109Y154143D01*
X229109Y108711D01*
X192938Y108711D01*
X192911Y108709D01*
X192885Y108711D01*
X192711Y108689D01*
X192537Y108671D01*
X192512Y108664D01*
X192485Y108660D01*
X192319Y108605D01*
X192152Y108553D01*
X192129Y108540D01*
X192103Y108532D01*
X191952Y108445D01*
X191798Y108361D01*
X191778Y108344D01*
X191755Y108331D01*
X191502Y108116D01*
X149821Y66435D01*
X149817Y66431D01*
X149814Y66428D01*
X149800Y66412D01*
X149783Y66397D01*
X149676Y66259D01*
X149566Y66124D01*
X149553Y66100D01*
X149537Y66079D01*
X149459Y65922D01*
X149377Y65768D01*
X149369Y65743D01*
X149357Y65719D01*
X149312Y65549D01*
X149262Y65382D01*
X149260Y65356D01*
X149253Y65330D01*
X149226Y64999D01*
X149226Y61605D01*
X147776Y58104D01*
X145096Y55424D01*
X143323Y54690D01*
X141595Y53974D01*
X137805Y53974D01*
X134304Y55424D01*
X131624Y58104D01*
X130174Y61605D01*
X130174Y65395D01*
X131624Y68896D01*
X134304Y71576D01*
X137805Y73026D01*
X141199Y73026D01*
X141226Y73028D01*
X141252Y73026D01*
X141426Y73048D01*
X141600Y73066D01*
X141625Y73073D01*
X141652Y73077D01*
X141818Y73132D01*
X141985Y73184D01*
X142008Y73197D01*
X142034Y73205D01*
X142185Y73292D01*
X142339Y73376D01*
X142359Y73393D01*
X142382Y73406D01*
X142635Y73621D01*
X174258Y105244D01*
X174264Y105251D01*
X174271Y105256D01*
X174391Y105406D01*
X174514Y105555D01*
X174518Y105563D01*
X174523Y105570D01*
X174612Y105741D01*
X174702Y105911D01*
X174705Y105919D01*
X174709Y105927D01*
X174762Y106113D01*
X174817Y106297D01*
X174818Y106306D01*
X174820Y106314D01*
X174836Y106506D01*
X174853Y106698D01*
X174852Y106707D01*
X174853Y106716D01*
X174831Y106905D01*
X174810Y107098D01*
X174807Y107107D01*
X174806Y107115D01*
X174747Y107297D01*
X174688Y107482D01*
X174684Y107490D01*
X174681Y107498D01*
X174586Y107667D01*
X174494Y107834D01*
X174488Y107841D01*
X174483Y107849D01*
X174357Y107995D01*
X174233Y108141D01*
X174226Y108147D01*
X174220Y108154D01*
X174069Y108271D01*
X173917Y108391D01*
X173909Y108395D01*
X173902Y108400D01*
X173730Y108486D01*
X173558Y108573D01*
X173550Y108576D01*
X173542Y108580D01*
X173355Y108630D01*
X173170Y108681D01*
X173161Y108682D01*
X173153Y108684D01*
X172822Y108711D01*
X86360Y108711D01*
X86342Y108709D01*
X86324Y108711D01*
X86142Y108690D01*
X85959Y108671D01*
X85942Y108666D01*
X85925Y108664D01*
X85750Y108607D01*
X85574Y108553D01*
X85559Y108545D01*
X85542Y108539D01*
X85382Y108449D01*
X85220Y108361D01*
X85207Y108350D01*
X85191Y108341D01*
X85052Y108221D01*
X84911Y108104D01*
X84900Y108090D01*
X84887Y108078D01*
X84774Y107933D01*
X84659Y107790D01*
X84651Y107774D01*
X84640Y107760D01*
X84558Y107595D01*
X84473Y107433D01*
X84468Y107416D01*
X84460Y107400D01*
X84413Y107221D01*
X84362Y107046D01*
X84360Y107028D01*
X84356Y107011D01*
X84329Y106680D01*
X84329Y12192D01*
X84331Y12174D01*
X84329Y12156D01*
X84350Y11974D01*
X84369Y11791D01*
X84374Y11774D01*
X84376Y11757D01*
X84433Y11582D01*
X84487Y11406D01*
X84495Y11391D01*
X84501Y11374D01*
X84591Y11214D01*
X84679Y11052D01*
X84690Y11039D01*
X84699Y11023D01*
X84819Y10884D01*
X84936Y10743D01*
X84950Y10732D01*
X84962Y10718D01*
X85107Y10606D01*
X85250Y10491D01*
X85266Y10483D01*
X85280Y10472D01*
X85445Y10390D01*
X85607Y10305D01*
X85624Y10300D01*
X85641Y10292D01*
X85819Y10245D01*
X85994Y10194D01*
X86012Y10192D01*
X86029Y10188D01*
X86360Y10161D01*
X300099Y10161D01*
X300107Y10162D01*
G37*
G36*
X479835Y31371D02*
X479835Y31371D01*
X479844Y31370D01*
X480033Y31393D01*
X480226Y31414D01*
X480235Y31416D01*
X480243Y31417D01*
X480425Y31477D01*
X480610Y31535D01*
X480618Y31539D01*
X480626Y31542D01*
X480795Y31637D01*
X480962Y31730D01*
X480969Y31736D01*
X480977Y31740D01*
X481123Y31866D01*
X481269Y31990D01*
X481275Y31997D01*
X481282Y32003D01*
X481399Y32155D01*
X481519Y32306D01*
X481523Y32314D01*
X481528Y32321D01*
X481614Y32493D01*
X481701Y32665D01*
X481704Y32674D01*
X481708Y32682D01*
X481758Y32868D01*
X481809Y33053D01*
X481810Y33062D01*
X481812Y33071D01*
X481839Y33401D01*
X481839Y317500D01*
X481837Y317518D01*
X481839Y317536D01*
X481818Y317718D01*
X481799Y317901D01*
X481794Y317918D01*
X481792Y317935D01*
X481735Y318110D01*
X481681Y318286D01*
X481673Y318301D01*
X481667Y318318D01*
X481577Y318478D01*
X481489Y318640D01*
X481478Y318653D01*
X481469Y318669D01*
X481349Y318808D01*
X481232Y318949D01*
X481218Y318960D01*
X481206Y318974D01*
X481061Y319086D01*
X480918Y319201D01*
X480902Y319209D01*
X480888Y319220D01*
X480723Y319302D01*
X480561Y319387D01*
X480544Y319392D01*
X480528Y319400D01*
X480349Y319447D01*
X480174Y319498D01*
X480156Y319500D01*
X480139Y319504D01*
X479808Y319531D01*
X259080Y319531D01*
X259062Y319529D01*
X259044Y319531D01*
X258862Y319510D01*
X258679Y319491D01*
X258662Y319486D01*
X258645Y319484D01*
X258470Y319427D01*
X258294Y319373D01*
X258279Y319365D01*
X258262Y319359D01*
X258102Y319269D01*
X257940Y319181D01*
X257927Y319170D01*
X257911Y319161D01*
X257772Y319041D01*
X257631Y318924D01*
X257620Y318910D01*
X257607Y318898D01*
X257494Y318753D01*
X257379Y318610D01*
X257371Y318594D01*
X257360Y318580D01*
X257278Y318415D01*
X257193Y318253D01*
X257188Y318236D01*
X257180Y318220D01*
X257133Y318041D01*
X257082Y317866D01*
X257080Y317848D01*
X257076Y317831D01*
X257049Y317500D01*
X257049Y235712D01*
X257051Y235694D01*
X257049Y235676D01*
X257070Y235494D01*
X257089Y235311D01*
X257094Y235294D01*
X257096Y235277D01*
X257153Y235102D01*
X257207Y234926D01*
X257215Y234911D01*
X257221Y234894D01*
X257311Y234734D01*
X257399Y234572D01*
X257410Y234559D01*
X257419Y234543D01*
X257539Y234404D01*
X257656Y234263D01*
X257670Y234252D01*
X257682Y234238D01*
X257827Y234126D01*
X257970Y234011D01*
X257986Y234003D01*
X258000Y233992D01*
X258165Y233910D01*
X258327Y233825D01*
X258344Y233820D01*
X258361Y233812D01*
X258539Y233765D01*
X258714Y233714D01*
X258732Y233712D01*
X258749Y233708D01*
X259080Y233681D01*
X434931Y233681D01*
X434953Y233683D01*
X434975Y233681D01*
X435152Y233703D01*
X435331Y233721D01*
X435353Y233727D01*
X435375Y233730D01*
X435544Y233786D01*
X435716Y233839D01*
X435736Y233849D01*
X435757Y233856D01*
X435912Y233945D01*
X436070Y234031D01*
X436087Y234045D01*
X436107Y234056D01*
X436242Y234174D01*
X436379Y234288D01*
X436393Y234306D01*
X436410Y234320D01*
X436519Y234462D01*
X436632Y234602D01*
X436642Y234622D01*
X436656Y234640D01*
X436807Y234935D01*
X437521Y236658D01*
X441522Y240659D01*
X444473Y241881D01*
X446750Y242825D01*
X452410Y242825D01*
X457638Y240659D01*
X461639Y236658D01*
X463805Y231430D01*
X463805Y225771D01*
X463091Y224048D01*
X463085Y224026D01*
X463074Y224006D01*
X463026Y223834D01*
X462975Y223662D01*
X462972Y223640D01*
X462966Y223618D01*
X462953Y223439D01*
X462936Y223261D01*
X462939Y223239D01*
X462937Y223217D01*
X462960Y223038D01*
X462978Y222861D01*
X462985Y222840D01*
X462988Y222817D01*
X463045Y222647D01*
X463098Y222476D01*
X463109Y222457D01*
X463116Y222436D01*
X463205Y222280D01*
X463291Y222123D01*
X463305Y222106D01*
X463317Y222087D01*
X463531Y221834D01*
X474207Y211158D01*
X474981Y209291D01*
X474981Y36197D01*
X474983Y36171D01*
X474981Y36144D01*
X475003Y35970D01*
X475021Y35797D01*
X475028Y35771D01*
X475032Y35745D01*
X475087Y35579D01*
X475139Y35412D01*
X475152Y35388D01*
X475160Y35363D01*
X475247Y35211D01*
X475331Y35058D01*
X475348Y35037D01*
X475361Y35014D01*
X475576Y34761D01*
X478372Y31965D01*
X478379Y31959D01*
X478384Y31953D01*
X478534Y31832D01*
X478683Y31710D01*
X478691Y31706D01*
X478698Y31700D01*
X478869Y31611D01*
X479039Y31521D01*
X479047Y31519D01*
X479055Y31515D01*
X479241Y31461D01*
X479425Y31407D01*
X479434Y31406D01*
X479442Y31403D01*
X479634Y31388D01*
X479826Y31370D01*
X479835Y31371D01*
G37*
%LPC*%
G36*
X268950Y163575D02*
X268950Y163575D01*
X263722Y165741D01*
X259721Y169742D01*
X257555Y174970D01*
X257555Y180630D01*
X259721Y185858D01*
X263722Y189859D01*
X268950Y192025D01*
X274610Y192025D01*
X279838Y189859D01*
X283839Y185858D01*
X286005Y180630D01*
X286005Y174970D01*
X283839Y169742D01*
X279838Y165741D01*
X274610Y163575D01*
X268950Y163575D01*
G37*
%LPD*%
%LPC*%
G36*
X255688Y92535D02*
X255688Y92535D01*
X254839Y93384D01*
X254819Y93401D01*
X254801Y93422D01*
X254663Y93529D01*
X254528Y93639D01*
X254504Y93652D01*
X254483Y93668D01*
X254326Y93746D01*
X254172Y93828D01*
X254147Y93836D01*
X254123Y93848D01*
X253953Y93893D01*
X253786Y93943D01*
X253760Y93945D01*
X253734Y93952D01*
X253403Y93979D01*
X238225Y93979D01*
X238194Y93976D01*
X238163Y93978D01*
X237994Y93956D01*
X237825Y93939D01*
X237795Y93930D01*
X237764Y93926D01*
X237448Y93825D01*
X237276Y93753D01*
X235164Y93753D01*
X233214Y94561D01*
X231721Y96054D01*
X230913Y98004D01*
X230913Y100116D01*
X231721Y102066D01*
X233214Y103559D01*
X233690Y103756D01*
X233691Y103756D01*
X235164Y104367D01*
X237276Y104367D01*
X237448Y104295D01*
X237478Y104286D01*
X237506Y104272D01*
X237671Y104228D01*
X237833Y104179D01*
X237864Y104176D01*
X237895Y104168D01*
X238225Y104141D01*
X253403Y104141D01*
X253430Y104143D01*
X253456Y104141D01*
X253630Y104163D01*
X253804Y104181D01*
X253829Y104188D01*
X253856Y104192D01*
X254021Y104247D01*
X254189Y104299D01*
X254212Y104312D01*
X254237Y104320D01*
X254389Y104407D01*
X254543Y104491D01*
X254563Y104508D01*
X254586Y104521D01*
X254839Y104736D01*
X255688Y105585D01*
X270952Y105585D01*
X272312Y104225D01*
X272319Y104219D01*
X272324Y104212D01*
X272474Y104092D01*
X272560Y104021D01*
X272506Y103968D01*
X272402Y103879D01*
X272363Y103828D01*
X272317Y103783D01*
X272240Y103669D01*
X272156Y103561D01*
X272127Y103503D01*
X272091Y103450D01*
X272038Y103323D01*
X271976Y103200D01*
X271960Y103138D01*
X271935Y103079D01*
X271908Y102944D01*
X271872Y102811D01*
X271866Y102738D01*
X271855Y102684D01*
X271855Y102604D01*
X271845Y102481D01*
X271845Y93428D01*
X270952Y92535D01*
X255688Y92535D01*
G37*
%LPD*%
%LPC*%
G36*
X398779Y27939D02*
X398779Y27939D01*
X398779Y40641D01*
X402553Y40641D01*
X411481Y31713D01*
X411481Y27939D01*
X398779Y27939D01*
G37*
%LPD*%
%LPC*%
G36*
X380999Y27939D02*
X380999Y27939D01*
X380999Y31713D01*
X389927Y40641D01*
X393701Y40641D01*
X393701Y27939D01*
X380999Y27939D01*
G37*
%LPD*%
%LPC*%
G36*
X434537Y180299D02*
X434537Y180299D01*
X434600Y180780D01*
X435117Y182710D01*
X435882Y184555D01*
X436881Y186285D01*
X438097Y187871D01*
X439509Y189283D01*
X441095Y190499D01*
X442825Y191498D01*
X444670Y192263D01*
X446600Y192780D01*
X447081Y192843D01*
X447081Y180299D01*
X434537Y180299D01*
G37*
%LPD*%
%LPC*%
G36*
X446600Y162820D02*
X446600Y162820D01*
X444670Y163337D01*
X442825Y164102D01*
X441095Y165101D01*
X439509Y166317D01*
X438097Y167729D01*
X436881Y169315D01*
X435882Y171045D01*
X435117Y172890D01*
X434600Y174820D01*
X434537Y175301D01*
X447081Y175301D01*
X447081Y162757D01*
X446600Y162820D01*
G37*
%LPD*%
%LPC*%
G36*
X141731Y40131D02*
X141731Y40131D01*
X141731Y48642D01*
X144067Y48642D01*
X150242Y42467D01*
X150242Y40131D01*
X141731Y40131D01*
G37*
%LPD*%
%LPC*%
G36*
X129158Y40131D02*
X129158Y40131D01*
X129158Y42467D01*
X135333Y48642D01*
X137669Y48642D01*
X137669Y40131D01*
X129158Y40131D01*
G37*
%LPD*%
%LPC*%
G36*
X141731Y27558D02*
X141731Y27558D01*
X141731Y36069D01*
X150242Y36069D01*
X150242Y33733D01*
X144067Y27558D01*
X141731Y27558D01*
G37*
%LPD*%
%LPC*%
G36*
X135333Y27558D02*
X135333Y27558D01*
X129158Y33733D01*
X129158Y36069D01*
X137669Y36069D01*
X137669Y27558D01*
X135333Y27558D01*
G37*
%LPD*%
%LPC*%
G36*
X410719Y109929D02*
X410719Y109929D01*
X410719Y114515D01*
X410892Y115161D01*
X411227Y115740D01*
X411700Y116213D01*
X412279Y116548D01*
X412925Y116721D01*
X416511Y116721D01*
X416511Y109929D01*
X410719Y109929D01*
G37*
%LPD*%
%LPC*%
G36*
X412925Y96639D02*
X412925Y96639D01*
X412279Y96812D01*
X411700Y97147D01*
X411227Y97620D01*
X410892Y98199D01*
X410719Y98845D01*
X410719Y103431D01*
X416511Y103431D01*
X416511Y96639D01*
X412925Y96639D01*
G37*
%LPD*%
%LPC*%
G36*
X277985Y101019D02*
X277985Y101019D01*
X277339Y101192D01*
X276760Y101527D01*
X276287Y102000D01*
X275952Y102579D01*
X275838Y103006D01*
X275790Y103135D01*
X275749Y103266D01*
X275719Y103323D01*
X275696Y103383D01*
X275623Y103499D01*
X275557Y103620D01*
X275516Y103670D01*
X275482Y103724D01*
X275388Y103824D01*
X275300Y103929D01*
X275250Y103970D01*
X275205Y104016D01*
X275093Y104096D01*
X275059Y104123D01*
X275062Y104125D01*
X275209Y104250D01*
X275215Y104257D01*
X275222Y104263D01*
X275338Y104413D01*
X275459Y104566D01*
X275463Y104574D01*
X275468Y104581D01*
X275554Y104752D01*
X275641Y104925D01*
X275644Y104933D01*
X275648Y104941D01*
X275698Y105127D01*
X275749Y105313D01*
X275750Y105322D01*
X275752Y105330D01*
X275779Y105661D01*
X275779Y106061D01*
X282821Y106061D01*
X282821Y101019D01*
X277985Y101019D01*
G37*
%LPD*%
%LPC*%
G36*
X287819Y111059D02*
X287819Y111059D01*
X287819Y116101D01*
X292655Y116101D01*
X293301Y115928D01*
X293880Y115593D01*
X294353Y115120D01*
X294688Y114541D01*
X294861Y113895D01*
X294861Y111059D01*
X287819Y111059D01*
G37*
%LPD*%
%LPC*%
G36*
X275779Y111059D02*
X275779Y111059D01*
X275779Y113895D01*
X275952Y114541D01*
X276287Y115120D01*
X276760Y115593D01*
X277339Y115928D01*
X277985Y116101D01*
X282821Y116101D01*
X282821Y111059D01*
X275779Y111059D01*
G37*
%LPD*%
D10*
X405130Y548640D03*
X255270Y548640D03*
D11*
X42930Y388409D03*
X42930Y439209D03*
X42930Y490009D03*
X42930Y210609D03*
X42930Y261409D03*
X42930Y312209D03*
X42930Y50589D03*
X42930Y101389D03*
X42930Y152189D03*
D12*
X114300Y554482D02*
X139700Y554482D01*
X139700Y329438D02*
X114300Y329438D01*
D13*
X214630Y467360D02*
X229870Y467360D01*
X196850Y391160D02*
X181610Y391160D01*
D14*
X271780Y482600D03*
X271780Y431800D03*
X271780Y177800D03*
X449580Y177800D03*
X449580Y228600D03*
D15*
X160020Y139820D03*
X220020Y281820D03*
X100020Y281820D03*
D16*
X100020Y159820D03*
X220020Y159820D03*
D17*
X263320Y99060D03*
X285320Y108560D03*
X285320Y89560D03*
D18*
X312420Y92100D03*
X312420Y111100D03*
D19*
X312420Y22860D03*
X464820Y25400D03*
X396240Y25400D03*
D20*
X139700Y38100D03*
D21*
X139700Y63500D03*
D22*
X438760Y106680D03*
X419760Y106680D03*
D23*
X243840Y391160D02*
X189230Y391160D01*
X271780Y419100D02*
X271780Y431800D01*
X271780Y419100D02*
X243840Y391160D01*
X271780Y431800D02*
X388620Y548640D01*
X405130Y548640D01*
X42930Y439209D02*
X12192Y408471D01*
X33231Y261409D02*
X42930Y261409D01*
X12192Y282448D02*
X12192Y408471D01*
X12192Y282448D02*
X33231Y261409D01*
X42930Y261409D02*
X12700Y231179D01*
X12700Y119380D01*
X30691Y101389D01*
X42930Y101389D01*
X42930Y439209D02*
X152189Y439209D01*
X152400Y439420D01*
X189230Y402590D01*
X189230Y391160D01*
X93925Y490165D02*
X42930Y490009D01*
X93925Y490165D02*
X127000Y523240D01*
D24*
X127000Y525780D01*
D23*
X127000Y554482D01*
X127000Y525780D02*
X220980Y525780D01*
D24*
X222250Y524510D01*
D23*
X222250Y467360D01*
X232410Y525780D02*
X255270Y548640D01*
X232410Y525780D02*
X220980Y525780D01*
X157480Y298958D02*
X157480Y142360D01*
X160020Y139820D01*
X157480Y298958D02*
X127000Y329438D01*
D25*
X309880Y292100D03*
D23*
X462280Y292100D01*
D25*
X462280Y292100D03*
D23*
X279580Y114300D02*
X285320Y108560D01*
X285320Y120220D01*
X294640Y129540D01*
X378460Y129540D01*
X401320Y129540D01*
X419760Y111100D01*
X419760Y106680D01*
X428704Y115624D01*
X428704Y115653D01*
X449580Y136529D02*
X449580Y177800D01*
X449580Y136529D02*
X428704Y115653D01*
X396240Y111760D02*
X378460Y129540D01*
X396240Y111760D02*
X396240Y25400D01*
X208280Y106680D02*
X139700Y38100D01*
X208280Y106680D02*
X231140Y106680D01*
X238760Y114300D01*
X238760Y127000D01*
X241300Y129540D01*
X294640Y129540D01*
X464820Y25400D02*
X469900Y30480D01*
X469900Y106680D02*
X469900Y208280D01*
X469900Y106680D02*
X469900Y30480D01*
X469900Y208280D02*
X449580Y228600D01*
X220020Y143820D02*
X139700Y63500D01*
X220020Y143820D02*
X220020Y159820D01*
X220020Y202240D01*
X246380Y228600D01*
X438760Y106680D02*
X469900Y106680D01*
X449580Y228600D02*
X246380Y228600D01*
X263320Y99060D02*
X262470Y98210D01*
D25*
X236220Y99060D03*
D23*
X261620Y99060D01*
X262470Y98210D01*
X287860Y92100D02*
X312420Y92100D01*
X287860Y92100D02*
X285320Y89560D01*
X337820Y48260D02*
X312420Y22860D01*
X337820Y48260D02*
X337820Y101600D01*
X328320Y111100D01*
X312420Y111100D01*
M02*
