G04 EAGLE Gerber RS-274X export*
G75*
%MOMM*%
%FSLAX34Y34*%
%LPD*%
%INBottom Copper*%
%IPPOS*%
%AMOC8*
5,1,8,0,0,1.08239X$1,22.5*%
G01*
%ADD10P,1.649562X8X202.500000*%
%ADD11C,2.000000*%
%ADD12C,2.540000*%
%ADD13C,1.524000*%
%ADD14C,2.540000*%
%ADD15R,2.184400X2.184400*%
%ADD16C,1.778000*%
%ADD17P,2.749271X8X22.500000*%
%ADD18P,1.732040X8X292.500000*%
%ADD19C,1.600200*%
%ADD20C,0.406400*%
%ADD21C,0.756400*%

G36*
X300107Y10162D02*
X300107Y10162D01*
X300116Y10161D01*
X300308Y10182D01*
X300499Y10201D01*
X300508Y10203D01*
X300517Y10204D01*
X300699Y10262D01*
X300884Y10319D01*
X300892Y10323D01*
X300901Y10326D01*
X301069Y10419D01*
X301238Y10511D01*
X301245Y10516D01*
X301253Y10521D01*
X301400Y10645D01*
X301547Y10768D01*
X301553Y10775D01*
X301560Y10781D01*
X301679Y10932D01*
X301800Y11082D01*
X301804Y11090D01*
X301809Y11097D01*
X301897Y11270D01*
X301985Y11439D01*
X301988Y11448D01*
X301992Y11456D01*
X302044Y11642D01*
X302097Y11826D01*
X302097Y11835D01*
X302100Y11844D01*
X302114Y12037D01*
X302130Y12228D01*
X302129Y12236D01*
X302129Y12245D01*
X302105Y12438D01*
X302083Y12627D01*
X302080Y12636D01*
X302079Y12645D01*
X302017Y12828D01*
X301958Y13010D01*
X301953Y13018D01*
X301951Y13026D01*
X301854Y13193D01*
X301760Y13361D01*
X301754Y13368D01*
X301750Y13375D01*
X301535Y13628D01*
X298195Y16968D01*
X298195Y28752D01*
X306528Y37085D01*
X318312Y37085D01*
X326645Y28752D01*
X326645Y16968D01*
X323305Y13628D01*
X323299Y13621D01*
X323293Y13616D01*
X323172Y13466D01*
X323050Y13317D01*
X323046Y13309D01*
X323040Y13302D01*
X322952Y13132D01*
X322861Y12961D01*
X322859Y12952D01*
X322855Y12945D01*
X322802Y12760D01*
X322747Y12575D01*
X322746Y12566D01*
X322743Y12558D01*
X322728Y12367D01*
X322710Y12174D01*
X322711Y12165D01*
X322710Y12156D01*
X322733Y11967D01*
X322754Y11774D01*
X322756Y11765D01*
X322757Y11757D01*
X322817Y11575D01*
X322875Y11390D01*
X322879Y11382D01*
X322882Y11374D01*
X322977Y11205D01*
X323070Y11038D01*
X323076Y11031D01*
X323080Y11023D01*
X323206Y10877D01*
X323330Y10731D01*
X323337Y10725D01*
X323343Y10718D01*
X323495Y10601D01*
X323646Y10481D01*
X323654Y10477D01*
X323661Y10472D01*
X323833Y10386D01*
X324005Y10299D01*
X324014Y10296D01*
X324022Y10292D01*
X324208Y10242D01*
X324393Y10191D01*
X324402Y10190D01*
X324411Y10188D01*
X324741Y10161D01*
X385022Y10161D01*
X385031Y10162D01*
X385040Y10161D01*
X385231Y10182D01*
X385422Y10201D01*
X385431Y10203D01*
X385440Y10204D01*
X385622Y10262D01*
X385807Y10319D01*
X385815Y10323D01*
X385824Y10326D01*
X385992Y10419D01*
X386161Y10511D01*
X386168Y10516D01*
X386176Y10521D01*
X386323Y10645D01*
X386471Y10768D01*
X386476Y10775D01*
X386483Y10781D01*
X386602Y10932D01*
X386723Y11082D01*
X386727Y11090D01*
X386733Y11097D01*
X386820Y11270D01*
X386908Y11439D01*
X386911Y11448D01*
X386915Y11456D01*
X386967Y11642D01*
X387020Y11826D01*
X387021Y11835D01*
X387023Y11844D01*
X387037Y12037D01*
X387053Y12228D01*
X387052Y12236D01*
X387052Y12245D01*
X387028Y12438D01*
X387006Y12627D01*
X387003Y12636D01*
X387002Y12645D01*
X386941Y12828D01*
X386881Y13010D01*
X386877Y13018D01*
X386874Y13026D01*
X386778Y13193D01*
X386683Y13361D01*
X386677Y13368D01*
X386673Y13375D01*
X386458Y13628D01*
X380999Y19087D01*
X380999Y22861D01*
X395732Y22861D01*
X395750Y22862D01*
X395767Y22861D01*
X395950Y22882D01*
X396132Y22901D01*
X396149Y22906D01*
X396167Y22908D01*
X396245Y22933D01*
X396382Y22894D01*
X396400Y22892D01*
X396417Y22888D01*
X396748Y22861D01*
X411481Y22861D01*
X411481Y19087D01*
X406022Y13628D01*
X406016Y13621D01*
X406009Y13616D01*
X405889Y13466D01*
X405767Y13317D01*
X405763Y13309D01*
X405757Y13302D01*
X405669Y13132D01*
X405578Y12961D01*
X405576Y12952D01*
X405572Y12945D01*
X405518Y12760D01*
X405463Y12575D01*
X405463Y12566D01*
X405460Y12558D01*
X405445Y12366D01*
X405427Y12174D01*
X405428Y12165D01*
X405427Y12156D01*
X405449Y11967D01*
X405470Y11774D01*
X405473Y11765D01*
X405474Y11757D01*
X405534Y11575D01*
X405592Y11390D01*
X405596Y11382D01*
X405599Y11374D01*
X405694Y11205D01*
X405787Y11038D01*
X405793Y11031D01*
X405797Y11023D01*
X405923Y10877D01*
X406047Y10731D01*
X406054Y10725D01*
X406060Y10718D01*
X406212Y10601D01*
X406363Y10481D01*
X406371Y10477D01*
X406378Y10472D01*
X406550Y10386D01*
X406722Y10299D01*
X406731Y10296D01*
X406739Y10292D01*
X406925Y10242D01*
X407110Y10191D01*
X407119Y10190D01*
X407128Y10188D01*
X407458Y10161D01*
X455039Y10161D01*
X455047Y10162D01*
X455056Y10161D01*
X455250Y10182D01*
X455439Y10201D01*
X455448Y10203D01*
X455457Y10204D01*
X455641Y10262D01*
X455824Y10319D01*
X455832Y10323D01*
X455841Y10326D01*
X456009Y10419D01*
X456178Y10511D01*
X456185Y10516D01*
X456193Y10521D01*
X456340Y10645D01*
X456487Y10768D01*
X456493Y10775D01*
X456500Y10781D01*
X456619Y10932D01*
X456740Y11082D01*
X456744Y11090D01*
X456749Y11097D01*
X456837Y11270D01*
X456925Y11439D01*
X456928Y11448D01*
X456932Y11456D01*
X456984Y11642D01*
X457037Y11826D01*
X457037Y11835D01*
X457040Y11844D01*
X457054Y12037D01*
X457070Y12228D01*
X457069Y12236D01*
X457069Y12245D01*
X457045Y12438D01*
X457023Y12627D01*
X457020Y12636D01*
X457019Y12645D01*
X456957Y12828D01*
X456898Y13010D01*
X456893Y13018D01*
X456891Y13026D01*
X456794Y13193D01*
X456700Y13361D01*
X456694Y13368D01*
X456690Y13375D01*
X456475Y13628D01*
X450595Y19508D01*
X450595Y31292D01*
X458928Y39625D01*
X470712Y39625D01*
X478372Y31965D01*
X478379Y31959D01*
X478384Y31953D01*
X478534Y31832D01*
X478683Y31710D01*
X478691Y31706D01*
X478698Y31700D01*
X478868Y31612D01*
X479039Y31521D01*
X479048Y31519D01*
X479055Y31515D01*
X479240Y31462D01*
X479425Y31407D01*
X479434Y31406D01*
X479442Y31403D01*
X479634Y31388D01*
X479826Y31370D01*
X479835Y31371D01*
X479844Y31370D01*
X480033Y31393D01*
X480226Y31414D01*
X480235Y31416D01*
X480243Y31417D01*
X480425Y31477D01*
X480610Y31535D01*
X480618Y31539D01*
X480626Y31542D01*
X480795Y31637D01*
X480962Y31730D01*
X480969Y31736D01*
X480977Y31740D01*
X481123Y31866D01*
X481269Y31990D01*
X481275Y31997D01*
X481282Y32003D01*
X481399Y32155D01*
X481519Y32306D01*
X481523Y32314D01*
X481528Y32321D01*
X481614Y32493D01*
X481701Y32665D01*
X481704Y32674D01*
X481708Y32682D01*
X481758Y32868D01*
X481809Y33053D01*
X481810Y33062D01*
X481812Y33071D01*
X481839Y33401D01*
X481839Y320040D01*
X481837Y320058D01*
X481839Y320076D01*
X481818Y320258D01*
X481799Y320441D01*
X481794Y320458D01*
X481792Y320475D01*
X481735Y320650D01*
X481681Y320826D01*
X481673Y320841D01*
X481667Y320858D01*
X481577Y321018D01*
X481489Y321180D01*
X481478Y321193D01*
X481469Y321209D01*
X481349Y321348D01*
X481232Y321489D01*
X481218Y321500D01*
X481206Y321514D01*
X481061Y321626D01*
X480918Y321741D01*
X480902Y321749D01*
X480888Y321760D01*
X480723Y321842D01*
X480561Y321927D01*
X480544Y321932D01*
X480528Y321940D01*
X480349Y321987D01*
X480174Y322038D01*
X480156Y322040D01*
X480139Y322044D01*
X479808Y322071D01*
X256540Y322071D01*
X256522Y322069D01*
X256504Y322071D01*
X256322Y322050D01*
X256139Y322031D01*
X256122Y322026D01*
X256105Y322024D01*
X255930Y321967D01*
X255754Y321913D01*
X255739Y321905D01*
X255722Y321899D01*
X255562Y321809D01*
X255400Y321721D01*
X255387Y321710D01*
X255371Y321701D01*
X255232Y321581D01*
X255091Y321464D01*
X255080Y321450D01*
X255067Y321438D01*
X254954Y321293D01*
X254839Y321150D01*
X254831Y321134D01*
X254820Y321120D01*
X254738Y320955D01*
X254653Y320793D01*
X254648Y320776D01*
X254640Y320760D01*
X254593Y320581D01*
X254542Y320406D01*
X254540Y320388D01*
X254536Y320371D01*
X254509Y320040D01*
X254509Y221821D01*
X229704Y197016D01*
X229687Y196996D01*
X229667Y196978D01*
X229559Y196840D01*
X229449Y196705D01*
X229436Y196681D01*
X229420Y196660D01*
X229342Y196503D01*
X229260Y196349D01*
X229252Y196324D01*
X229240Y196300D01*
X229195Y196130D01*
X229145Y195963D01*
X229143Y195937D01*
X229136Y195911D01*
X229109Y195580D01*
X229109Y165497D01*
X229112Y165466D01*
X229110Y165435D01*
X229132Y165265D01*
X229149Y165096D01*
X229158Y165066D01*
X229162Y165035D01*
X229263Y164720D01*
X230435Y161892D01*
X230435Y157748D01*
X229263Y154920D01*
X229254Y154891D01*
X229240Y154863D01*
X229196Y154698D01*
X229147Y154535D01*
X229144Y154504D01*
X229136Y154474D01*
X229109Y154143D01*
X229109Y111251D01*
X121818Y111251D01*
X121809Y111250D01*
X121800Y111251D01*
X121607Y111230D01*
X121417Y111211D01*
X121409Y111209D01*
X121400Y111208D01*
X121215Y111149D01*
X121032Y111093D01*
X121024Y111089D01*
X121016Y111086D01*
X120848Y110993D01*
X120678Y110901D01*
X120671Y110896D01*
X120664Y110891D01*
X120517Y110767D01*
X120369Y110644D01*
X120363Y110637D01*
X120357Y110631D01*
X120237Y110479D01*
X120117Y110330D01*
X120113Y110322D01*
X120107Y110315D01*
X120019Y110142D01*
X119931Y109973D01*
X119929Y109964D01*
X119925Y109956D01*
X119873Y109770D01*
X119820Y109586D01*
X119819Y109577D01*
X119817Y109568D01*
X119803Y109375D01*
X119787Y109184D01*
X119788Y109176D01*
X119787Y109167D01*
X119812Y108974D01*
X119834Y108785D01*
X119837Y108776D01*
X119838Y108767D01*
X119899Y108585D01*
X119959Y108402D01*
X119963Y108394D01*
X119966Y108386D01*
X120062Y108218D01*
X120157Y108051D01*
X120162Y108044D01*
X120167Y108037D01*
X120382Y107784D01*
X123430Y104736D01*
X123450Y104719D01*
X123468Y104698D01*
X123606Y104591D01*
X123741Y104481D01*
X123765Y104468D01*
X123786Y104452D01*
X123943Y104374D01*
X124097Y104292D01*
X124122Y104284D01*
X124146Y104272D01*
X124316Y104227D01*
X124483Y104177D01*
X124509Y104175D01*
X124535Y104168D01*
X124866Y104141D01*
X234215Y104141D01*
X234246Y104144D01*
X234277Y104142D01*
X234446Y104164D01*
X234615Y104181D01*
X234645Y104190D01*
X234676Y104194D01*
X234992Y104295D01*
X235164Y104367D01*
X237276Y104367D01*
X239226Y103559D01*
X240719Y102066D01*
X241527Y100116D01*
X241527Y98004D01*
X240719Y96054D01*
X239226Y94561D01*
X237276Y93753D01*
X235164Y93753D01*
X234992Y93825D01*
X234962Y93834D01*
X234934Y93848D01*
X234769Y93892D01*
X234607Y93941D01*
X234576Y93944D01*
X234545Y93952D01*
X234215Y93979D01*
X120909Y93979D01*
X119042Y94753D01*
X117327Y96468D01*
X103138Y110656D01*
X103118Y110673D01*
X103100Y110694D01*
X102962Y110801D01*
X102827Y110911D01*
X102803Y110924D01*
X102782Y110940D01*
X102626Y111018D01*
X102471Y111100D01*
X102446Y111108D01*
X102422Y111120D01*
X102252Y111165D01*
X102085Y111215D01*
X102059Y111217D01*
X102033Y111224D01*
X101702Y111251D01*
X88900Y111251D01*
X88873Y111249D01*
X88847Y111251D01*
X88673Y111229D01*
X88499Y111211D01*
X88474Y111204D01*
X88447Y111200D01*
X88282Y111145D01*
X88114Y111093D01*
X88091Y111080D01*
X88066Y111072D01*
X87914Y110985D01*
X87760Y110901D01*
X87740Y110884D01*
X87717Y110871D01*
X87464Y110656D01*
X84924Y108116D01*
X84907Y108096D01*
X84887Y108078D01*
X84779Y107940D01*
X84669Y107805D01*
X84656Y107781D01*
X84640Y107760D01*
X84562Y107603D01*
X84480Y107449D01*
X84472Y107424D01*
X84460Y107400D01*
X84415Y107230D01*
X84365Y107063D01*
X84363Y107037D01*
X84356Y107011D01*
X84329Y106680D01*
X84329Y12192D01*
X84331Y12174D01*
X84329Y12156D01*
X84350Y11974D01*
X84369Y11791D01*
X84374Y11774D01*
X84376Y11757D01*
X84433Y11582D01*
X84487Y11406D01*
X84495Y11391D01*
X84501Y11374D01*
X84591Y11214D01*
X84679Y11052D01*
X84690Y11039D01*
X84699Y11023D01*
X84819Y10884D01*
X84936Y10743D01*
X84950Y10732D01*
X84962Y10718D01*
X85107Y10606D01*
X85250Y10491D01*
X85266Y10483D01*
X85280Y10472D01*
X85445Y10390D01*
X85607Y10305D01*
X85624Y10300D01*
X85641Y10292D01*
X85819Y10245D01*
X85994Y10194D01*
X86012Y10192D01*
X86029Y10188D01*
X86360Y10161D01*
X300099Y10161D01*
X300107Y10162D01*
G37*
%LPC*%
G36*
X268950Y163575D02*
X268950Y163575D01*
X263722Y165741D01*
X259721Y169742D01*
X257555Y174970D01*
X257555Y180630D01*
X259721Y185858D01*
X263722Y189859D01*
X268950Y192025D01*
X274610Y192025D01*
X279838Y189859D01*
X283839Y185858D01*
X286005Y180630D01*
X286005Y174970D01*
X283839Y169742D01*
X279838Y165741D01*
X274610Y163575D01*
X268950Y163575D01*
G37*
%LPD*%
%LPC*%
G36*
X446750Y214375D02*
X446750Y214375D01*
X441522Y216541D01*
X437521Y220542D01*
X435355Y225770D01*
X435355Y231430D01*
X437521Y236658D01*
X441522Y240659D01*
X444473Y241881D01*
X446750Y242825D01*
X452410Y242825D01*
X457638Y240659D01*
X461639Y236658D01*
X463805Y231430D01*
X463805Y225770D01*
X461639Y220542D01*
X457638Y216541D01*
X454302Y215159D01*
X454301Y215159D01*
X452410Y214375D01*
X446750Y214375D01*
G37*
%LPD*%
%LPC*%
G36*
X137805Y53974D02*
X137805Y53974D01*
X134304Y55424D01*
X131624Y58104D01*
X130174Y61605D01*
X130174Y65395D01*
X131624Y68896D01*
X134304Y71576D01*
X137805Y73026D01*
X141595Y73026D01*
X145096Y71576D01*
X147776Y68896D01*
X149226Y65395D01*
X149226Y61605D01*
X147776Y58104D01*
X145096Y55424D01*
X143323Y54690D01*
X141595Y53974D01*
X137805Y53974D01*
G37*
%LPD*%
%LPC*%
G36*
X398779Y27939D02*
X398779Y27939D01*
X398779Y40641D01*
X402553Y40641D01*
X411481Y31713D01*
X411481Y27939D01*
X398779Y27939D01*
G37*
%LPD*%
%LPC*%
G36*
X380999Y27939D02*
X380999Y27939D01*
X380999Y31713D01*
X389927Y40641D01*
X393701Y40641D01*
X393701Y27939D01*
X380999Y27939D01*
G37*
%LPD*%
%LPC*%
G36*
X452079Y180299D02*
X452079Y180299D01*
X452079Y192843D01*
X452560Y192780D01*
X454490Y192263D01*
X456335Y191498D01*
X458065Y190499D01*
X459651Y189283D01*
X461063Y187871D01*
X462279Y186285D01*
X463278Y184555D01*
X464043Y182710D01*
X464560Y180780D01*
X464623Y180299D01*
X452079Y180299D01*
G37*
%LPD*%
%LPC*%
G36*
X434537Y180299D02*
X434537Y180299D01*
X434600Y180780D01*
X435117Y182710D01*
X435882Y184555D01*
X436881Y186285D01*
X438097Y187871D01*
X439509Y189283D01*
X441095Y190499D01*
X442825Y191498D01*
X444670Y192263D01*
X446600Y192780D01*
X447081Y192843D01*
X447081Y180299D01*
X434537Y180299D01*
G37*
%LPD*%
%LPC*%
G36*
X452079Y175301D02*
X452079Y175301D01*
X464623Y175301D01*
X464560Y174820D01*
X464043Y172890D01*
X463278Y171045D01*
X462279Y169315D01*
X461063Y167729D01*
X459651Y166317D01*
X458065Y165101D01*
X456335Y164102D01*
X454490Y163337D01*
X452560Y162820D01*
X452079Y162757D01*
X452079Y175301D01*
G37*
%LPD*%
%LPC*%
G36*
X446600Y162820D02*
X446600Y162820D01*
X444670Y163337D01*
X442825Y164102D01*
X441095Y165101D01*
X439509Y166317D01*
X438097Y167729D01*
X436881Y169315D01*
X435882Y171045D01*
X435117Y172890D01*
X434600Y174820D01*
X434537Y175301D01*
X447081Y175301D01*
X447081Y162757D01*
X446600Y162820D01*
G37*
%LPD*%
%LPC*%
G36*
X141731Y40131D02*
X141731Y40131D01*
X141731Y48642D01*
X144067Y48642D01*
X150242Y42467D01*
X150242Y40131D01*
X141731Y40131D01*
G37*
%LPD*%
%LPC*%
G36*
X129158Y40131D02*
X129158Y40131D01*
X129158Y42467D01*
X135333Y48642D01*
X137669Y48642D01*
X137669Y40131D01*
X129158Y40131D01*
G37*
%LPD*%
%LPC*%
G36*
X141731Y27558D02*
X141731Y27558D01*
X141731Y36069D01*
X150242Y36069D01*
X150242Y33733D01*
X144067Y27558D01*
X141731Y27558D01*
G37*
%LPD*%
%LPC*%
G36*
X135333Y27558D02*
X135333Y27558D01*
X129158Y33733D01*
X129158Y36069D01*
X137669Y36069D01*
X137669Y27558D01*
X135333Y27558D01*
G37*
%LPD*%
D10*
X405130Y548640D03*
X255270Y548640D03*
D11*
X42930Y388409D03*
X42930Y439209D03*
X42930Y490009D03*
X42930Y210609D03*
X42930Y261409D03*
X42930Y312209D03*
X42930Y50589D03*
X42930Y101389D03*
X42930Y152189D03*
D12*
X114300Y554482D02*
X139700Y554482D01*
X139700Y329438D02*
X114300Y329438D01*
D13*
X214630Y467360D02*
X229870Y467360D01*
X196850Y391160D02*
X181610Y391160D01*
D14*
X271780Y482600D03*
X271780Y431800D03*
X271780Y177800D03*
X449580Y177800D03*
X449580Y228600D03*
D15*
X160020Y139820D03*
X220020Y281820D03*
X100020Y281820D03*
D16*
X100020Y159820D03*
X220020Y159820D03*
D17*
X312420Y22860D03*
X464820Y25400D03*
X396240Y25400D03*
D18*
X139700Y38100D03*
D19*
X139700Y63500D03*
D20*
X42930Y50589D02*
X25103Y50589D01*
X12192Y63500D01*
X12192Y192532D01*
X30269Y210609D02*
X42930Y210609D01*
X30269Y210609D02*
X12192Y192532D01*
X12192Y357671D02*
X42930Y388409D01*
X12192Y357671D02*
X12192Y233680D01*
X35263Y210609D01*
X42930Y210609D01*
X127000Y329438D02*
X163322Y365760D01*
X220980Y365760D01*
X233680Y378460D01*
X233680Y444500D02*
X271780Y482600D01*
X233680Y444500D02*
X233680Y378460D01*
X424180Y177800D02*
X449580Y177800D01*
X424180Y177800D02*
X309880Y292100D01*
D21*
X309880Y292100D03*
X462280Y292100D03*
D20*
X449580Y177800D02*
X449580Y157610D01*
X460756Y290576D02*
X462280Y292100D01*
D21*
X236220Y99060D03*
D20*
X100020Y120960D02*
X100020Y159820D01*
X100020Y120960D02*
X121920Y99060D01*
X236220Y99060D01*
X73660Y281479D02*
X42930Y312209D01*
X73660Y182880D02*
X76200Y180340D01*
X48049Y152189D01*
X42930Y152189D01*
X73660Y246380D02*
X73660Y281479D01*
X73660Y246380D02*
X73660Y182880D01*
X220020Y258120D02*
X220020Y281820D01*
X208280Y246380D02*
X73660Y246380D01*
X208280Y246380D02*
X220020Y258120D01*
M02*
