M48
;GenerationSoftware,Autodesk,EAGLE,9.6.2*%
;CreationDate,2020-11-10T20:16:56Z*%
FMAT,2
ICI,OFF
METRIC,TZ,000.000
T8C0.350
T7C0.800
T6C0.813
T5C1.000
T4C1.016
T3C1.300
T2C1.321
T1C3.000
%
G90
M71
T1
X3100Y56000
X46100Y56000
T2
X12700Y32944
X12700Y55448
T3
X4293Y38841
X4293Y43921
X4293Y49001
X4293Y21061
X4293Y26141
X4293Y31221
X4293Y5059
X4293Y10139
X4293Y15219
X16002Y13982
X22002Y28182
X10002Y28182
T4
X18923Y39116
X22225Y46736
X40513Y54864
X25527Y54864
X31242Y2286
X46482Y2540
X39624Y2540
T5
X27178Y48260
X27178Y43180
X27178Y17780
X44958Y17780
X44958Y22860
T6
X13970Y6350
X13970Y3810
T7
X10002Y15982
X22002Y15982
T8
X23622Y9906
X46228Y29210
X30988Y29210
M30