M48
;GenerationSoftware,Autodesk,EAGLE,9.6.2*%
;CreationDate,2020-11-26T18:00:07Z*%
FMAT,2
ICI,OFF
METRIC,TZ,000.000
T8C0.350
T7C0.800
T6C0.813
T5C1.000
T4C1.016
T3C1.300
T2C1.321
T1C3.000
%
G90
M71
T1
X3100Y56000
X50227Y56000
T2
X12700Y55448
X12700Y32944
T3
X4293Y38841
X4293Y31221
X4293Y43921
X4293Y49001
X4293Y21061
X4293Y26141
X16002Y13982
X4293Y5059
X4293Y10139
X4293Y15219
X22002Y28182
X10002Y28182
T4
X40513Y54864
X25527Y54864
X22225Y46736
X18923Y39116
X35878Y2857
X50355Y2857
X43498Y2857
T5
X27559Y46990
X27559Y41910
X27559Y16510
X45339Y16510
X45339Y21590
X42716Y46956
X27515Y46956
X42716Y18957
X35116Y18957
T6
X13970Y6350
X13970Y3810
X51435Y9589
X48895Y9589
X20828Y5271
X22098Y3365
X23368Y5271
X33909Y8573
X33909Y11112
T7
X10002Y15982
X22002Y15982
T8
X12763Y9652
M30